<svg viewBox="0 0 100 100" xmlns="http://www.w3.org/2000/svg">
  <defs>
    <linearGradient id="grad1" x1="0%" y1="0%" x2="100%" y2="100%">
      <stop offset="0%" style="stop-color:#0A4F7C;stop-opacity:1" />
      <stop offset="100%" style="stop-color:#14B8A6;stop-opacity:1" />
    </linearGradient>
  </defs>
  <!-- Interlocking hexagons forming wrench shape -->
  <g transform="translate(20,30)">
    <path d="M 0,10 L 8.66,5 L 8.66,-5 L 0,-10 L -8.66,-5 L -8.66,5 Z" fill="url(#grad1)"/>
    <path d="M 17.32,10 L 25.98,5 L 25.98,-5 L 17.32,-10 L 8.66,-5 L 8.66,5 Z" fill="url(#grad1)" opacity="0.8"/>
    <path d="M 34.64,10 L 43.3,5 L 43.3,-5 L 34.64,-10 L 25.98,-5 L 25.98,5 Z" fill="url(#grad1)" opacity="0.6"/>
  </g>
  <!-- Handle -->
  <rect x="50" y="35" width="30" height="8" rx="2" fill="#1E293B"/>
  <rect x="70" y="33" width="12" height="12" rx="2" fill="#EA580C"/>
  <!-- Bottom hexagon cluster -->
  <g transform="translate(30,65) scale(0.8)">
    <path d="M 0,10 L 8.66,5 L 8.66,-5 L 0,-10 L -8.66,-5 L -8.66,5 Z" fill="#14B8A6"/>
    <path d="M 17.32,10 L 25.98,5 L 25.98,-5 L 17.32,-10 L 8.66,-5 L 8.66,5 Z" fill="#14B8A6" opacity="0.7"/>
  </g>
</svg>