<svg viewBox="0 0 100 100" xmlns="http://www.w3.org/2000/svg">
  <defs>
    <linearGradient id="grad2" x1="0%" y1="0%" x2="100%" y2="100%">
      <stop offset="0%" style="stop-color:#14B8A6;stop-opacity:1" />
      <stop offset="100%" style="stop-color:#5EEAD4;stop-opacity:1" />
    </linearGradient>
  </defs>
  <!-- Diamond grid -->
  <g>
    <path d="M 25,35 L 35,25 L 45,35 L 35,45 Z" fill="url(#grad2)"/>
    <path d="M 45,35 L 55,25 L 65,35 L 55,45 Z" fill="url(#grad2)" opacity="0.7"/>
    <path d="M 55,35 L 65,25 L 75,35 L 65,45 Z" fill="url(#grad2)" opacity="0.5"/>
    <path d="M 35,55 L 45,45 L 55,55 L 45,65 Z" fill="url(#grad2)" opacity="0.6"/>
    <path d="M 45,55 L 55,45 L 65,55 L 55,65 Z" fill="url(#grad2)" opacity="0.4"/>
  </g>
  <!-- Code brackets -->
  <path d="M 20,40 L 15,45 L 15,55 L 20,60" stroke="#EA580C" stroke-width="3" fill="none" stroke-linecap="round"/>
  <path d="M 80,40 L 85,45 L 85,55 L 80,60" stroke="#EA580C" stroke-width="3" fill="none" stroke-linecap="round"/>
  <!-- Center dot -->
  <circle cx="50" cy="50" r="3" fill="#1E293B"/>
</svg>