<svg viewBox="0 0 100 100" xmlns="http://www.w3.org/2000/svg">
  <defs>
    <linearGradient id="grad3" x1="0%" y1="0%" x2="0%" y2="100%">
      <stop offset="0%" style="stop-color:#0A4F7C;stop-opacity:1" />
      <stop offset="100%" style="stop-color:#14B8A6;stop-opacity:1" />
    </linearGradient>
  </defs>
  <!-- Triangular tessellation forming hammer head -->
  <g transform="translate(50,30)">
    <path d="M -20,-10 L -10,-10 L -15,0 Z" fill="url(#grad3)"/>
    <path d="M -10,-10 L 0,-10 L -5,0 Z" fill="url(#grad3)" opacity="0.8"/>
    <path d="M 0,-10 L 10,-10 L 5,0 Z" fill="url(#grad3)" opacity="0.6"/>
    <path d="M 10,-10 L 20,-10 L 15,0 Z" fill="url(#grad3)" opacity="0.4"/>
    <path d="M -15,0 L -5,0 L -10,10 Z" fill="#1E293B" opacity="0.7"/>
    <path d="M -5,0 L 5,0 L 0,10 Z" fill="#1E293B" opacity="0.5"/>
    <path d="M 5,0 L 15,0 L 10,10 Z" fill="#1E293B" opacity="0.3"/>
  </g>
  <!-- Handle -->
  <rect x="46" y="40" width="8" height="35" rx="2" fill="#EA580C"/>
  <rect x="44" y="70" width="12" height="5" rx="1" fill="#FB923C"/>
  <!-- Impact marks -->
  <circle cx="65" cy="45" r="2" fill="#14B8A6" opacity="0.5"/>
  <circle cx="68" cy="50" r="1.5" fill="#14B8A6" opacity="0.3"/>
  <circle cx="70" cy="55" r="1" fill="#14B8A6" opacity="0.2"/>
</svg>