<svg viewBox="0 0 100 100" xmlns="http://www.w3.org/2000/svg">
  <defs>
    <pattern id="grid9" width="10" height="10" patternUnits="userSpaceOnUse">
      <path d="M 10,0 L 0,0 L 0,10" fill="none" stroke="#14B8A6" stroke-width="0.5" opacity="0.3"/>
    </pattern>
    <linearGradient id="grad9" x1="0%" y1="0%" x2="100%" y2="100%">
      <stop offset="0%" style="stop-color:#0A4F7C;stop-opacity:1" />
      <stop offset="100%" style="stop-color:#1E293B;stop-opacity:1" />
    </linearGradient>
  </defs>
  <!-- Blueprint background -->
  <rect x="0" y="0" width="100" height="100" fill="#0A4F7C" opacity="0.1"/>
  <rect x="0" y="0" width="100" height="100" fill="url(#grid9)"/>
  <!-- Wrench emerging from grid -->
  <g transform="translate(50,50) rotate(45)">
    <!-- Handle -->
    <rect x="-3" y="0" width="6" height="25" fill="url(#grad9)"/>
    <!-- Head -->
    <path d="M -10,-10 L -10,0 L -3,0 L -3,-3 L 3,-3 L 3,0 L 10,0 L 10,-10 Q 0,-15 -10,-10 Z" fill="#EA580C"/>
    <!-- Grid overlay on wrench -->
    <path d="M -10,-5 L 10,-5 M -5,-10 L -5,0 M 0,-10 L 0,0 M 5,-10 L 5,0" stroke="#5EEAD4" stroke-width="0.5" opacity="0.5"/>
  </g>
  <!-- Grid transformation points -->
  <circle cx="30" cy="30" r="2" fill="#14B8A6"/>
  <circle cx="70" cy="30" r="2" fill="#14B8A6"/>
  <circle cx="30" cy="70" r="2" fill="#14B8A6"/>
  <circle cx="70" cy="70" r="2" fill="#14B8A6"/>
</svg>