<svg viewBox="0 0 100 100" xmlns="http://www.w3.org/2000/svg">
  <defs>
    <linearGradient id="gradSuccess" x1="0%" y1="0%" x2="100%" y2="100%">
      <stop offset="0%" style="stop-color:#14B8A6;stop-opacity:1" />
      <stop offset="100%" style="stop-color:#5EEAD4;stop-opacity:1" />
    </linearGradient>
    <linearGradient id="gradError" x1="0%" y1="0%" x2="100%" y2="100%">
      <stop offset="0%" style="stop-color:#EA580C;stop-opacity:1" />
      <stop offset="100%" style="stop-color:#FB923C;stop-opacity:1" />
    </linearGradient>
  </defs>
  <!-- Large split diamond -->
  <g transform="translate(50,50)">
    <!-- Success half (left) -->
    <path d="M 0,-25 L -20,0 L 0,25 L 0,0 Z" fill="url(#gradSuccess)"/>
    <!-- Error half (right) -->
    <path d="M 0,-25 L 20,0 L 0,25 L 0,0 Z" fill="url(#gradError)"/>
    <!-- Center line -->
    <line x1="0" y1="-25" x2="0" y2="25" stroke="#1E293B" stroke-width="2"/>
    <!-- Inner diamonds -->
    <path d="M 0,-15 L -10,0 L 0,15 L 0,0 Z" fill="#0A4F7C" opacity="0.3"/>
    <path d="M 0,-15 L 10,0 L 0,15 L 0,0 Z" fill="#881337" opacity="0.3"/>
    <!-- Result indicators -->
    <circle cx="-10" cy="0" r="3" fill="#ffffff"/>
    <path d="M -12,-2 L -10,0 L -8.5,-1.5" stroke="#14B8A6" stroke-width="1.5" fill="none"/> <!-- Checkmark -->
    <circle cx="10" cy="0" r="3" fill="#ffffff"/>
    <path d="M 8.5,-1.5 L 11.5,1.5 M 11.5,-1.5 L 8.5,1.5" stroke="#EA580C" stroke-width="1.5"/> <!-- X -->
  </g>
</svg>