<svg viewBox="0 0 100 100" xmlns="http://www.w3.org/2000/svg">
  <defs>
    <linearGradient id="grad12" x1="0%" y1="0%" x2="100%" y2="0%">
      <stop offset="0%" style="stop-color:#14B8A6;stop-opacity:1" />
      <stop offset="50%" style="stop-color:#374151;stop-opacity:1" />
      <stop offset="100%" style="stop-color:#EA580C;stop-opacity:1" />
    </linearGradient>
  </defs>
  <!-- Tool body that transforms -->
  <g transform="translate(50,50)">
    <!-- Central handle -->
    <rect x="-4" y="-20" width="8" height="40" fill="url(#grad12)" rx="2"/>
    <!-- Success state (top) - precision compass -->
    <g transform="translate(0,-20)">
      <circle cx="0" cy="0" r="12" fill="none" stroke="#14B8A6" stroke-width="2" opacity="0.8"/>
      <path d="M -8,-8 L 0,0 L 8,-8" fill="none" stroke="#5EEAD4" stroke-width="2"/>
      <circle cx="0" cy="0" r="3" fill="#14B8A6"/>
    </g>
    <!-- Error state (bottom) - broken gear -->
    <g transform="translate(0,20)">
      <path d="M -12,0 L -10,-5 L -5,-8 L 0,-10 L 5,-8 L 10,-5 L 12,0 L 10,5 L 5,8 L 0,10 L -5,8 L -10,5 Z" 
            fill="none" stroke="#EA580C" stroke-width="2" stroke-dasharray="4,2"/>
      <circle cx="0" cy="0" r="5" fill="none" stroke="#FB923C" stroke-width="2"/>
      <path d="M -2,-2 L 2,2 M 2,-2 L -2,2" stroke="#EA580C" stroke-width="2"/>
    </g>
    <!-- Transition arrows -->
    <path d="M 8,0 L 12,-4 L 12,4 Z" fill="#374151" opacity="0.5"/>
    <path d="M -8,0 L -12,-4 L -12,4 Z" fill="#374151" opacity="0.5"/>
  </g>
</svg>