<svg viewBox="0 0 100 100" xmlns="http://www.w3.org/2000/svg">
  <defs>
    <linearGradient id="grad13" x1="0%" y1="50%" x2="100%" y2="50%">
      <stop offset="0%" style="stop-color:#14B8A6;stop-opacity:1" />
      <stop offset="50%" style="stop-color:#374151;stop-opacity:1" />
      <stop offset="100%" style="stop-color:#EA580C;stop-opacity:1" />
    </linearGradient>
  </defs>
  <!-- Ordered tessellation (left) -->
  <g>
    <rect x="10" y="30" width="12" height="12" fill="#14B8A6"/>
    <rect x="22" y="30" width="12" height="12" fill="#14B8A6" opacity="0.9"/>
    <rect x="10" y="42" width="12" height="12" fill="#14B8A6" opacity="0.9"/>
    <rect x="22" y="42" width="12" height="12" fill="#14B8A6" opacity="0.8"/>
    <rect x="10" y="54" width="12" height="12" fill="#14B8A6" opacity="0.8"/>
    <rect x="22" y="54" width="12" height="12" fill="#14B8A6" opacity="0.7"/>
  </g>
  <!-- Transition zone (middle) -->
  <g>
    <rect x="38" y="32" width="10" height="10" fill="#374151" transform="rotate(5 43 37)"/>
    <rect x="50" y="35" width="10" height="10" fill="#374151" transform="rotate(-5 55 40)" opacity="0.8"/>
    <rect x="40" y="48" width="10" height="10" fill="#374151" transform="rotate(10 45 53)" opacity="0.7"/>
    <rect x="52" y="52" width="10" height="10" fill="#374151" transform="rotate(-8 57 57)" opacity="0.6"/>
  </g>
  <!-- Controlled chaos (right) -->
  <g>
    <rect x="68" y="28" width="11" height="11" fill="#EA580C" transform="rotate(25 73.5 33.5)"/>
    <rect x="80" y="35" width="9" height="9" fill="#FB923C" transform="rotate(-30 84.5 39.5)" opacity="0.9"/>
    <rect x="70" y="45" width="10" height="10" fill="#EA580C" transform="rotate(45 75 50)" opacity="0.8"/>
    <rect x="82" y="50" width="8" height="8" fill="#FB923C" transform="rotate(-20 86 54)" opacity="0.7"/>
    <rect x="66" y="58" width="11" height="11" fill="#EA580C" transform="rotate(35 71.5 63.5)" opacity="0.6"/>
    <rect x="78" y="62" width="9" height="9" fill="#FB923C" transform="rotate(-40 82.5 66.5)" opacity="0.5"/>
  </g>
  <!-- Flow indicator -->
  <path d="M 35,48 L 40,48 L 38,45 M 40,48 L 38,51" stroke="url(#grad13)" stroke-width="2" fill="none"/>
  <path d="M 60,48 L 65,48 L 63,45 M 65,48 L 63,51" stroke="url(#grad13)" stroke-width="2" fill="none"/>
</svg>