<svg viewBox="0 0 100 100" xmlns="http://www.w3.org/2000/svg">
  <defs>
    <linearGradient id="grad15" x1="0%" y1="0%" x2="100%" y2="100%">
      <stop offset="0%" style="stop-color:#14B8A6;stop-opacity:1" />
      <stop offset="100%" style="stop-color:#5EEAD4;stop-opacity:1" />
    </linearGradient>
  </defs>
  <!-- Assembled blocks (top) -->
  <g transform="translate(50,30)">
    <rect x="-20" y="-10" width="15" height="15" fill="url(#grad15)"/>
    <rect x="-5" y="-10" width="15" height="15" fill="url(#grad15)" opacity="0.9"/>
    <rect x="10" y="-10" width="15" height="15" fill="url(#grad15)" opacity="0.8"/>
    <rect x="-12.5" y="5" width="15" height="15" fill="url(#grad15)" opacity="0.7"/>
    <rect x="2.5" y="5" width="15" height="15" fill="url(#grad15)" opacity="0.6"/>
    <!-- Connection indicators -->
    <circle cx="-5" cy="-2.5" r="2" fill="#0A4F7C"/>
    <circle cx="10" cy="-2.5" r="2" fill="#0A4F7C"/>
    <circle cx="2.5" cy="12.5" r="2" fill="#0A4F7C"/>
  </g>
  <!-- Transition arrow -->
  <path d="M 50,50 L 50,55 M 47,53 L 50,55 L 53,53" stroke="#374151" stroke-width="2" fill="none"/>
  <!-- Disassembled blocks (bottom) -->
  <g transform="translate(50,70)">
    <rect x="-25" y="-5" width="12" height="12" fill="#EA580C" transform="rotate(-15 -19 1)"/>
    <rect x="-8" y="-8" width="12" height="12" fill="#FB923C" transform="rotate(10 -2 -2)" opacity="0.9"/>
    <rect x="10" y="-6" width="12" height="12" fill="#EA580C" transform="rotate(25 16 0)" opacity="0.8"/>
    <rect x="-18" y="8" width="12" height="12" fill="#FB923C" transform="rotate(-20 -12 14)" opacity="0.7"/>
    <rect x="5" y="10" width="12" height="12" fill="#EA580C" transform="rotate(30 11 16)" opacity="0.6"/>
    <!-- Broken connections -->
    <circle cx="-10" cy="0" r="1.5" fill="#881337" opacity="0.5"/>
    <circle cx="8" cy="2" r="1.5" fill="#881337" opacity="0.5"/>
    <circle cx="-2" cy="12" r="1.5" fill="#881337" opacity="0.5"/>
  </g>
</svg>