<svg viewBox="0 0 100 100" xmlns="http://www.w3.org/2000/svg">
  <defs>
    <!-- Plasma-forged steel gradient -->
    <linearGradient id="plasma8" x1="0%" y1="0%" x2="100%" y2="100%">
      <stop offset="0%" style="stop-color:#F0F9FF;stop-opacity:1" />
      <stop offset="20%" style="stop-color:#7DD3FC;stop-opacity:1" />
      <stop offset="40%" style="stop-color:#0EA5E9;stop-opacity:1" />
      <stop offset="60%" style="stop-color:#0284C7;stop-opacity:1" />
      <stop offset="80%" style="stop-color:#0369A1;stop-opacity:1" />
      <stop offset="100%" style="stop-color:#0C4A6E;stop-opacity:1" />
    </linearGradient>
    <!-- Titanium handle -->
    <linearGradient id="titaniumHandle8" x1="0%" y1="0%" x2="100%" y2="100%">
      <stop offset="0%" style="stop-color:#E2E8F0;stop-opacity:1" />
      <stop offset="50%" style="stop-color:#64748B;stop-opacity:1" />
      <stop offset="100%" style="stop-color:#1E293B;stop-opacity:1" />
    </linearGradient>
    <!-- Enhanced plasma energy field -->
    <radialGradient id="plasmaField8" cx="50%" cy="50%">
      <stop offset="0%" style="stop-color:#F0F9FF;stop-opacity:1" />
      <stop offset="15%" style="stop-color:#7DD3FC;stop-opacity:0.95" />
      <stop offset="30%" style="stop-color:#0EA5E9;stop-opacity:0.8" />
      <stop offset="45%" style="stop-color:#0284C7;stop-opacity:0.6" />
      <stop offset="60%" style="stop-color:#0369A1;stop-opacity:0.3" />
      <stop offset="100%" style="stop-color:#0C4A6E;stop-opacity:0" />
    </radialGradient>
    <!-- Hyper velocity blur -->
    <filter id="hyperVelocity8">
      <feGaussianBlur in="SourceGraphic" stdDeviation="4,1.2"/>
    </filter>
    <!-- Enhanced energy core glow -->
    <filter id="energyGlow8">
      <feGaussianBlur stdDeviation="4"/>
      <feColorMatrix values="1 0 0 0 0  0 1 0 0 0  0 0 1 0 0  0 0 0 1 0"/>
    </filter>
  </defs>
  
  <!-- High-tech anvil base -->
  <path d="M 20,78 L 30,75 L 70,75 L 80,78 L 76,88 L 24,88 Z" fill="#0F172A" stroke="#0369A1" stroke-width="0.5"/>
  <rect x="32" y="72" width="36" height="6" rx="2" fill="#1E293B" stroke="#0EA5E9" stroke-width="0.3"/>
  <!-- Tech surface pattern -->
  <rect x="34" y="72" width="32" height="2" fill="#0284C7" opacity="0.6"/>
  <rect x="36" y="74" width="4" height="2" fill="#7DD3FC" opacity="0.4"/>
  <rect x="44" y="74" width="4" height="2" fill="#7DD3FC" opacity="0.4"/>
  <rect x="52" y="74" width="4" height="2" fill="#7DD3FC" opacity="0.4"/>
  <rect x="60" y="74" width="4" height="2" fill="#7DD3FC" opacity="0.4"/>
  
  <!-- Focused impact plasma field -->
  <ellipse cx="50" cy="75" rx="30" ry="18" fill="url(#plasmaField8)" opacity="0.9"/>
  
  <!-- Enhanced hyper-velocity motion blur -->
  <g opacity="0.6" filter="url(#hyperVelocity8)">
    <rect x="46" y="2" width="8" height="56" fill="#0EA5E9" transform="rotate(-38 50 30)"/>
    <rect x="44" y="-2" width="8" height="56" fill="#0284C7" transform="rotate(-34 48 26)"/>
    <rect x="42" y="-6" width="8" height="56" fill="#0369A1" transform="rotate(-30 46 22)"/>
  </g>
  
  <!-- Main plasma hammer -->
  <g transform="rotate(-38 50 36)">
    <!-- Titanium handle with tech grip -->
    <rect x="47" y="2" width="6" height="52" rx="3" fill="url(#titaniumHandle8)"/>
    <!-- Tech grip pattern -->
    <rect x="47.2" y="12" width="5.6" height="1" fill="#0EA5E9" opacity="0.7"/>
    <rect x="47.2" y="16" width="5.6" height="1" fill="#0EA5E9" opacity="0.7"/>
    <rect x="47.2" y="20" width="5.6" height="1" fill="#0EA5E9" opacity="0.7"/>
    <rect x="47.2" y="24" width="5.6" height="1" fill="#0EA5E9" opacity="0.7"/>
    <rect x="47.2" y="28" width="5.6" height="1" fill="#0EA5E9" opacity="0.7"/>
    <rect x="47.2" y="32" width="5.6" height="1" fill="#0EA5E9" opacity="0.7"/>
    <rect x="47.2" y="36" width="5.6" height="1" fill="#0EA5E9" opacity="0.7"/>
    <!-- Plasma-forged hammer head -->
    <rect x="36" y="-4" width="28" height="18" rx="4" fill="url(#plasma8)"/>
    <!-- Energy core -->
    <rect x="38" y="1" width="24" height="3" fill="#F0F9FF" opacity="0.9"/>
    <rect x="38" y="8" width="24" height="3" fill="#0C4A6E" opacity="0.8"/>
    <!-- Tech details -->
    <circle cx="42" cy="5" r="1" fill="#7DD3FC" opacity="0.8"/>
    <circle cx="58" cy="5" r="1" fill="#7DD3FC" opacity="0.8"/>
  </g>
  
  <!-- Enhanced plasma explosion core -->
  <circle cx="50" cy="73" r="6" fill="#F0F9FF" filter="url(#energyGlow8)">
    <animate attributeName="r" values="6;4;6" dur="0.3s" repeatCount="indefinite"/>
    <animate attributeName="opacity" values="1;0.8;1" dur="0.3s" repeatCount="indefinite"/>
  </circle>
  
  <!-- Intensified particle burst -->
  <g opacity="1">
    <circle cx="43" cy="70" r="3.5" fill="#7DD3FC"/>
    <circle cx="57" cy="70" r="3.5" fill="#7DD3FC"/>
    <circle cx="36" cy="72" r="3" fill="#0EA5E9" opacity="0.9"/>
    <circle cx="64" cy="72" r="3" fill="#0EA5E9" opacity="0.9"/>
    <circle cx="46" cy="66" r="2.5" fill="#F0F9FF" opacity="0.8"/>
    <circle cx="54" cy="66" r="2.5" fill="#F0F9FF" opacity="0.8"/>
    <circle cx="39" cy="76" r="2" fill="#0284C7" opacity="0.7"/>
    <circle cx="61" cy="76" r="2" fill="#0284C7" opacity="0.7"/>
  </g>
  
  <!-- Minimal background energy -->
  <g opacity="0.15">
    <circle cx="50" cy="75" r="45" fill="none" stroke="#0EA5E9" stroke-width="0.5"/>
  </g>
  
  <!-- Enhanced energy matrix particles -->
  <g opacity="0.7">
    <rect x="28" y="76" width="2.5" height="2.5" fill="#7DD3FC" opacity="0.9">
      <animateTransform attributeName="transform" type="rotate" values="0 29.25 77.25;360 29.25 77.25" dur="2.5s" repeatCount="indefinite"/>
    </rect>
    <rect x="70" y="76" width="2.5" height="2.5" fill="#7DD3FC" opacity="0.9">
      <animateTransform attributeName="transform" type="rotate" values="0 71.25 77.25;360 71.25 77.25" dur="2.5s" repeatCount="indefinite"/>
    </rect>
    <rect x="44" y="58" width="2" height="2" fill="#0EA5E9" opacity="0.8">
      <animateTransform attributeName="transform" type="rotate" values="0 45 59;360 45 59" dur="2s" repeatCount="indefinite"/>
    </rect>
    <rect x="54" y="58" width="2" height="2" fill="#0EA5E9" opacity="0.8">
      <animateTransform attributeName="transform" type="rotate" values="0 55 59;360 55 59" dur="2s" repeatCount="indefinite"/>
    </rect>
  </g>
</svg>