<svg viewBox="0 0 100 100" xmlns="http://www.w3.org/2000/svg">
  <defs>
    <!-- Plasma-forged steel gradient -->
    <linearGradient id="plasma8" x1="0%" y1="0%" x2="100%" y2="100%">
      <stop offset="0%" style="stop-color:#F0F9FF;stop-opacity:1" />
      <stop offset="20%" style="stop-color:#7DD3FC;stop-opacity:1" />
      <stop offset="40%" style="stop-color:#0EA5E9;stop-opacity:1" />
      <stop offset="60%" style="stop-color:#0284C7;stop-opacity:1" />
      <stop offset="80%" style="stop-color:#0369A1;stop-opacity:1" />
      <stop offset="100%" style="stop-color:#0C4A6E;stop-opacity:1" />
    </linearGradient>
    <!-- Titanium handle -->
    <linearGradient id="titaniumHandle8" x1="0%" y1="0%" x2="100%" y2="100%">
      <stop offset="0%" style="stop-color:#E2E8F0;stop-opacity:1" />
      <stop offset="50%" style="stop-color:#64748B;stop-opacity:1" />
      <stop offset="100%" style="stop-color:#1E293B;stop-opacity:1" />
    </linearGradient>
    <!-- Plasma energy field -->
    <radialGradient id="plasmaField8" cx="50%" cy="50%">
      <stop offset="0%" style="stop-color:#F0F9FF;stop-opacity:1" />
      <stop offset="20%" style="stop-color:#7DD3FC;stop-opacity:0.9" />
      <stop offset="40%" style="stop-color:#0EA5E9;stop-opacity:0.7" />
      <stop offset="60%" style="stop-color:#0284C7;stop-opacity:0.5" />
      <stop offset="80%" style="stop-color:#0369A1;stop-opacity:0.2" />
      <stop offset="100%" style="stop-color:#0C4A6E;stop-opacity:0" />
    </radialGradient>
    <!-- Orange particle gradient (10% integration) -->
    <radialGradient id="orangeParticle2" cx="50%" cy="50%">
      <stop offset="0%" style="stop-color:#FF3E00;stop-opacity:1" />
      <stop offset="50%" style="stop-color:#F97316;stop-opacity:0.8" />
      <stop offset="100%" style="stop-color:#CE422B;stop-opacity:0.5" />
    </radialGradient>
    <!-- Energy core glow -->
    <filter id="energyGlow8">
      <feGaussianBlur stdDeviation="3"/>
      <feColorMatrix values="1 0 0 0 0  0 1 0 0 0  0 0 1 0 0  0 0 0 1 0"/>
    </filter>
  </defs>
  
  <!-- High-tech anvil base -->
  <path d="M 20,78 L 30,75 L 70,75 L 80,78 L 76,88 L 24,88 Z" fill="#0F172A" stroke="#0369A1" stroke-width="0.5"/>
  <rect x="32" y="72" width="36" height="6" rx="2" fill="#1E293B" stroke="#0EA5E9" stroke-width="0.3"/>
  <!-- Tech surface pattern -->
  <rect x="34" y="72" width="32" height="2" fill="#0284C7" opacity="0.6"/>
  <rect x="36" y="74" width="4" height="2" fill="#7DD3FC" opacity="0.4"/>
  <rect x="44" y="74" width="4" height="2" fill="#7DD3FC" opacity="0.4"/>
  <rect x="52" y="74" width="4" height="2" fill="#7DD3FC" opacity="0.4"/>
  <rect x="60" y="74" width="4" height="2" fill="#7DD3FC" opacity="0.4"/>

  <!-- Massive plasma field -->
  <ellipse cx="50" cy="75" rx="40" ry="24" fill="url(#plasmaField8)" opacity="0.95"/>

  <!-- Main plasma hammer -->
  <g transform="rotate(-38 50 36)">
    <!-- Titanium handle with tech grip -->
    <rect x="47" y="2" width="6" height="52" rx="3" fill="url(#titaniumHandle8)"/>
    <!-- Tech grip pattern -->
    <rect x="47.2" y="12" width="5.6" height="1" fill="#0EA5E9" opacity="0.7"/>
    <rect x="47.2" y="16" width="5.6" height="1" fill="#0EA5E9" opacity="0.7"/>
    <rect x="47.2" y="20" width="5.6" height="1" fill="#0EA5E9" opacity="0.7"/>
    <rect x="47.2" y="24" width="5.6" height="1" fill="#0EA5E9" opacity="0.7"/>
    <rect x="47.2" y="28" width="5.6" height="1" fill="#0EA5E9" opacity="0.7"/>
    <rect x="47.2" y="32" width="5.6" height="1" fill="#0EA5E9" opacity="0.7"/>
    <rect x="47.2" y="36" width="5.6" height="1" fill="#0EA5E9" opacity="0.7"/>
    <!-- Plasma-forged hammer head -->
    <rect x="36" y="-4" width="28" height="18" rx="4" fill="url(#plasma8)"/>
    <!-- Energy core -->
    <rect x="38" y="1" width="24" height="3" fill="#F0F9FF" opacity="0.9"/>
    <rect x="38" y="8" width="24" height="3" fill="#0C4A6E" opacity="0.8"/>
    <!-- Tech details -->
    <circle cx="42" cy="5" r="1" fill="#7DD3FC" opacity="0.8"/>
    <circle cx="58" cy="5" r="1" fill="#7DD3FC" opacity="0.8"/>
  </g>

  <!-- Plasma explosion core -->
  <circle cx="50" cy="73" r="5" fill="#F0F9FF" filter="url(#energyGlow8)">
    <animate attributeName="r" values="5;3;5" dur="0.4s" repeatCount="indefinite"/>
    <animate attributeName="opacity" values="1;0.7;1" dur="0.4s" repeatCount="indefinite"/>
  </circle>

  <!-- Alternative particle patterns - Spiral formation -->
  <g opacity="0.9">
    <!-- Core particles -->
    <circle cx="43" cy="70" r="3" fill="#7DD3FC"/>
    <circle cx="57" cy="70" r="3" fill="#7DD3FC"/>
    <circle cx="36" cy="72" r="2.5" fill="#0EA5E9" opacity="0.9"/>
    <circle cx="64" cy="72" r="2.5" fill="#0EA5E9" opacity="0.9"/>
    <circle cx="46" cy="66" r="2" fill="#F0F9FF" opacity="0.8"/>
    <circle cx="54" cy="66" r="2" fill="url(#orangeParticle2)" opacity="0.9"/>
    <circle cx="39" cy="76" r="1.5" fill="#0284C7" opacity="0.7"/>
    <circle cx="61" cy="76" r="1.5" fill="#0284C7" opacity="0.7"/>
    
    <!-- Orange particles (10% of total) in spiral pattern -->
    <circle cx="48" cy="79" r="1.4" fill="url(#orangeParticle2)" opacity="0.9">
      <animate attributeName="cy" values="79;75;79" dur="1.2s" repeatCount="indefinite"/>
    </circle>
    <circle cx="52" cy="69" r="1" fill="#FF3E00" opacity="0.8">
      <animate attributeName="r" values="1;1.4;1" dur="0.8s" repeatCount="indefinite"/>
    </circle>
    <circle cx="41" cy="68" r="0.8" fill="#F97316" opacity="0.7">
      <animate attributeName="cy" values="68;64;68" dur="1s" repeatCount="indefinite"/>
    </circle>
  </g>
  
  <!-- Spiral particle pattern -->
  <g opacity="0.7">
    <circle cx="50" cy="75" r="1" fill="#7DD3FC">
      <animateTransform attributeName="transform" type="rotate" values="0 50 75;360 50 75" dur="4s" repeatCount="indefinite"/>
      <animateMotion dur="4s" repeatCount="indefinite">
        <mpath d="M 50,75 m -10,0 a 10,10 0 1,1 20,0 a 10,10 0 1,1 -20,0"/>
      </animateMotion>
    </circle>
    <circle cx="50" cy="75" r="0.8" fill="#0EA5E9">
      <animateTransform attributeName="transform" type="rotate" values="90 50 75;450 50 75" dur="4.5s" repeatCount="indefinite"/>
      <animateMotion dur="4.5s" repeatCount="indefinite">
        <mpath d="M 50,75 m -13,0 a 13,13 0 1,1 26,0 a 13,13 0 1,1 -26,0"/>
      </animateMotion>
    </circle>
    <circle cx="50" cy="75" r="0.6" fill="#F0F9FF">
      <animateTransform attributeName="transform" type="rotate" values="180 50 75;540 50 75" dur="5s" repeatCount="indefinite"/>
      <animateMotion dur="5s" repeatCount="indefinite">
        <mpath d="M 50,75 m -16,0 a 16,16 0 1,1 32,0 a 16,16 0 1,1 -32,0"/>
      </animateMotion>
    </circle>
    <!-- Orange particle in spiral -->
    <circle cx="50" cy="75" r="0.7" fill="#FF3E00">
      <animateTransform attributeName="transform" type="rotate" values="270 50 75;630 50 75" dur="5.5s" repeatCount="indefinite"/>
      <animateMotion dur="5.5s" repeatCount="indefinite">
        <mpath d="M 50,75 m -19,0 a 19,19 0 1,1 38,0 a 19,19 0 1,1 -38,0"/>
      </animateMotion>
    </circle>
  </g>
  
  <!-- Hexagonal particle formation -->
  <g opacity="0.6">
    <circle cx="42" cy="67.5" r="0.5" fill="#7DD3FC">
      <animate attributeName="opacity" values="0.6;1;0.6" dur="2s" repeatCount="indefinite"/>
    </circle>
    <circle cx="50" cy="63" r="0.5" fill="#0EA5E9">
      <animate attributeName="opacity" values="0.6;1;0.6" dur="2.2s" repeatCount="indefinite"/>
    </circle>
    <circle cx="58" cy="67.5" r="0.5" fill="#F0F9FF">
      <animate attributeName="opacity" values="0.6;1;0.6" dur="2.4s" repeatCount="indefinite"/>
    </circle>
    <circle cx="58" cy="78.5" r="0.5" fill="#0284C7">
      <animate attributeName="opacity" values="0.6;1;0.6" dur="2.6s" repeatCount="indefinite"/>
    </circle>
    <circle cx="50" cy="83" r="0.5" fill="#7DD3FC">
      <animate attributeName="opacity" values="0.6;1;0.6" dur="2.8s" repeatCount="indefinite"/>
    </circle>
    <circle cx="42" cy="78.5" r="0.5" fill="#0EA5E9">
      <animate attributeName="opacity" values="0.6;1;0.6" dur="3s" repeatCount="indefinite"/>
    </circle>
  </g>

  <!-- Wave particle pattern -->
  <g opacity="0.5">
    <circle cx="30" cy="70" r="0.4" fill="#F0F9FF">
      <animate attributeName="cy" values="70;73;70;67;70" dur="3s" repeatCount="indefinite"/>
    </circle>
    <circle cx="35" cy="75" r="0.4" fill="#7DD3FC">
      <animate attributeName="cy" values="75;78;75;72;75" dur="3.2s" repeatCount="indefinite"/>
    </circle>
    <circle cx="40" cy="80" r="0.4" fill="#0EA5E9">
      <animate attributeName="cy" values="80;83;80;77;80" dur="3.4s" repeatCount="indefinite"/>
    </circle>
    <circle cx="60" cy="80" r="0.4" fill="#0EA5E9">
      <animate attributeName="cy" values="80;77;80;83;80" dur="3.4s" repeatCount="indefinite"/>
    </circle>
    <circle cx="65" cy="75" r="0.4" fill="#7DD3FC">
      <animate attributeName="cy" values="75;72;75;78;75" dur="3.2s" repeatCount="indefinite"/>
    </circle>
    <circle cx="70" cy="70" r="0.4" fill="#F0F9FF">
      <animate attributeName="cy" values="70;67;70;73;70" dur="3s" repeatCount="indefinite"/>
    </circle>
  </g>

  <!-- Plasma wave rings -->
  <g opacity="0.4">
    <circle cx="50" cy="75" r="18" fill="none" stroke="#0EA5E9" stroke-width="1.5">
      <animate attributeName="r" values="18;25;18" dur="1.5s" repeatCount="indefinite"/>
      <animate attributeName="opacity" values="0.4;0.1;0.4" dur="1.5s" repeatCount="indefinite"/>
    </circle>
    <circle cx="50" cy="75" r="26" fill="none" stroke="#0284C7" stroke-width="1.2">
      <animate attributeName="r" values="26;33;26" dur="1.8s" repeatCount="indefinite"/>
      <animate attributeName="opacity" values="0.4;0.1;0.4" dur="1.8s" repeatCount="indefinite"/>
    </circle>
    <circle cx="50" cy="75" r="34" fill="none" stroke="#0369A1" stroke-width="0.8">
      <animate attributeName="r" values="34;41;34" dur="2.1s" repeatCount="indefinite"/>
      <animate attributeName="opacity" values="0.4;0.1;0.4" dur="2.1s" repeatCount="indefinite"/>
    </circle>
  </g>

  <!-- Energy matrix particles -->
  <g opacity="0.6">
    <rect x="28" y="76" width="2" height="2" fill="#7DD3FC" opacity="0.8">
      <animateTransform attributeName="transform" type="rotate" values="0 29 77;360 29 77" dur="3s" repeatCount="indefinite"/>
    </rect>
    <rect x="70" y="76" width="2" height="2" fill="#7DD3FC" opacity="0.8">
      <animateTransform attributeName="transform" type="rotate" values="0 71 77;360 71 77" dur="3s" repeatCount="indefinite"/>
    </rect>
    <rect x="44" y="58" width="1.5" height="1.5" fill="#0EA5E9" opacity="0.7">
      <animateTransform attributeName="transform" type="rotate" values="0 44.75 58.75;360 44.75 58.75" dur="2.5s" repeatCount="indefinite"/>
    </rect>
    <rect x="54" y="58" width="1.5" height="1.5" fill="#0EA5E9" opacity="0.7">
      <animateTransform attributeName="transform" type="rotate" values="0 54.75 58.75;360 54.75 58.75" dur="2.5s" repeatCount="indefinite"/>
    </rect>
  </g>
</svg>