<svg viewBox="0 0 100 100" xmlns="http://www.w3.org/2000/svg">
  <defs>
    <!-- Subtle shimmer effect -->
    <filter id="subtleShimmer">
      <feGaussianBlur stdDeviation="1"/>
      <feColorMatrix values="1 0 0 0 0  0 1 0 0 0  0 0 1 0 0  0 0 0 1 0"/>
    </filter>
    <!-- Plasma-forged steel gradient -->
    <linearGradient id="plasma8" x1="0%" y1="0%" x2="100%" y2="100%">
      <stop offset="0%" style="stop-color:#F0F9FF;stop-opacity:1" />
      <stop offset="20%" style="stop-color:#7DD3FC;stop-opacity:1" />
      <stop offset="40%" style="stop-color:#0EA5E9;stop-opacity:1" />
      <stop offset="60%" style="stop-color:#0284C7;stop-opacity:1" />
      <stop offset="80%" style="stop-color:#0369A1;stop-opacity:1" />
      <stop offset="100%" style="stop-color:#0C4A6E;stop-opacity:1" />
    </linearGradient>
    <!-- Titanium handle -->
    <linearGradient id="titaniumHandle8" x1="0%" y1="0%" x2="100%" y2="100%">
      <stop offset="0%" style="stop-color:#E2E8F0;stop-opacity:1" />
      <stop offset="50%" style="stop-color:#64748B;stop-opacity:1" />
      <stop offset="100%" style="stop-color:#1E293B;stop-opacity:1" />
    </linearGradient>
    <!-- PERFECT plasma energy field with 5% orange core - PRESERVED EXACTLY -->
    <radialGradient id="plasmaField9_01" cx="50%" cy="50%">
      <stop offset="0%" style="stop-color:#FFFBF7;stop-opacity:1" />
      <stop offset="3%" style="stop-color:#FFF7ED;stop-opacity:1" />
      <stop offset="5%" style="stop-color:#FB923C;stop-opacity:0.98" />
      <stop offset="7%" style="stop-color:#F97316;stop-opacity:0.95" />
      <stop offset="10%" style="stop-color:#F0F9FF;stop-opacity:0.92" />
      <stop offset="15%" style="stop-color:#E0F2FE;stop-opacity:0.9" />
      <stop offset="20%" style="stop-color:#BAE6FD;stop-opacity:0.88" />
      <stop offset="25%" style="stop-color:#7DD3FC;stop-opacity:0.85" />
      <stop offset="35%" style="stop-color:#38BDF8;stop-opacity:0.8" />
      <stop offset="45%" style="stop-color:#0EA5E9;stop-opacity:0.7" />
      <stop offset="60%" style="stop-color:#0284C7;stop-opacity:0.5" />
      <stop offset="75%" style="stop-color:#0369A1;stop-opacity:0.3" />
      <stop offset="90%" style="stop-color:#075985;stop-opacity:0.1" />
      <stop offset="100%" style="stop-color:#0C4A6E;stop-opacity:0" />
    </radialGradient>
    <!-- Enhanced secondary field layer -->
    <radialGradient id="plasmaFieldSecondary01" cx="50%" cy="50%">
      <stop offset="0%" style="stop-color:#FED7AA;stop-opacity:0.7" />
      <stop offset="5%" style="stop-color:#FDBA74;stop-opacity:0.65" />
      <stop offset="10%" style="stop-color:#DBEAFE;stop-opacity:0.6" />
      <stop offset="20%" style="stop-color:#BAE6FD;stop-opacity:0.55" />
      <stop offset="35%" style="stop-color:#0EA5E9;stop-opacity:0.4" />
      <stop offset="50%" style="stop-color:#0284C7;stop-opacity:0.3" />
      <stop offset="70%" style="stop-color:#0369A1;stop-opacity:0.2" />
      <stop offset="100%" style="stop-color:#0C4A6E;stop-opacity:0" />
    </radialGradient>
    <!-- Technical grid pattern - CLEAN BACKGROUND -->
    <pattern id="techGrid" x="0" y="0" width="12" height="12" patternUnits="userSpaceOnUse">
      <rect width="12" height="12" fill="none"/>
      <path d="M 12 0 L 0 0 0 12" stroke="#0369A1" stroke-width="0.2" opacity="0.15"/>
    </pattern>
    <!-- Energy core glow -->
    <filter id="energyGlow8">
      <feGaussianBlur stdDeviation="3"/>
      <feColorMatrix values="1 0 0 0 0  0 1 0 0 0  0 0 1 0 0  0 0 0 1 0"/>
    </filter>
  </defs>
  
  <!-- CLEAN technical grid background - NO LIGHTNING -->
  <rect x="0" y="0" width="100" height="100" fill="url(#techGrid)"/>
  
  <!-- Subtle corner tech indicators -->
  <rect x="2" y="2" width="8" height="1" fill="#0EA5E9" opacity="0.3"/>
  <rect x="2" y="2" width="1" height="8" fill="#0EA5E9" opacity="0.3"/>
  <rect x="90" y="2" width="8" height="1" fill="#0EA5E9" opacity="0.3"/>
  <rect x="97" y="2" width="1" height="8" fill="#0EA5E9" opacity="0.3"/>
  
  <!-- High-tech anvil base -->
  <path d="M 20,78 L 30,75 L 70,75 L 80,78 L 76,88 L 24,88 Z" fill="#0F172A" stroke="#0369A1" stroke-width="0.5"/>
  <rect x="32" y="72" width="36" height="6" rx="2" fill="#1E293B" stroke="#0EA5E9" stroke-width="0.3"/>
  <!-- Tech surface pattern -->
  <rect x="34" y="72" width="32" height="2" fill="#0284C7" opacity="0.6"/>
  <rect x="36" y="74" width="4" height="2" fill="#7DD3FC" opacity="0.4"/>
  <rect x="44" y="74" width="4" height="2" fill="#7DD3FC" opacity="0.4"/>
  <rect x="52" y="74" width="4" height="2" fill="#7DD3FC" opacity="0.4"/>
  <rect x="60" y="74" width="4" height="2" fill="#7DD3FC" opacity="0.4"/>

  <!-- THE PERFECT plasma field - EXACT ORANGE RATIO PRESERVED -->
  <ellipse cx="50" cy="75" rx="42" ry="26" fill="url(#plasmaFieldSecondary01)" opacity="0.8"/>
  <ellipse cx="50" cy="75" rx="40" ry="24" fill="url(#plasmaField9_01)" opacity="0.98"/>

  <!-- Main plasma hammer -->
  <g transform="rotate(-38 50 36)">
    <!-- Titanium handle with tech grip -->
    <rect x="47" y="2" width="6" height="52" rx="3" fill="url(#titaniumHandle8)"/>
    <!-- Tech grip pattern -->
    <rect x="47.2" y="12" width="5.6" height="1" fill="#0EA5E9" opacity="0.7"/>
    <rect x="47.2" y="16" width="5.6" height="1" fill="#0EA5E9" opacity="0.7"/>
    <rect x="47.2" y="20" width="5.6" height="1" fill="#0EA5E9" opacity="0.7"/>
    <rect x="47.2" y="24" width="5.6" height="1" fill="#0EA5E9" opacity="0.7"/>
    <rect x="47.2" y="28" width="5.6" height="1" fill="#0EA5E9" opacity="0.7"/>
    <rect x="47.2" y="32" width="5.6" height="1" fill="#0EA5E9" opacity="0.7"/>
    <rect x="47.2" y="36" width="5.6" height="1" fill="#0EA5E9" opacity="0.7"/>
    <!-- Plasma-forged hammer head -->
    <rect x="36" y="-4" width="28" height="18" rx="4" fill="url(#plasma8)"/>
    <!-- Energy core -->
    <rect x="38" y="1" width="24" height="3" fill="#F0F9FF" opacity="0.9"/>
    <rect x="38" y="8" width="24" height="3" fill="#0C4A6E" opacity="0.8"/>
    <!-- Tech details -->
    <circle cx="42" cy="5" r="1" fill="#7DD3FC" opacity="0.8"/>
    <circle cx="58" cy="5" r="1" fill="#7DD3FC" opacity="0.8"/>
  </g>

  <!-- Plasma explosion core -->
  <circle cx="50" cy="73" r="5" fill="#F0F9FF" filter="url(#energyGlow8)">
    <animate attributeName="r" values="5;3;5" dur="0.4s" repeatCount="indefinite"/>
    <animate attributeName="opacity" values="1;0.7;1" dur="0.4s" repeatCount="indefinite"/>
  </circle>

  <!-- High-energy particle burst -->
  <g opacity="0.9">
    <circle cx="43" cy="70" r="3" fill="#7DD3FC"/>
    <circle cx="57" cy="70" r="3" fill="#7DD3FC"/>
    <circle cx="36" cy="72" r="2.5" fill="#0EA5E9" opacity="0.9"/>
    <circle cx="64" cy="72" r="2.5" fill="#0EA5E9" opacity="0.9"/>
    <circle cx="46" cy="66" r="2" fill="#F0F9FF" opacity="0.8"/>
    <circle cx="54" cy="66" r="2" fill="#F0F9FF" opacity="0.8"/>
    <circle cx="39" cy="76" r="1.5" fill="#0284C7" opacity="0.7"/>
    <circle cx="61" cy="76" r="1.5" fill="#0284C7" opacity="0.7"/>
  </g>

  <!-- Subtle glow rings - NOT DISTRACTING -->
  <g opacity="0.25" filter="url(#subtleShimmer)">
    <circle cx="50" cy="75" r="22" fill="none" stroke="#0EA5E9" stroke-width="1.2">
      <animate attributeName="stroke-opacity" values="0.25;0.4;0.25" dur="6s" repeatCount="indefinite"/>
    </circle>
    <circle cx="50" cy="75" r="30" fill="none" stroke="#0284C7" stroke-width="1">
      <animate attributeName="stroke-opacity" values="0.25;0.35;0.25" dur="7s" repeatCount="indefinite"/>
    </circle>
    <circle cx="50" cy="75" r="38" fill="none" stroke="#0369A1" stroke-width="0.8">
      <animate attributeName="stroke-opacity" values="0.25;0.3;0.25" dur="8s" repeatCount="indefinite"/>
    </circle>
  </g>

  <!-- Clean energy discharge - NO QUANTUM DISTORTION -->
  <g opacity="0.6">
    <path d="M 50,73 L 30,68 L 35,70 L 25,65 L 30,67" stroke="#F0F9FF" stroke-width="1.5" fill="none"/>
    <path d="M 50,73 L 70,68 L 65,70 L 75,65 L 70,67" stroke="#F0F9FF" stroke-width="1.5" fill="none"/>
    <path d="M 50,73 L 42,58 L 45,62 L 38,55 L 42,59" stroke="#7DD3FC" stroke-width="1" fill="none"/>
    <path d="M 50,73 L 58,58 L 55,62 L 62,55 L 58,59" stroke="#7DD3FC" stroke-width="1" fill="none"/>
  </g>

  <!-- Minimal energy matrix particles -->
  <g opacity="0.5">
    <rect x="28" y="76" width="1.5" height="1.5" fill="#7DD3FC" opacity="0.7">
      <animateTransform attributeName="transform" type="rotate" values="0 28.75 76.75;360 28.75 76.75" dur="4s" repeatCount="indefinite"/>
    </rect>
    <rect x="70" y="76" width="1.5" height="1.5" fill="#7DD3FC" opacity="0.7">
      <animateTransform attributeName="transform" type="rotate" values="0 70.75 76.75;360 70.75 76.75" dur="4s" repeatCount="indefinite"/>
    </rect>
    <rect x="44" y="58" width="1" height="1" fill="#0EA5E9" opacity="0.6">
      <animateTransform attributeName="transform" type="rotate" values="0 44.5 58.5;360 44.5 58.5" dur="3s" repeatCount="indefinite"/>
    </rect>
    <rect x="54" y="58" width="1" height="1" fill="#0EA5E9" opacity="0.6">
      <animateTransform attributeName="transform" type="rotate" values="0 54.5 58.5;360 54.5 58.5" dur="3s" repeatCount="indefinite"/>
    </rect>
  </g>
</svg>