<svg viewBox="0 0 100 100" xmlns="http://www.w3.org/2000/svg">
  <defs>
    <!-- Plasma-forged steel gradient -->
    <linearGradient id="plasma10" x1="0%" y1="0%" x2="100%" y2="100%">
      <stop offset="0%" style="stop-color:#F0F9FF;stop-opacity:1" />
      <stop offset="20%" style="stop-color:#7DD3FC;stop-opacity:1" />
      <stop offset="40%" style="stop-color:#0EA5E9;stop-opacity:1" />
      <stop offset="60%" style="stop-color:#0284C7;stop-opacity:1" />
      <stop offset="80%" style="stop-color:#0369A1;stop-opacity:1" />
      <stop offset="100%" style="stop-color:#0C4A6E;stop-opacity:1" />
    </linearGradient>
    <!-- Titanium handle -->
    <linearGradient id="titaniumHandle10" x1="0%" y1="0%" x2="100%" y2="100%">
      <stop offset="0%" style="stop-color:#E2E8F0;stop-opacity:1" />
      <stop offset="50%" style="stop-color:#64748B;stop-opacity:1" />
      <stop offset="100%" style="stop-color:#1E293B;stop-opacity:1" />
    </linearGradient>
    <!-- Plasma energy field -->
    <radialGradient id="plasmaField10" cx="50%" cy="50%">
      <stop offset="0%" style="stop-color:#F0F9FF;stop-opacity:1" />
      <stop offset="20%" style="stop-color:#7DD3FC;stop-opacity:0.9" />
      <stop offset="40%" style="stop-color:#0EA5E9;stop-opacity:0.7" />
      <stop offset="60%" style="stop-color:#0284C7;stop-opacity:0.5" />
      <stop offset="80%" style="stop-color:#0369A1;stop-opacity:0.2" />
      <stop offset="100%" style="stop-color:#0C4A6E;stop-opacity:0" />
    </radialGradient>
    <!-- Hyper velocity blur -->
    <filter id="hyperVelocity10">
      <feGaussianBlur in="SourceGraphic" stdDeviation="4,1.2"/>
    </filter>
    <!-- Energy core glow -->
    <filter id="energyGlow10">
      <feGaussianBlur stdDeviation="3"/>
      <feColorMatrix values="1 0 0 0 0  0 1 0 0 0  0 0 1 0 0  0 0 0 1 0"/>
    </filter>
    <!-- Cascade lightning glow -->
    <filter id="cascadeGlow10">
      <feGaussianBlur stdDeviation="2.5"/>
      <feColorMatrix values="1 0 0 0 0  0 1 0 0 0  0 0 1 0 0  0 0 0 1 0"/>
    </filter>
  </defs>
  
  <!-- Distributed particle field background -->
  <g opacity="0.3">
    <circle cx="15" cy="20" r="1" fill="#0EA5E9"/>
    <circle cx="85" cy="25" r="0.8" fill="#0284C7"/>
    <circle cx="25" cy="15" r="1.2" fill="#0369A1"/>
    <circle cx="75" cy="35" r="0.6" fill="#7DD3FC"/>
    <circle cx="10" cy="40" r="0.8" fill="#0C4A6E"/>
    <circle cx="90" cy="45" r="1" fill="#0EA5E9"/>
    <circle cx="20" cy="50" r="0.7" fill="#0284C7"/>
    <circle cx="80" cy="55" r="0.9" fill="#0369A1"/>
    <circle cx="12" cy="65" r="0.5" fill="#7DD3FC"/>
    <circle cx="88" cy="15" r="0.8" fill="#0C4A6E"/>
    <circle cx="30" cy="35" r="0.6" fill="#0EA5E9"/>
    <circle cx="70" cy="20" r="0.7" fill="#0284C7"/>
    <circle cx="35" cy="10" r="0.9" fill="#0369A1"/>
    <circle cx="65" cy="45" r="0.5" fill="#7DD3FC"/>
    <circle cx="18" cy="30" r="0.8" fill="#0C4A6E"/>
    <circle cx="82" cy="60" r="0.6" fill="#0EA5E9"/>
  </g>
  
  <!-- High-tech anvil base -->
  <path d="M 20,78 L 30,75 L 70,75 L 80,78 L 76,88 L 24,88 Z" fill="#0F172A" stroke="#0369A1" stroke-width="0.5"/>
  <rect x="32" y="72" width="36" height="6" rx="2" fill="#1E293B" stroke="#0EA5E9" stroke-width="0.3"/>
  <!-- Tech surface pattern -->
  <rect x="34" y="72" width="32" height="2" fill="#0284C7" opacity="0.6"/>
  <rect x="36" y="74" width="4" height="2" fill="#7DD3FC" opacity="0.4"/>
  <rect x="44" y="74" width="4" height="2" fill="#7DD3FC" opacity="0.4"/>
  <rect x="52" y="74" width="4" height="2" fill="#7DD3FC" opacity="0.4"/>
  <rect x="60" y="74" width="4" height="2" fill="#7DD3FC" opacity="0.4"/>
  
  <!-- Massive plasma field -->
  <ellipse cx="50" cy="75" rx="40" ry="24" fill="url(#plasmaField10)" opacity="0.95"/>
  
  <!-- Hyper-velocity motion blur -->
  <g opacity="0.5" filter="url(#hyperVelocity10)">
    <rect x="46" y="2" width="8" height="56" fill="#0EA5E9" transform="rotate(-38 50 30)"/>
    <rect x="44" y="-2" width="8" height="56" fill="#0284C7" transform="rotate(-34 48 26)"/>
    <rect x="42" y="-6" width="8" height="56" fill="#0369A1" transform="rotate(-30 46 22)"/>
  </g>
  
  <!-- Main plasma hammer -->
  <g transform="rotate(-38 50 36)">
    <!-- Titanium handle with tech grip -->
    <rect x="47" y="2" width="6" height="52" rx="3" fill="url(#titaniumHandle10)"/>
    <!-- Tech grip pattern -->
    <rect x="47.2" y="12" width="5.6" height="1" fill="#0EA5E9" opacity="0.7"/>
    <rect x="47.2" y="16" width="5.6" height="1" fill="#0EA5E9" opacity="0.7"/>
    <rect x="47.2" y="20" width="5.6" height="1" fill="#0EA5E9" opacity="0.7"/>
    <rect x="47.2" y="24" width="5.6" height="1" fill="#0EA5E9" opacity="0.7"/>
    <rect x="47.2" y="28" width="5.6" height="1" fill="#0EA5E9" opacity="0.7"/>
    <rect x="47.2" y="32" width="5.6" height="1" fill="#0EA5E9" opacity="0.7"/>
    <rect x="47.2" y="36" width="5.6" height="1" fill="#0EA5E9" opacity="0.7"/>
    <!-- Plasma-forged hammer head -->
    <rect x="36" y="-4" width="28" height="18" rx="4" fill="url(#plasma10)"/>
    <!-- Energy core -->
    <rect x="38" y="1" width="24" height="3" fill="#F0F9FF" opacity="0.9"/>
    <rect x="38" y="8" width="24" height="3" fill="#0C4A6E" opacity="0.8"/>
    <!-- Tech details -->
    <circle cx="42" cy="5" r="1" fill="#7DD3FC" opacity="0.8"/>
    <circle cx="58" cy="5" r="1" fill="#7DD3FC" opacity="0.8"/>
  </g>
  
  <!-- Plasma explosion core -->
  <circle cx="50" cy="73" r="5" fill="#F0F9FF" filter="url(#energyGlow10)">
    <animate attributeName="r" values="5;3;5" dur="0.4s" repeatCount="indefinite"/>
    <animate attributeName="opacity" values="1;0.7;1" dur="0.4s" repeatCount="indefinite"/>
  </circle>
  
  <!-- Cascading lightning effect -->
  <g opacity="0.8" filter="url(#cascadeGlow10)">
    <!-- First cascade level -->
    <path d="M 50,75 L 45,80 L 47,78 L 40,83 L 42,81" stroke="#F0F9FF" stroke-width="2.5" fill="none"/>
    <path d="M 50,75 L 55,80 L 53,78 L 60,83 L 58,81" stroke="#F0F9FF" stroke-width="2.5" fill="none"/>
    
    <!-- Second cascade level -->
    <path d="M 40,83 L 35,88 L 37,86 L 30,91 L 32,89" stroke="#7DD3FC" stroke-width="2" fill="none"/>
    <path d="M 60,83 L 65,88 L 63,86 L 70,91 L 68,89" stroke="#7DD3FC" stroke-width="2" fill="none"/>
    <path d="M 45,80 L 48,86 L 46,84 L 50,90 L 48,88" stroke="#7DD3FC" stroke-width="2" fill="none"/>
    <path d="M 55,80 L 52,86 L 54,84 L 50,90 L 52,88" stroke="#7DD3FC" stroke-width="2" fill="none"/>
    
    <!-- Third cascade level -->
    <path d="M 30,91 L 25,96 L 27,94 L 20,99 L 22,97" stroke="#0EA5E9" stroke-width="1.5" fill="none"/>
    <path d="M 70,91 L 75,96 L 73,94 L 80,99 L 78,97" stroke="#0EA5E9" stroke-width="1.5" fill="none"/>
    <path d="M 35,88 L 32,94 L 34,92 L 28,97 L 30,95" stroke="#0EA5E9" stroke-width="1.5" fill="none"/>
    <path d="M 65,88 L 68,94 L 66,92 L 72,97 L 70,95" stroke="#0EA5E9" stroke-width="1.5" fill="none"/>
    <path d="M 50,90 L 46,95 L 48,93 L 42,98 L 44,96" stroke="#0EA5E9" stroke-width="1.5" fill="none"/>
    <path d="M 50,90 L 54,95 L 52,93 L 58,98 L 56,96" stroke="#0EA5E9" stroke-width="1.5" fill="none"/>
    
    <!-- Fourth cascade level -->
    <path d="M 20,99 L 15,104 L 17,102 L 10,107 L 12,105" stroke="#0284C7" stroke-width="1" fill="none"/>
    <path d="M 80,99 L 85,104 L 83,102 L 90,107 L 88,105" stroke="#0284C7" stroke-width="1" fill="none"/>
    <path d="M 28,97 L 23,102 L 25,100 L 18,105 L 20,103" stroke="#0284C7" stroke-width="1" fill="none"/>
    <path d="M 72,97 L 77,102 L 75,100 L 82,105 L 80,103" stroke="#0284C7" stroke-width="1" fill="none"/>
    <path d="M 42,98 L 38,103 L 40,101 L 34,106 L 36,104" stroke="#0284C7" stroke-width="1" fill="none"/>
    <path d="M 58,98 L 62,103 L 60,101 L 66,106 L 64,104" stroke="#0284C7" stroke-width="1" fill="none"/>
  </g>
  
  <!-- Cascading lightning energy sparks -->
  <g opacity="0.7">
    <!-- First level sparks -->
    <circle cx="45" cy="80" r="1" fill="#F0F9FF"/>
    <circle cx="55" cy="80" r="1" fill="#F0F9FF"/>
    
    <!-- Second level sparks -->
    <circle cx="35" cy="88" r="0.8" fill="#7DD3FC"/>
    <circle cx="65" cy="88" r="0.8" fill="#7DD3FC"/>
    <circle cx="50" cy="90" r="0.8" fill="#7DD3FC"/>
    
    <!-- Third level sparks -->
    <circle cx="25" cy="96" r="0.6" fill="#0EA5E9"/>
    <circle cx="75" cy="96" r="0.6" fill="#0EA5E9"/>
    <circle cx="28" cy="97" r="0.6" fill="#0EA5E9"/>
    <circle cx="72" cy="97" r="0.6" fill="#0EA5E9"/>
    <circle cx="42" cy="98" r="0.6" fill="#0EA5E9"/>
    <circle cx="58" cy="98" r="0.6" fill="#0EA5E9"/>
    
    <!-- Fourth level sparks -->
    <circle cx="15" cy="104" r="0.4" fill="#0284C7"/>
    <circle cx="85" cy="104" r="0.4" fill="#0284C7"/>
    <circle cx="20" cy="103" r="0.4" fill="#0284C7"/>
    <circle cx="80" cy="103" r="0.4" fill="#0284C7"/>
    <circle cx="36" cy="104" r="0.4" fill="#0284C7"/>
    <circle cx="64" cy="104" r="0.4" fill="#0284C7"/>
  </g>
  
  <!-- Energy matrix particles -->
  <g opacity="0.6">
    <rect x="28" y="76" width="2" height="2" fill="#7DD3FC" opacity="0.8">
      <animateTransform attributeName="transform" type="rotate" values="0 29 77;360 29 77" dur="3s" repeatCount="indefinite"/>
    </rect>
    <rect x="70" y="76" width="2" height="2" fill="#7DD3FC" opacity="0.8">
      <animateTransform attributeName="transform" type="rotate" values="0 71 77;360 71 77" dur="3s" repeatCount="indefinite"/>
    </rect>
    <rect x="44" y="58" width="1.5" height="1.5" fill="#0EA5E9" opacity="0.7">
      <animateTransform attributeName="transform" type="rotate" values="0 44.75 58.75;360 44.75 58.75" dur="2.5s" repeatCount="indefinite"/>
    </rect>
    <rect x="54" y="58" width="1.5" height="1.5" fill="#0EA5E9" opacity="0.7">
      <animateTransform attributeName="transform" type="rotate" values="0 54.75 58.75;360 54.75 58.75" dur="2.5s" repeatCount="indefinite"/>
    </rect>
  </g>
</svg>