<svg viewBox="0 0 100 100" xmlns="http://www.w3.org/2000/svg">
  <defs>
    <!-- Refined cascade plasma gradient -->
    <linearGradient id="plasma11e" x1="0%" y1="0%" x2="100%" y2="100%">
      <stop offset="0%" style="stop-color:#FFFFFF;stop-opacity:1" />
      <stop offset="3%" style="stop-color:#F0F9FF;stop-opacity:1" />
      <stop offset="8%" style="stop-color:#E0F2FE;stop-opacity:1" />
      <stop offset="15%" style="stop-color:#BAE6FD;stop-opacity:1" />
      <stop offset="25%" style="stop-color:#7DD3FC;stop-opacity:1" />
      <stop offset="38%" style="stop-color:#38BDF8;stop-opacity:1" />
      <stop offset="52%" style="stop-color:#0EA5E9;stop-opacity:1" />
      <stop offset="67%" style="stop-color:#0284C7;stop-opacity:1" />
      <stop offset="82%" style="stop-color:#0369A1;stop-opacity:1" />
      <stop offset="95%" style="stop-color:#0C4A6E;stop-opacity:1" />
      <stop offset="100%" style="stop-color:#082F49;stop-opacity:1" />
    </linearGradient>
    
    <!-- Refined titanium with cascade reflection -->
    <linearGradient id="cascadeTitanium11" x1="0%" y1="0%" x2="100%" y2="100%">
      <stop offset="0%" style="stop-color:#FFFFFF;stop-opacity:1" />
      <stop offset="8%" style="stop-color:#F8FAFC;stop-opacity:1" />
      <stop offset="18%" style="stop-color:#F1F5F9;stop-opacity:1" />
      <stop offset="32%" style="stop-color:#E2E8F0;stop-opacity:1" />
      <stop offset="48%" style="stop-color:#CBD5E1;stop-opacity:1" />
      <stop offset="65%" style="stop-color:#94A3B8;stop-opacity:1" />
      <stop offset="82%" style="stop-color:#64748B;stop-opacity:1" />
      <stop offset="100%" style="stop-color:#1E293B;stop-opacity:1" />
    </linearGradient>
    
    <!-- Refined cascade plasma field -->
    <radialGradient id="cascadeField11" cx="50%" cy="50%">
      <stop offset="0%" style="stop-color:#FFFFFF;stop-opacity:1" />
      <stop offset="5%" style="stop-color:#F0F9FF;stop-opacity:1" />
      <stop offset="12%" style="stop-color:#E0F2FE;stop-opacity:0.98" />
      <stop offset="22%" style="stop-color:#BAE6FD;stop-opacity:0.92" />
      <stop offset="35%" style="stop-color:#7DD3FC;stop-opacity:0.82" />
      <stop offset="50%" style="stop-color:#0EA5E9;stop-opacity:0.68" />
      <stop offset="65%" style="stop-color:#0284C7;stop-opacity:0.48" />
      <stop offset="80%" style="stop-color:#0369A1;stop-opacity:0.25" />
      <stop offset="95%" style="stop-color:#0C4A6E;stop-opacity:0.08" />
      <stop offset="100%" style="stop-color:#082F49;stop-opacity:0" />
    </radialGradient>
    
    <!-- Refined glow filters -->
    <filter id="refinedGlow11">
      <feGaussianBlur stdDeviation="5"/>
      <feColorMatrix values="1.9 0 0 0 0  0 1.9 0 0 0  0 0 1.9 0 0  0 0 0 1 0"/>
    </filter>
    
    <filter id="cascadeLightning11">
      <feGaussianBlur stdDeviation="3.2"/>
      <feColorMatrix values="1.7 0 0 0 0  0 1.7 0 0 0  0 0 1.7 0 0  0 0 0 1 0"/>
    </filter>
    
    <filter id="coreRefined11">
      <feGaussianBlur stdDeviation="6.5"/>
      <feColorMatrix values="3 0 0 0 0  0 3 0 0 0  0 0 3 0 0  0 0 0 1 0"/>
    </filter>
    
    <filter id="motionRefined11">
      <feGaussianBlur in="SourceGraphic" stdDeviation="6.5,2.2"/>
    </filter>
  </defs>
  
  <!-- Refined particle constellation with depth -->
  <g opacity="0.6">
    <circle cx="20" cy="28" r="1.5" fill="#0EA5E9">
      <animate attributeName="opacity" values="0.5;1;0.5" dur="2s" repeatCount="indefinite"/>
      <animate attributeName="r" values="1.5;2.2;1.5" dur="2s" repeatCount="indefinite"/>
    </circle>
    <circle cx="80" cy="32" r="1.3" fill="#0284C7">
      <animate attributeName="opacity" values="0.4;0.9;0.4" dur="2.8s" repeatCount="indefinite"/>
    </circle>
    <circle cx="28" cy="22" r="1.6" fill="#0369A1"/>
    <circle cx="72" cy="42" r="1.1" fill="#7DD3FC">
      <animate attributeName="opacity" values="0.6;1;0.6" dur="2.5s" repeatCount="indefinite"/>
    </circle>
    <circle cx="18" cy="55" r="1.4" fill="#0C4A6E"/>
    <circle cx="82" cy="56" r="1.5" fill="#0EA5E9">
      <animate attributeName="r" values="1.5;2;1.5" dur="3.1s" repeatCount="indefinite"/>
    </circle>
    <circle cx="32" cy="65" r="1.2" fill="#0284C7"/>
    <circle cx="68" cy="68" r="1.3" fill="#0369A1">
      <animate attributeName="opacity" values="0.5;1;0.5" dur="3.8s" repeatCount="indefinite"/>
    </circle>
    <circle cx="12" cy="40" r="1" fill="#7DD3FC"/>
    <circle cx="88" cy="43" r="1.1" fill="#BAE6FD"/>
    <circle cx="25" cy="8" r="0.9" fill="#38BDF8"/>
    <circle cx="75" cy="12" r="1" fill="#F0F9FF"/>
  </g>
  
  <!-- Refined anvil with cascade detail -->
  <path d="M 20,78 L 30,75 L 70,75 L 80,78 L 76,88 L 24,88 Z" fill="#0F172A" stroke="#0369A1" stroke-width="0.9"/>
  <rect x="32" y="72" width="36" height="6" rx="2" fill="#1E293B" stroke="#0EA5E9" stroke-width="0.7"/>
  <rect x="34" y="73" width="32" height="3" fill="#0284C7" opacity="1"/>
  <ellipse cx="42" cy="75" rx="1.2" ry="0.8" fill="#7DD3FC" opacity="0.8"/>
  <ellipse cx="50" cy="75" rx="1.5" ry="1" fill="#F0F9FF" opacity="0.9"/>
  <ellipse cx="58" cy="75" rx="1.2" ry="0.8" fill="#7DD3FC" opacity="0.8"/>
  <rect x="35" y="76" width="30" height="0.5" fill="#38BDF8" opacity="0.7"/>
  
  <!-- Refined cascade plasma field -->
  <ellipse cx="50" cy="75" rx="50" ry="34" fill="url(#cascadeField11)" opacity="1"/>
  
  <!-- Refined motion blur with cascade effect -->
  <g opacity="0.75" filter="url(#motionRefined11)">
    <rect x="46" y="-2" width="8" height="64" fill="#0EA5E9" transform="rotate(-38 50 30)"/>
    <rect x="44" y="-6" width="8" height="64" fill="#0284C7" transform="rotate(-34 48 26)"/>
    <rect x="42" y="-10" width="8" height="64" fill="#0369A1" transform="rotate(-30 46 22)"/>
    <rect x="40" y="-14" width="8" height="64" fill="#0C4A6E" transform="rotate(-26 44 18)" opacity="0.9"/>
    <rect x="38" y="-18" width="8" height="64" fill="#082F49" transform="rotate(-22 42 14)" opacity="0.7"/>
    <rect x="36" y="-22" width="8" height="64" fill="#1E293B" transform="rotate(-18 40 10)" opacity="0.5"/>
  </g>
  
  <!-- Refined hammer with cascade finish -->
  <g transform="rotate(-38 50 36)" filter="url(#refinedGlow11)">
    <!-- Refined handle -->
    <rect x="47" y="2" width="6" height="52" rx="3" fill="url(#cascadeTitanium11)"/>
    
    <!-- Refined grip pattern -->
    <rect x="46.6" y="12" width="6.8" height="1.6" fill="#0EA5E9" opacity="1"/>
    <rect x="46.6" y="16" width="6.8" height="1.6" fill="#0EA5E9" opacity="1"/>
    <rect x="46.6" y="20" width="6.8" height="1.6" fill="#0EA5E9" opacity="1"/>
    <rect x="46.6" y="24" width="6.8" height="1.6" fill="#0EA5E9" opacity="1"/>
    <rect x="46.6" y="28" width="6.8" height="1.6" fill="#0EA5E9" opacity="1"/>
    <rect x="46.6" y="32" width="6.8" height="1.6" fill="#0EA5E9" opacity="1"/>
    <rect x="46.6" y="36" width="6.8" height="1.6" fill="#0EA5E9" opacity="1"/>
    
    <!-- Refined hammer head -->
    <rect x="36" y="-4" width="28" height="18" rx="4" fill="url(#plasma11e)"/>
    
    <!-- Refined energy core layers -->
    <rect x="37" y="-3" width="26" height="7" fill="#FFFFFF" opacity="1"/>
    <rect x="37" y="5" width="26" height="7" fill="#0C4A6E" opacity="0.5"/>
    <rect x="38" y="-1" width="24" height="4" fill="#F0F9FF" opacity="1"/>
    <rect x="38" y="7" width="24" height="4" fill="#0369A1" opacity="1"/>
    <rect x="39" y="1" width="22" height="2" fill="#E0F2FE" opacity="0.9"/>
    <rect x="39" y="9" width="22" height="2" fill="#0284C7" opacity="0.8"/>
    
    <!-- Refined tech details -->
    <circle cx="42" cy="5" r="1.8" fill="#FFFFFF" opacity="1"/>
    <circle cx="58" cy="5" r="1.8" fill="#FFFFFF" opacity="1"/>
    <circle cx="42" cy="5" r="1.1" fill="#0EA5E9" opacity="1"/>
    <circle cx="58" cy="5" r="1.1" fill="#0EA5E9" opacity="1"/>
    <circle cx="42" cy="5" r="0.5" fill="#FFFFFF" opacity="0.9"/>
    <circle cx="58" cy="5" r="0.5" fill="#FFFFFF" opacity="0.9"/>
    <rect x="37" y="-4" width="26" height="1.2" fill="#F0F9FF" opacity="1"/>
    <rect x="37" y="13" width="26" height="1.2" fill="#F0F9FF" opacity="1"/>
  </g>
  
  <!-- Refined pulsing core -->
  <circle cx="50" cy="73" r="10" fill="#FFFFFF" filter="url(#coreRefined11)">
    <animate attributeName="r" values="10;8;10" dur="1.2s" repeatCount="indefinite"/>
    <animate attributeName="opacity" values="1;0.95;1" dur="1.2s" repeatCount="indefinite"/>
  </circle>
  
  <!-- Four-level cascade lightning pattern -->
  <g filter="url(#cascadeLightning11)">
    <!-- Level 1 - Primary cascade trunk -->
    <path d="M 50,75 L 50,100 L 52,97 L 48,105 L 50,102" stroke="#FFFFFF" stroke-width="4.5" fill="none"/>
    
    <!-- Level 2 - Major cascade branches -->
    <path d="M 50,80 L 68,98 L 66,95 L 72,101 L 70,98" stroke="#F0F9FF" stroke-width="3.5" fill="none"/>
    <path d="M 50,80 L 32,98 L 34,95 L 28,101 L 30,98" stroke="#F0F9FF" stroke-width="3.5" fill="none"/>
    
    <!-- Level 2 sub-branches -->
    <path d="M 68,98 L 80,112 L 78,109 L 85,115 L 83,112" stroke="#E0F2FE" stroke-width="3" fill="none"/>
    <path d="M 32,98 L 20,112 L 22,109 L 15,115 L 17,112" stroke="#E0F2FE" stroke-width="3" fill="none"/>
    
    <!-- Level 3 - Secondary cascade branches -->
    <path d="M 50,85 L 60,115 L 58,112 L 65,118 L 63,115" stroke="#BAE6FD" stroke-width="2.8" fill="none"/>
    <path d="M 50,85 L 40,115 L 42,112 L 35,118 L 37,115" stroke="#BAE6FD" stroke-width="2.8" fill="none"/>
    <path d="M 68,98 L 75,125 L 73,122 L 80,128 L 78,125" stroke="#7DD3FC" stroke-width="2.5" fill="none"/>
    <path d="M 32,98 L 25,125 L 27,122 L 20,128 L 22,125" stroke="#7DD3FC" stroke-width="2.5" fill="none"/>
    
    <!-- Level 3 sub-branches -->
    <path d="M 60,115 L 72,130 L 70,127" stroke="#38BDF8" stroke-width="2.2" fill="none"/>
    <path d="M 40,115 L 28,130 L 30,127" stroke="#38BDF8" stroke-width="2.2" fill="none"/>
    <path d="M 80,112 L 95,128 L 93,125" stroke="#0EA5E9" stroke-width="2" fill="none"/>
    <path d="M 20,112 L 5,128 L 7,125" stroke="#0EA5E9" stroke-width="2" fill="none"/>
    
    <!-- Level 4 - Tertiary cascade branches -->
    <path d="M 50,90 L 55,140 L 53,137" stroke="#0284C7" stroke-width="1.8" fill="none"/>
    <path d="M 50,90 L 45,140 L 47,137" stroke="#0284C7" stroke-width="1.8" fill="none"/>
    <path d="M 60,115 L 68,145 L 66,142" stroke="#0369A1" stroke-width="1.5" fill="none"/>
    <path d="M 40,115 L 32,145 L 34,142" stroke="#0369A1" stroke-width="1.5" fill="none"/>
    <path d="M 75,125 L 85,150 L 83,147" stroke="#0C4A6E" stroke-width="1.2" fill="none"/>
    <path d="M 25,125 L 15,150 L 17,147" stroke="#0C4A6E" stroke-width="1.2" fill="none"/>
    
    <!-- Upward cascade branches -->
    <path d="M 50,72 L 65,55 L 63,58 L 70,52 L 68,55" stroke="#BAE6FD" stroke-width="2.8" fill="none"/>
    <path d="M 50,72 L 35,55 L 37,58 L 30,52 L 32,55" stroke="#BAE6FD" stroke-width="2.8" fill="none"/>
    <path d="M 50,70 L 75,48 L 73,51 L 80,45 L 78,48" stroke="#7DD3FC" stroke-width="2.2" fill="none"/>
    <path d="M 50,70 L 25,48 L 27,51 L 20,45 L 22,48" stroke="#7DD3FC" stroke-width="2.2" fill="none"/>
  </g>
  
  <!-- Refined cascade energy sparks -->
  <g>
    <!-- Central cascade spark -->
    <circle cx="50" cy="100" r="1.6" fill="#FFFFFF">
      <animate attributeName="opacity" values="1;0.95;1" dur="0.6s" repeatCount="indefinite"/>
      <animate attributeName="r" values="1.6;2.3;1.6" dur="0.6s" repeatCount="indefinite"/>
    </circle>
    
    <!-- Level 2 cascade sparks -->
    <circle cx="68" cy="98" r="1.3" fill="#F0F9FF">
      <animate attributeName="opacity" values="0.9;1;0.9" dur="0.9s" repeatCount="indefinite"/>
    </circle>
    <circle cx="32" cy="98" r="1.3" fill="#F0F9FF">
      <animate attributeName="opacity" values="0.9;1;0.9" dur="1.1s" repeatCount="indefinite"/>
    </circle>
    <circle cx="80" cy="112" r="1.1" fill="#E0F2FE"/>
    <circle cx="20" cy="112" r="1.1" fill="#E0F2FE"/>
    
    <!-- Level 3 cascade sparks -->
    <circle cx="60" cy="115" r="1" fill="#BAE6FD"/>
    <circle cx="40" cy="115" r="1" fill="#BAE6FD"/>
    <circle cx="75" cy="125" r="0.9" fill="#7DD3FC"/>
    <circle cx="25" cy="125" r="0.9" fill="#7DD3FC"/>
    <circle cx="72" cy="130" r="0.8" fill="#38BDF8"/>
    <circle cx="28" cy="130" r="0.8" fill="#38BDF8"/>
    
    <!-- Level 4 cascade sparks -->
    <circle cx="55" cy="140" r="0.7" fill="#0284C7"/>
    <circle cx="45" cy="140" r="0.7" fill="#0284C7"/>
    <circle cx="68" cy="145" r="0.6" fill="#0369A1"/>
    <circle cx="32" cy="145" r="0.6" fill="#0369A1"/>
    
    <!-- Upper cascade sparks -->
    <circle cx="65" cy="55" r="1" fill="#BAE6FD"/>
    <circle cx="35" cy="55" r="1" fill="#BAE6FD"/>
    <circle cx="75" cy="48" r="0.9" fill="#7DD3FC"/>
    <circle cx="25" cy="48" r="0.9" fill="#7DD3FC"/>
  </g>
  
  <!-- Refined rotating energy matrix -->
  <g opacity="0.95">
    <rect x="66" y="96" width="3.5" height="3.5" fill="#FFFFFF" opacity="1">
      <animateTransform attributeName="transform" type="rotate" values="0 67.75 97.75;360 67.75 97.75" dur="1.8s" repeatCount="indefinite"/>
    </rect>
    <rect x="30" y="96" width="3.5" height="3.5" fill="#FFFFFF" opacity="1">
      <animateTransform attributeName="transform" type="rotate" values="0 31.75 97.75;-360 31.75 97.75" dur="1.8s" repeatCount="indefinite"/>
    </rect>
    <rect x="78" y="110" width="3" height="3" fill="#F0F9FF" opacity="1">
      <animateTransform attributeName="transform" type="rotate" values="0 79.5 111.5;360 79.5 111.5" dur="2.5s" repeatCount="indefinite"/>
    </rect>
    <rect x="18" y="110" width="3" height="3" fill="#F0F9FF" opacity="1">
      <animateTransform attributeName="transform" type="rotate" values="0 19.5 111.5;-360 19.5 111.5" dur="2.5s" repeatCount="indefinite"/>
    </rect>
    <rect x="58" y="113" width="2.5" height="2.5" fill="#E0F2FE" opacity="0.95">
      <animateTransform attributeName="transform" type="rotate" values="0 59.25 114.25;360 59.25 114.25" dur="3.2s" repeatCount="indefinite"/>
    </rect>
    <rect x="38" y="113" width="2.5" height="2.5" fill="#E0F2FE" opacity="0.95">
      <animateTransform attributeName="transform" type="rotate" values="0 39.25 114.25;-360 39.25 114.25" dur="3.2s" repeatCount="indefinite"/>
    </rect>
  </g>
</svg>