<svg viewBox="0 0 100 100" xmlns="http://www.w3.org/2000/svg">
  <defs>
    <!-- Professional burst plasma gradient -->
    <linearGradient id="plasma11d" x1="0%" y1="0%" x2="100%" y2="100%">
      <stop offset="0%" style="stop-color:#FFFFFF;stop-opacity:1" />
      <stop offset="5%" style="stop-color:#F0F9FF;stop-opacity:1" />
      <stop offset="12%" style="stop-color:#E0F2FE;stop-opacity:1" />
      <stop offset="22%" style="stop-color:#BAE6FD;stop-opacity:1" />
      <stop offset="35%" style="stop-color:#7DD3FC;stop-opacity:1" />
      <stop offset="50%" style="stop-color:#0EA5E9;stop-opacity:1" />
      <stop offset="65%" style="stop-color:#0284C7;stop-opacity:1" />
      <stop offset="80%" style="stop-color:#0369A1;stop-opacity:1" />
      <stop offset="95%" style="stop-color:#0C4A6E;stop-opacity:1" />
      <stop offset="100%" style="stop-color:#082F49;stop-opacity:1" />
    </linearGradient>
    
    <!-- Professional titanium with burst reflection -->
    <linearGradient id="burstTitanium11" x1="0%" y1="0%" x2="100%" y2="100%">
      <stop offset="0%" style="stop-color:#FFFFFF;stop-opacity:1" />
      <stop offset="10%" style="stop-color:#F8FAFC;stop-opacity:1" />
      <stop offset="25%" style="stop-color:#F1F5F9;stop-opacity:1" />
      <stop offset="40%" style="stop-color:#E2E8F0;stop-opacity:1" />
      <stop offset="60%" style="stop-color:#CBD5E1;stop-opacity:1" />
      <stop offset="80%" style="stop-color:#94A3B8;stop-opacity:1" />
      <stop offset="100%" style="stop-color:#1E293B;stop-opacity:1" />
    </linearGradient>
    
    <!-- Professional burst plasma field -->
    <radialGradient id="burstField11" cx="50%" cy="50%">
      <stop offset="0%" style="stop-color:#FFFFFF;stop-opacity:1" />
      <stop offset="8%" style="stop-color:#F0F9FF;stop-opacity:1" />
      <stop offset="18%" style="stop-color:#E0F2FE;stop-opacity:0.95" />
      <stop offset="30%" style="stop-color:#BAE6FD;stop-opacity:0.85" />
      <stop offset="45%" style="stop-color:#7DD3FC;stop-opacity:0.75" />
      <stop offset="60%" style="stop-color:#0EA5E9;stop-opacity:0.6" />
      <stop offset="75%" style="stop-color:#0284C7;stop-opacity:0.4" />
      <stop offset="90%" style="stop-color:#0369A1;stop-opacity:0.15" />
      <stop offset="100%" style="stop-color:#0C4A6E;stop-opacity:0" />
    </radialGradient>
    
    <!-- Professional glow filters -->
    <filter id="professionalGlow11">
      <feGaussianBlur stdDeviation="4.5"/>
      <feColorMatrix values="1.8 0 0 0 0  0 1.8 0 0 0  0 0 1.8 0 0  0 0 0 1 0"/>
    </filter>
    
    <filter id="burstLightning11">
      <feGaussianBlur stdDeviation="3"/>
      <feColorMatrix values="1.6 0 0 0 0  0 1.6 0 0 0  0 0 1.6 0 0  0 0 0 1 0"/>
    </filter>
    
    <filter id="coreProfessional11">
      <feGaussianBlur stdDeviation="6"/>
      <feColorMatrix values="2.8 0 0 0 0  0 2.8 0 0 0  0 0 2.8 0 0  0 0 0 0.9 0"/>
    </filter>
    
    <filter id="motionProfessional11">
      <feGaussianBlur in="SourceGraphic" stdDeviation="6,2"/>
    </filter>
  </defs>
  
  <!-- Professional particle constellation -->
  <g opacity="0.55">
    <circle cx="18" cy="25" r="1.4" fill="#0EA5E9">
      <animate attributeName="opacity" values="0.4;0.9;0.4" dur="2.2s" repeatCount="indefinite"/>
      <animate attributeName="r" values="1.4;2;1.4" dur="2.2s" repeatCount="indefinite"/>
    </circle>
    <circle cx="82" cy="30" r="1.2" fill="#0284C7">
      <animate attributeName="opacity" values="0.3;0.8;0.3" dur="3s" repeatCount="indefinite"/>
    </circle>
    <circle cx="25" cy="20" r="1.5" fill="#0369A1"/>
    <circle cx="75" cy="40" r="1" fill="#7DD3FC">
      <animate attributeName="opacity" values="0.5;1;0.5" dur="2.7s" repeatCount="indefinite"/>
    </circle>
    <circle cx="15" cy="50" r="1.3" fill="#0C4A6E"/>
    <circle cx="85" cy="52" r="1.4" fill="#0EA5E9">
      <animate attributeName="r" values="1.4;1.8;1.4" dur="3.3s" repeatCount="indefinite"/>
    </circle>
    <circle cx="28" cy="60" r="1.1" fill="#0284C7"/>
    <circle cx="72" cy="62" r="1.2" fill="#0369A1">
      <animate attributeName="opacity" values="0.4;1;0.4" dur="4s" repeatCount="indefinite"/>
    </circle>
    <circle cx="8" cy="35" r="0.9" fill="#7DD3FC"/>
    <circle cx="92" cy="38" r="1" fill="#BAE6FD"/>
  </g>
  
  <!-- Professional anvil with burst detail -->
  <path d="M 20,78 L 30,75 L 70,75 L 80,78 L 76,88 L 24,88 Z" fill="#0F172A" stroke="#0369A1" stroke-width="0.8"/>
  <rect x="32" y="72" width="36" height="6" rx="2" fill="#1E293B" stroke="#0EA5E9" stroke-width="0.6"/>
  <rect x="34" y="73" width="32" height="2.5" fill="#0284C7" opacity="0.9"/>
  <circle cx="40" cy="75" r="1" fill="#7DD3FC" opacity="0.7"/>
  <circle cx="50" cy="75" r="1.2" fill="#F0F9FF" opacity="0.8"/>
  <circle cx="60" cy="75" r="1" fill="#7DD3FC" opacity="0.7"/>
  
  <!-- Professional burst plasma field -->
  <ellipse cx="50" cy="75" rx="48" ry="32" fill="url(#burstField11)" opacity="1"/>
  
  <!-- Professional motion blur with intensity -->
  <g opacity="0.7" filter="url(#motionProfessional11)">
    <rect x="46" y="-1" width="8" height="62" fill="#0EA5E9" transform="rotate(-38 50 30)"/>
    <rect x="44" y="-5" width="8" height="62" fill="#0284C7" transform="rotate(-34 48 26)"/>
    <rect x="42" y="-9" width="8" height="62" fill="#0369A1" transform="rotate(-30 46 22)"/>
    <rect x="40" y="-13" width="8" height="62" fill="#0C4A6E" transform="rotate(-26 44 18)" opacity="0.8"/>
    <rect x="38" y="-17" width="8" height="62" fill="#082F49" transform="rotate(-22 42 14)" opacity="0.6"/>
  </g>
  
  <!-- Professional hammer with burst finish -->
  <g transform="rotate(-38 50 36)" filter="url(#professionalGlow11)">
    <!-- Professional handle -->
    <rect x="47" y="2" width="6" height="52" rx="3" fill="url(#burstTitanium11)"/>
    
    <!-- Professional grip pattern -->
    <rect x="46.8" y="12" width="6.4" height="1.4" fill="#0EA5E9" opacity="1"/>
    <rect x="46.8" y="16" width="6.4" height="1.4" fill="#0EA5E9" opacity="1"/>
    <rect x="46.8" y="20" width="6.4" height="1.4" fill="#0EA5E9" opacity="1"/>
    <rect x="46.8" y="24" width="6.4" height="1.4" fill="#0EA5E9" opacity="1"/>
    <rect x="46.8" y="28" width="6.4" height="1.4" fill="#0EA5E9" opacity="1"/>
    <rect x="46.8" y="32" width="6.4" height="1.4" fill="#0EA5E9" opacity="1"/>
    <rect x="46.8" y="36" width="6.4" height="1.4" fill="#0EA5E9" opacity="1"/>
    
    <!-- Professional hammer head -->
    <rect x="36" y="-4" width="28" height="18" rx="4" fill="url(#plasma11d)"/>
    
    <!-- Professional energy core layers -->
    <rect x="37" y="-2" width="26" height="6" fill="#FFFFFF" opacity="1"/>
    <rect x="37" y="6" width="26" height="6" fill="#0C4A6E" opacity="0.6"/>
    <rect x="38" y="0" width="24" height="3" fill="#F0F9FF" opacity="1"/>
    <rect x="38" y="8" width="24" height="3" fill="#0369A1" opacity="0.9"/>
    
    <!-- Professional tech details -->
    <circle cx="42" cy="5" r="1.6" fill="#FFFFFF" opacity="1"/>
    <circle cx="58" cy="5" r="1.6" fill="#FFFFFF" opacity="1"/>
    <circle cx="42" cy="5" r="0.9" fill="#0EA5E9" opacity="0.9"/>
    <circle cx="58" cy="5" r="0.9" fill="#0EA5E9" opacity="0.9"/>
    <rect x="37" y="-3" width="26" height="1" fill="#F0F9FF" opacity="1"/>
    <rect x="37" y="13" width="26" height="1" fill="#F0F9FF" opacity="1"/>
  </g>
  
  <!-- Professional pulsing core -->
  <circle cx="50" cy="73" r="9" fill="#FFFFFF" filter="url(#coreProfessional11)">
    <animate attributeName="r" values="9;7;9" dur="1.4s" repeatCount="indefinite"/>
    <animate attributeName="opacity" values="1;0.9;1" dur="1.4s" repeatCount="indefinite"/>
  </circle>
  
  <!-- Dense professional burst lightning pattern -->
  <g filter="url(#burstLightning11)">
    <!-- Primary burst trunk -->
    <path d="M 50,75 L 50,98 L 52,95 L 48,103 L 50,100" stroke="#FFFFFF" stroke-width="4" fill="none"/>
    
    <!-- Dense burst pattern - Layer 1 -->
    <path d="M 50,77 L 65,92 L 63,89 L 68,95 L 66,92" stroke="#F0F9FF" stroke-width="3.2" fill="none"/>
    <path d="M 50,77 L 35,92 L 37,89 L 32,95 L 34,92" stroke="#F0F9FF" stroke-width="3.2" fill="none"/>
    <path d="M 50,79 L 72,95 L 70,92 L 76,98 L 74,95" stroke="#E0F2FE" stroke-width="2.8" fill="none"/>
    <path d="M 50,79 L 28,95 L 30,92 L 24,98 L 26,95" stroke="#E0F2FE" stroke-width="2.8" fill="none"/>
    
    <!-- Dense burst pattern - Layer 2 -->
    <path d="M 50,81 L 58,105 L 56,102 L 62,108 L 60,105" stroke="#BAE6FD" stroke-width="2.5" fill="none"/>
    <path d="M 50,81 L 42,105 L 44,102 L 38,108 L 40,105" stroke="#BAE6FD" stroke-width="2.5" fill="none"/>
    <path d="M 50,83 L 77,100 L 75,97 L 82,103 L 80,100" stroke="#7DD3FC" stroke-width="2.2" fill="none"/>
    <path d="M 50,83 L 23,100 L 25,97 L 18,103 L 20,100" stroke="#7DD3FC" stroke-width="2.2" fill="none"/>
    
    <!-- Dense burst pattern - Layer 3 -->
    <path d="M 50,85 L 80,105 L 78,102 L 85,108 L 83,105" stroke="#0EA5E9" stroke-width="2" fill="none"/>
    <path d="M 50,85 L 20,105 L 22,102 L 15,108 L 17,105" stroke="#0EA5E9" stroke-width="2" fill="none"/>
    <path d="M 50,87 L 75,110 L 73,107 L 80,113 L 78,110" stroke="#0284C7" stroke-width="1.8" fill="none"/>
    <path d="M 50,87 L 25,110 L 27,107 L 20,113 L 22,110" stroke="#0284C7" stroke-width="1.8" fill="none"/>
    
    <!-- Upward burst pattern -->
    <path d="M 50,73 L 62,58 L 60,61 L 67,55 L 65,58" stroke="#E0F2FE" stroke-width="2.5" fill="none"/>
    <path d="M 50,73 L 38,58 L 40,61 L 33,55 L 35,58" stroke="#E0F2FE" stroke-width="2.5" fill="none"/>
    <path d="M 50,71 L 70,52 L 68,55 L 75,49 L 73,52" stroke="#7DD3FC" stroke-width="2" fill="none"/>
    <path d="M 50,71 L 30,52 L 32,55 L 25,49 L 27,52" stroke="#7DD3FC" stroke-width="2" fill="none"/>
    
    <!-- Diagonal burst extensions -->
    <path d="M 65,92 L 85,112 L 83,109" stroke="#0369A1" stroke-width="1.5" fill="none"/>
    <path d="M 35,92 L 15,112 L 17,109" stroke="#0369A1" stroke-width="1.5" fill="none"/>
    <path d="M 72,95 L 95,118 L 93,115" stroke="#0C4A6E" stroke-width="1.2" fill="none"/>
    <path d="M 28,95 L 5,118 L 7,115" stroke="#0C4A6E" stroke-width="1.2" fill="none"/>
  </g>
  
  <!-- Professional burst energy sparks -->
  <g>
    <!-- Central burst spark -->
    <circle cx="50" cy="98" r="1.4" fill="#FFFFFF">
      <animate attributeName="opacity" values="1;0.9;1" dur="0.8s" repeatCount="indefinite"/>
      <animate attributeName="r" values="1.4;2;1.4" dur="0.8s" repeatCount="indefinite"/>
    </circle>
    
    <!-- Primary burst endpoint sparks -->
    <circle cx="65" cy="92" r="1.1" fill="#F0F9FF">
      <animate attributeName="opacity" values="0.9;1;0.9" dur="1.1s" repeatCount="indefinite"/>
    </circle>
    <circle cx="35" cy="92" r="1.1" fill="#F0F9FF">
      <animate attributeName="opacity" values="0.9;1;0.9" dur="1.3s" repeatCount="indefinite"/>
    </circle>
    <circle cx="72" cy="95" r="1" fill="#E0F2FE"/>
    <circle cx="28" cy="95" r="1" fill="#E0F2FE"/>
    <circle cx="58" cy="105" r="0.9" fill="#BAE6FD"/>
    <circle cx="42" cy="105" r="0.9" fill="#BAE6FD"/>
    <circle cx="77" cy="100" r="0.8" fill="#7DD3FC"/>
    <circle cx="23" cy="100" r="0.8" fill="#7DD3FC"/>
    <circle cx="80" cy="105" r="0.7" fill="#0EA5E9"/>
    <circle cx="20" cy="105" r="0.7" fill="#0EA5E9"/>
    
    <!-- Upper burst sparks -->
    <circle cx="62" cy="58" r="0.9" fill="#E0F2FE"/>
    <circle cx="38" cy="58" r="0.9" fill="#E0F2FE"/>
    <circle cx="70" cy="52" r="0.8" fill="#7DD3FC"/>
    <circle cx="30" cy="52" r="0.8" fill="#7DD3FC"/>
  </g>
  
  <!-- Professional rotating energy matrix -->
  <g opacity="0.9">
    <rect x="63" y="90" width="3" height="3" fill="#FFFFFF" opacity="1">
      <animateTransform attributeName="transform" type="rotate" values="0 64.5 91.5;360 64.5 91.5" dur="2s" repeatCount="indefinite"/>
    </rect>
    <rect x="33" y="90" width="3" height="3" fill="#FFFFFF" opacity="1">
      <animateTransform attributeName="transform" type="rotate" values="0 34.5 91.5;-360 34.5 91.5" dur="2s" repeatCount="indefinite"/>
    </rect>
    <rect x="70" y="93" width="2.5" height="2.5" fill="#F0F9FF" opacity="0.95">
      <animateTransform attributeName="transform" type="rotate" values="0 71.25 94.25;360 71.25 94.25" dur="3s" repeatCount="indefinite"/>
    </rect>
    <rect x="25" y="93" width="2.5" height="2.5" fill="#F0F9FF" opacity="0.95">
      <animateTransform attributeName="transform" type="rotate" values="0 26.25 94.25;-360 26.25 94.25" dur="3s" repeatCount="indefinite"/>
    </rect>
    <rect x="75" y="98" width="2" height="2" fill="#E0F2FE" opacity="0.9">
      <animateTransform attributeName="transform" type="rotate" values="0 76 99;360 76 99" dur="4s" repeatCount="indefinite"/>
    </rect>
    <rect x="21" y="98" width="2" height="2" fill="#E0F2FE" opacity="0.9">
      <animateTransform attributeName="transform" type="rotate" values="0 22 99;-360 22 99" dur="4s" repeatCount="indefinite"/>
    </rect>
  </g>
</svg>