<svg viewBox="0 0 100 100" xmlns="http://www.w3.org/2000/svg">
  <defs>
    <!-- Subtle plasma gradient -->
    <linearGradient id="plasmaSubtle11" x1="0%" y1="0%" x2="100%" y2="100%">
      <stop offset="0%" style="stop-color:#F8FAFC;stop-opacity:1" />
      <stop offset="20%" style="stop-color:#E2E8F0;stop-opacity:1" />
      <stop offset="40%" style="stop-color:#CBD5E1;stop-opacity:1" />
      <stop offset="60%" style="stop-color:#94A3B8;stop-opacity:1" />
      <stop offset="80%" style="stop-color:#64748B;stop-opacity:1" />
      <stop offset="100%" style="stop-color:#475569;stop-opacity:1" />
    </linearGradient>
    
    <!-- Subtle titanium -->
    <linearGradient id="subtleTitanium11" x1="0%" y1="0%" x2="100%" y2="100%">
      <stop offset="0%" style="stop-color:#F1F5F9;stop-opacity:1" />
      <stop offset="30%" style="stop-color:#E2E8F0;stop-opacity:1" />
      <stop offset="60%" style="stop-color:#94A3B8;stop-opacity:1" />
      <stop offset="100%" style="stop-color:#334155;stop-opacity:1" />
    </linearGradient>
    
    <!-- Subtle plasma field -->
    <radialGradient id="subtleField11" cx="50%" cy="50%">
      <stop offset="0%" style="stop-color:#F0F9FF;stop-opacity:0.6" />
      <stop offset="30%" style="stop-color:#E0F2FE;stop-opacity:0.4" />
      <stop offset="60%" style="stop-color:#7DD3FC;stop-opacity:0.25" />
      <stop offset="85%" style="stop-color:#0EA5E9;stop-opacity:0.1" />
      <stop offset="100%" style="stop-color:#0284C7;stop-opacity:0" />
    </radialGradient>
    
    <!-- Subtle glow filters -->
    <filter id="subtleGlow11">
      <feGaussianBlur stdDeviation="2"/>
      <feColorMatrix values="1.2 0 0 0 0  0 1.2 0 0 0  0 0 1.2 0 0  0 0 0 0.7 0"/>
    </filter>
    
    <filter id="subtleLightning11">
      <feGaussianBlur stdDeviation="1.5"/>
      <feColorMatrix values="1.1 0 0 0 0  0 1.1 0 0 0  0 0 1.1 0 0  0 0 0 0.6 0"/>
    </filter>
    
    <filter id="subtleCore11">
      <feGaussianBlur stdDeviation="3"/>
      <feColorMatrix values="1.3 0 0 0 0  0 1.3 0 0 0  0 0 1.3 0 0  0 0 0 0.5 0"/>
    </filter>
  </defs>
  
  <!-- Minimal particle field -->
  <g opacity="0.25">
    <circle cx="20" cy="25" r="0.8" fill="#0EA5E9"/>
    <circle cx="80" cy="30" r="0.6" fill="#0284C7"/>
    <circle cx="30" cy="20" r="0.9" fill="#0369A1"/>
    <circle cx="70" cy="40" r="0.5" fill="#7DD3FC"/>
    <circle cx="15" cy="50" r="0.7" fill="#0C4A6E"/>
    <circle cx="85" cy="55" r="0.8" fill="#0EA5E9"/>
  </g>
  
  <!-- Understated anvil -->
  <path d="M 22,78 L 32,75 L 68,75 L 78,78 L 74,86 L 26,86 Z" fill="#1E293B" stroke="#475569" stroke-width="0.3"/>
  <rect x="34" y="73" width="32" height="4" rx="1" fill="#334155" stroke="#64748B" stroke-width="0.2"/>
  
  <!-- Subtle plasma field -->
  <ellipse cx="50" cy="75" rx="35" ry="20" fill="url(#subtleField11)" opacity="0.8"/>
  
  <!-- Gentle motion blur -->
  <g opacity="0.3">
    <rect x="47" y="5" width="6" height="50" fill="#0EA5E9" transform="rotate(-38 50 30)" opacity="0.4"/>
    <rect x="46" y="3" width="6" height="50" fill="#0284C7" transform="rotate(-35 49 28)" opacity="0.3"/>
  </g>
  
  <!-- Subtle hammer -->
  <g transform="rotate(-38 50 36)" filter="url(#subtleGlow11)">
    <!-- Handle -->
    <rect x="47.5" y="8" width="5" height="45" rx="2.5" fill="url(#subtleTitanium11)"/>
    
    <!-- Minimal grip -->
    <rect x="48" y="15" width="4" height="0.5" fill="#0EA5E9" opacity="0.6"/>
    <rect x="48" y="20" width="4" height="0.5" fill="#0EA5E9" opacity="0.6"/>
    <rect x="48" y="25" width="4" height="0.5" fill="#0EA5E9" opacity="0.6"/>
    <rect x="48" y="30" width="4" height="0.5" fill="#0EA5E9" opacity="0.6"/>
    
    <!-- Hammer head -->
    <rect x="38" y="0" width="24" height="14" rx="3" fill="url(#plasmaSubtle11)"/>
    
    <!-- Subtle core -->
    <rect x="40" y="3" width="20" height="2" fill="#F0F9FF" opacity="0.7"/>
    <rect x="40" y="9" width="20" height="2" fill="#475569" opacity="0.8"/>
    
    <!-- Minimal tech details -->
    <circle cx="44" cy="7" r="0.8" fill="#E0F2FE" opacity="0.8"/>
    <circle cx="56" cy="7" r="0.8" fill="#E0F2FE" opacity="0.8"/>
  </g>
  
  <!-- Gentle core glow -->
  <circle cx="50" cy="75" r="4" fill="#E0F2FE" filter="url(#subtleCore11)" opacity="0.6">
    <animate attributeName="opacity" values="0.6;0.8;0.6" dur="3s" repeatCount="indefinite"/>
  </circle>
  
  <!-- Minimal lightning -->
  <g filter="url(#subtleLightning11)" opacity="0.5">
    <path d="M 50,75 L 50,88 L 51,86 L 49,92 L 50,90" stroke="#7DD3FC" stroke-width="1.5" fill="none"/>
    <path d="M 50,77 L 58,85 L 57,83 L 61,88 L 59,86" stroke="#0EA5E9" stroke-width="1.2" fill="none"/>
    <path d="M 50,77 L 42,85 L 43,83 L 39,88 L 41,86" stroke="#0EA5E9" stroke-width="1.2" fill="none"/>
  </g>
  
  <!-- Gentle energy sparks -->
  <g opacity="0.4">
    <circle cx="50" cy="88" r="0.5" fill="#7DD3FC"/>
    <circle cx="58" cy="85" r="0.4" fill="#0EA5E9"/>
    <circle cx="42" cy="85" r="0.4" fill="#0EA5E9"/>
  </g>
  
  <!-- Minimal energy matrix -->
  <g opacity="0.3">
    <rect x="56" y="83" width="1" height="1" fill="#E0F2FE">
      <animateTransform attributeName="transform" type="rotate" values="0 56.5 83.5;360 56.5 83.5" dur="6s" repeatCount="indefinite"/>
    </rect>
    <rect x="41" y="83" width="1" height="1" fill="#E0F2FE">
      <animateTransform attributeName="transform" type="rotate" values="0 41.5 83.5;-360 41.5 83.5" dur="6s" repeatCount="indefinite"/>
    </rect>
  </g>
</svg>