<svg viewBox="0 0 100 100" xmlns="http://www.w3.org/2000/svg">
  <defs>
    <!-- Intense plasma gradient -->
    <linearGradient id="plasmaIntense11" x1="0%" y1="0%" x2="100%" y2="100%">
      <stop offset="0%" style="stop-color:#FFFFFF;stop-opacity:1" />
      <stop offset="8%" style="stop-color:#F0F9FF;stop-opacity:1" />
      <stop offset="15%" style="stop-color:#E0F2FE;stop-opacity:1" />
      <stop offset="25%" style="stop-color:#BAE6FD;stop-opacity:1" />
      <stop offset="35%" style="stop-color:#7DD3FC;stop-opacity:1" />
      <stop offset="45%" style="stop-color:#38BDF8;stop-opacity:1" />
      <stop offset="55%" style="stop-color:#0EA5E9;stop-opacity:1" />
      <stop offset="65%" style="stop-color:#0284C7;stop-opacity:1" />
      <stop offset="75%" style="stop-color:#0369A1;stop-opacity:1" />
      <stop offset="85%" style="stop-color:#0C4A6E;stop-opacity:1" />
      <stop offset="95%" style="stop-color:#082F49;stop-opacity:1" />
      <stop offset="100%" style="stop-color:#0F172A;stop-opacity:1" />
    </linearGradient>
    
    <!-- Intense titanium with chrome finish -->
    <linearGradient id="intenseTitanium11" x1="0%" y1="0%" x2="100%" y2="100%">
      <stop offset="0%" style="stop-color:#FFFFFF;stop-opacity:1" />
      <stop offset="12%" style="stop-color:#F8FAFC;stop-opacity:1" />
      <stop offset="25%" style="stop-color:#F1F5F9;stop-opacity:1" />
      <stop offset="40%" style="stop-color:#E2E8F0;stop-opacity:1" />
      <stop offset="55%" style="stop-color:#CBD5E1;stop-opacity:1" />
      <stop offset="70%" style="stop-color:#94A3B8;stop-opacity:1" />
      <stop offset="85%" style="stop-color:#64748B;stop-opacity:1" />
      <stop offset="100%" style="stop-color:#1E293B;stop-opacity:1" />
    </linearGradient>
    
    <!-- Intense plasma field -->
    <radialGradient id="intenseField11" cx="50%" cy="50%">
      <stop offset="0%" style="stop-color:#FFFFFF;stop-opacity:1" />
      <stop offset="8%" style="stop-color:#F0F9FF;stop-opacity:1" />
      <stop offset="18%" style="stop-color:#E0F2FE;stop-opacity:0.95" />
      <stop offset="30%" style="stop-color:#BAE6FD;stop-opacity:0.88" />
      <stop offset="42%" style="stop-color:#7DD3FC;stop-opacity:0.8" />
      <stop offset="55%" style="stop-color:#0EA5E9;stop-opacity:0.7" />
      <stop offset="68%" style="stop-color:#0284C7;stop-opacity:0.55" />
      <stop offset="80%" style="stop-color:#0369A1;stop-opacity:0.35" />
      <stop offset="92%" style="stop-color:#0C4A6E;stop-opacity:0.15" />
      <stop offset="100%" style="stop-color:#082F49;stop-opacity:0" />
    </radialGradient>
    
    <!-- Intense glow filters -->
    <filter id="intenseGlow11">
      <feGaussianBlur stdDeviation="5.5"/>
      <feColorMatrix values="2.2 0 0 0 0  0 2.2 0 0 0  0 0 2.2 0 0  0 0 0 1 0"/>
    </filter>
    
    <filter id="intenseLightning11">
      <feGaussianBlur stdDeviation="4"/>
      <feColorMatrix values="2 0 0 0 0  0 2 0 0 0  0 0 2 0 0  0 0 0 1 0"/>
    </filter>
    
    <filter id="intenseCore11">
      <feGaussianBlur stdDeviation="7"/>
      <feColorMatrix values="3.5 0 0 0 0  0 3.5 0 0 0  0 0 3.5 0 0  0 0 0 1 0"/>
    </filter>
    
    <filter id="intenseMotion11">
      <feGaussianBlur in="SourceGraphic" stdDeviation="7,2.5"/>
    </filter>
    
    <!-- Intense shimmer gradient -->
    <linearGradient id="intenseShimmer11" x1="0%" y1="0%" x2="100%" y2="0%">
      <stop offset="0%" style="stop-color:#0EA5E9;stop-opacity:0.5" />
      <stop offset="25%" style="stop-color:#38BDF8;stop-opacity:0.9" />
      <stop offset="50%" style="stop-color:#FFFFFF;stop-opacity:1" />
      <stop offset="75%" style="stop-color:#38BDF8;stop-opacity:0.9" />
      <stop offset="100%" style="stop-color:#0EA5E9;stop-opacity:0.5" />
      <animateTransform attributeName="gradientTransform" type="translate" values="-200 0;200 0;-200 0" dur="2s" repeatCount="indefinite"/>
    </linearGradient>
  </defs>
  
  <!-- Intense particle constellation -->
  <g opacity="0.65">
    <circle cx="22" cy="30" r="1.6" fill="#0EA5E9">
      <animate attributeName="opacity" values="0.5;1;0.5" dur="1.8s" repeatCount="indefinite"/>
      <animate attributeName="r" values="1.6;2.4;1.6" dur="1.8s" repeatCount="indefinite"/>
    </circle>
    <circle cx="78" cy="35" r="1.4" fill="#0284C7">
      <animate attributeName="opacity" values="0.4;0.9;0.4" dur="2.2s" repeatCount="indefinite"/>
    </circle>
    <circle cx="30" cy="25" r="1.7" fill="#0369A1"/>
    <circle cx="70" cy="45" r="1.2" fill="#7DD3FC">
      <animate attributeName="opacity" values="0.6;1;0.6" dur="2s" repeatCount="indefinite"/>
    </circle>
    <circle cx="20" cy="60" r="1.5" fill="#0C4A6E"/>
    <circle cx="80" cy="62" r="1.6" fill="#0EA5E9">
      <animate attributeName="r" values="1.6;2.2;1.6" dur="2.5s" repeatCount="indefinite"/>
    </circle>
    <circle cx="35" cy="70" r="1.3" fill="#0284C7"/>
    <circle cx="65" cy="72" r="1.4" fill="#0369A1">
      <animate attributeName="opacity" values="0.5;1;0.5" dur="3s" repeatCount="indefinite"/>
    </circle>
    <circle cx="15" cy="45" r="1.1" fill="#7DD3FC"/>
    <circle cx="85" cy="48" r="1.2" fill="#BAE6FD"/>
    <circle cx="28" cy="12" r="1" fill="#38BDF8"/>
    <circle cx="72" cy="15" r="1.1" fill="#F0F9FF"/>
  </g>
  
  <!-- Intense anvil with enhanced detail -->
  <path d="M 20,78 L 30,75 L 70,75 L 80,78 L 76,88 L 24,88 Z" fill="#0F172A" stroke="#0369A1" stroke-width="1"/>
  <rect x="32" y="72" width="36" height="6" rx="2" fill="#1E293B" stroke="#0EA5E9" stroke-width="0.8"/>
  <rect x="34" y="73" width="32" height="3.5" fill="#0284C7" opacity="1"/>
  <ellipse cx="44" cy="75" rx="1.5" ry="1" fill="#7DD3FC" opacity="0.9"/>
  <ellipse cx="50" cy="75" rx="2" ry="1.3" fill="#F0F9FF" opacity="1"/>
  <ellipse cx="56" cy="75" rx="1.5" ry="1" fill="#7DD3FC" opacity="0.9"/>
  <rect x="35" y="76.5" width="30" height="1" fill="#38BDF8" opacity="0.8"/>
  
  <!-- Intense plasma field -->
  <ellipse cx="50" cy="75" rx="52" ry="36" fill="url(#intenseField11)" opacity="1"/>
  
  <!-- Intense motion blur with multiple layers -->
  <g opacity="0.8" filter="url(#intenseMotion11)">
    <rect x="46" y="-3" width="8" height="66" fill="#0EA5E9" transform="rotate(-38 50 30)"/>
    <rect x="44" y="-7" width="8" height="66" fill="#0284C7" transform="rotate(-34 48 26)"/>
    <rect x="42" y="-11" width="8" height="66" fill="#0369A1" transform="rotate(-30 46 22)"/>
    <rect x="40" y="-15" width="8" height="66" fill="#0C4A6E" transform="rotate(-26 44 18)" opacity="0.9"/>
    <rect x="38" y="-19" width="8" height="66" fill="#082F49" transform="rotate(-22 42 14)" opacity="0.8"/>
    <rect x="36" y="-23" width="8" height="66" fill="#1E293B" transform="rotate(-18 40 10)" opacity="0.6"/>
  </g>
  
  <!-- Intense hammer with shimmer effect -->
  <g transform="rotate(-38 50 36)" filter="url(#intenseGlow11)">
    <!-- Handle -->
    <rect x="47" y="0" width="6" height="56" rx="3" fill="url(#intenseTitanium11)"/>
    
    <!-- Intense grip pattern -->
    <rect x="46.4" y="12" width="7.2" height="1.8" fill="#0EA5E9" opacity="1"/>
    <rect x="46.4" y="16" width="7.2" height="1.8" fill="#0EA5E9" opacity="1"/>
    <rect x="46.4" y="20" width="7.2" height="1.8" fill="#0EA5E9" opacity="1"/>
    <rect x="46.4" y="24" width="7.2" height="1.8" fill="#0EA5E9" opacity="1"/>
    <rect x="46.4" y="28" width="7.2" height="1.8" fill="#0EA5E9" opacity="1"/>
    <rect x="46.4" y="32" width="7.2" height="1.8" fill="#0EA5E9" opacity="1"/>
    <rect x="46.4" y="36" width="7.2" height="1.8" fill="#0EA5E9" opacity="1"/>
    <rect x="46.4" y="40" width="7.2" height="1.8" fill="#0EA5E9" opacity="1"/>
    
    <!-- Intense hammer head -->
    <rect x="36" y="-4" width="28" height="18" rx="4" fill="url(#plasmaIntense11)"/>
    
    <!-- Shimmer overlay -->
    <rect x="36" y="-4" width="28" height="18" rx="4" fill="url(#intenseShimmer11)" opacity="0.6"/>
    
    <!-- Intense energy core layers -->
    <rect x="37" y="-4" width="26" height="8" fill="#FFFFFF" opacity="1"/>
    <rect x="37" y="4" width="26" height="8" fill="#0C4A6E" opacity="0.4"/>
    <rect x="38" y="-2" width="24" height="5" fill="#F0F9FF" opacity="1"/>
    <rect x="38" y="6" width="24" height="5" fill="#0369A1" opacity="1"/>
    <rect x="39" y="0" width="22" height="3" fill="#E0F2FE" opacity="1"/>
    <rect x="39" y="8" width="22" height="3" fill="#0284C7" opacity="0.9"/>
    
    <!-- Intense tech details -->
    <circle cx="42" cy="5" r="2" fill="#FFFFFF" opacity="1"/>
    <circle cx="58" cy="5" r="2" fill="#FFFFFF" opacity="1"/>
    <circle cx="42" cy="5" r="1.3" fill="#0EA5E9" opacity="1"/>
    <circle cx="58" cy="5" r="1.3" fill="#0EA5E9" opacity="1"/>
    <circle cx="42" cy="5" r="0.7" fill="#FFFFFF" opacity="1"/>
    <circle cx="58" cy="5" r="0.7" fill="#FFFFFF" opacity="1"/>
    <rect x="37" y="-5" width="26" height="1.5" fill="#F0F9FF" opacity="1"/>
    <rect x="37" y="14" width="26" height="1.5" fill="#F0F9FF" opacity="1"/>
  </g>
  
  <!-- Intense pulsing core -->
  <circle cx="50" cy="73" r="12" fill="#FFFFFF" filter="url(#intenseCore11)">
    <animate attributeName="r" values="12;9;12" dur="1s" repeatCount="indefinite"/>
    <animate attributeName="opacity" values="1;0.9;1" dur="1s" repeatCount="indefinite"/>
  </circle>
  
  <!-- Intense lightning storm -->
  <g filter="url(#intenseLightning11)">
    <!-- Primary intense trunk -->
    <path d="M 50,75 L 50,105 L 52,102 L 48,110 L 50,107" stroke="#FFFFFF" stroke-width="5" fill="none"/>
    
    <!-- Major intense branches -->
    <path d="M 50,78 L 72,102 L 70,99 L 76,105 L 74,102" stroke="#F0F9FF" stroke-width="4.2" fill="none"/>
    <path d="M 50,78 L 28,102 L 30,99 L 24,105 L 26,102" stroke="#F0F9FF" stroke-width="4.2" fill="none"/>
    <path d="M 50,82 L 80,108 L 78,105 L 85,111 L 83,108" stroke="#E0F2FE" stroke-width="3.8" fill="none"/>
    <path d="M 50,82 L 20,108 L 22,105 L 15,111 L 17,108" stroke="#E0F2FE" stroke-width="3.8" fill="none"/>
    
    <!-- Intense secondary branches -->
    <path d="M 72,102 L 90,120 L 88,117 L 95,123 L 93,120" stroke="#BAE6FD" stroke-width="3.5" fill="none"/>
    <path d="M 28,102 L 10,120 L 12,117 L 5,123 L 7,120" stroke="#BAE6FD" stroke-width="3.5" fill="none"/>
    <path d="M 50,86 L 62,125 L 60,122 L 68,128 L 66,125" stroke="#7DD3FC" stroke-width="3.2" fill="none"/>
    <path d="M 50,86 L 38,125 L 40,122 L 32,128 L 34,125" stroke="#7DD3FC" stroke-width="3.2" fill="none"/>
    
    <!-- Intense tertiary branches -->
    <path d="M 80,108 L 100,130 L 98,127" stroke="#38BDF8" stroke-width="2.8" fill="none"/>
    <path d="M 20,108 L 0,130 L 2,127" stroke="#38BDF8" stroke-width="2.8" fill="none"/>
    <path d="M 72,102 L 88,135 L 86,132" stroke="#0EA5E9" stroke-width="2.5" fill="none"/>
    <path d="M 28,102 L 12,135 L 14,132" stroke="#0EA5E9" stroke-width="2.5" fill="none"/>
    
    <!-- Upward intense branches -->
    <path d="M 50,70 L 68,48 L 66,51 L 75,45 L 73,48" stroke="#E0F2FE" stroke-width="3.5" fill="none"/>
    <path d="M 50,70 L 32,48 L 34,51 L 25,45 L 27,48" stroke="#E0F2FE" stroke-width="3.5" fill="none"/>
    <path d="M 50,68 L 80,40 L 78,43 L 88,37 L 86,40" stroke="#7DD3FC" stroke-width="3" fill="none"/>
    <path d="M 50,68 L 20,40 L 22,43 L 12,37 L 14,40" stroke="#7DD3FC" stroke-width="3" fill="none"/>
  </g>
  
  <!-- Intense energy sparks -->
  <g>
    <!-- Central intense spark -->
    <circle cx="50" cy="105" r="2" fill="#FFFFFF">
      <animate attributeName="opacity" values="1;0.95;1" dur="0.4s" repeatCount="indefinite"/>
      <animate attributeName="r" values="2;2.8;2" dur="0.4s" repeatCount="indefinite"/>
    </circle>
    
    <!-- Major intense sparks -->
    <circle cx="72" cy="102" r="1.6" fill="#F0F9FF">
      <animate attributeName="opacity" values="0.9;1;0.9" dur="0.7s" repeatCount="indefinite"/>
      <animate attributeName="r" values="1.6;2.2;1.6" dur="0.7s" repeatCount="indefinite"/>
    </circle>
    <circle cx="28" cy="102" r="1.6" fill="#F0F9FF">
      <animate attributeName="opacity" values="0.9;1;0.9" dur="0.9s" repeatCount="indefinite"/>
      <animate attributeName="r" values="1.6;2.2;1.6" dur="0.9s" repeatCount="indefinite"/>
    </circle>
    <circle cx="80" cy="108" r="1.4" fill="#E0F2FE"/>
    <circle cx="20" cy="108" r="1.4" fill="#E0F2FE"/>
    <circle cx="90" cy="120" r="1.2" fill="#BAE6FD"/>
    <circle cx="10" cy="120" r="1.2" fill="#BAE6FD"/>
    <circle cx="62" cy="125" r="1.1" fill="#7DD3FC"/>
    <circle cx="38" cy="125" r="1.1" fill="#7DD3FC"/>
    
    <!-- Upper intense sparks -->
    <circle cx="68" cy="48" r="1.2" fill="#E0F2FE"/>
    <circle cx="32" cy="48" r="1.2" fill="#E0F2FE"/>
    <circle cx="80" cy="40" r="1" fill="#7DD3FC"/>
    <circle cx="20" cy="40" r="1" fill="#7DD3FC"/>
  </g>
  
  <!-- Intense rotating energy matrix -->
  <g opacity="1">
    <rect x="70" y="100" width="4" height="4" fill="#FFFFFF" opacity="1">
      <animateTransform attributeName="transform" type="rotate" values="0 72 102;360 72 102" dur="1.2s" repeatCount="indefinite"/>
    </rect>
    <rect x="26" y="100" width="4" height="4" fill="#FFFFFF" opacity="1">
      <animateTransform attributeName="transform" type="rotate" values="0 28 102;-360 28 102" dur="1.2s" repeatCount="indefinite"/>
    </rect>
    <rect x="78" y="106" width="3.5" height="3.5" fill="#F0F9FF" opacity="1">
      <animateTransform attributeName="transform" type="rotate" values="0 79.75 107.75;360 79.75 107.75" dur="1.8s" repeatCount="indefinite"/>
    </rect>
    <rect x="18" y="106" width="3.5" height="3.5" fill="#F0F9FF" opacity="1">
      <animateTransform attributeName="transform" type="rotate" values="0 19.75 107.75;-360 19.75 107.75" dur="1.8s" repeatCount="indefinite"/>
    </rect>
    <rect x="88" y="118" width="3" height="3" fill="#E0F2FE" opacity="0.95">
      <animateTransform attributeName="transform" type="rotate" values="0 89.5 119.5;360 89.5 119.5" dur="2.2s" repeatCount="indefinite"/>
    </rect>
    <rect x="8" y="118" width="3" height="3" fill="#E0F2FE" opacity="0.95">
      <animateTransform attributeName="transform" type="rotate" values="0 9.5 119.5;-360 9.5 119.5" dur="2.2s" repeatCount="indefinite"/>
    </rect>
  </g>
</svg>