<svg viewBox="0 0 256 256" xmlns="http://www.w3.org/2000/svg">
  <defs>
    <!-- Gradient for outer braces -->
    <linearGradient id="outerBraceGradient" x1="0%" y1="0%" x2="100%" y2="100%">
      <stop offset="0%" style="stop-color:#1E293B;stop-opacity:1" />
      <stop offset="100%" style="stop-color:#334155;stop-opacity:1" />
    </linearGradient>
    
    <!-- Gradient for inner braces with subtle depth -->
    <linearGradient id="innerBraceGradient" x1="0%" y1="0%" x2="100%" y2="100%">
      <stop offset="0%" style="stop-color:#1E293B;stop-opacity:0.8" />
      <stop offset="100%" style="stop-color:#334155;stop-opacity:0.8" />
    </linearGradient>
    
    <!-- Subtle glow for type symbols -->
    <filter id="typeGlow">
      <feGaussianBlur stdDeviation="2" result="coloredBlur"/>
      <feMerge>
        <feMergeNode in="coloredBlur"/>
        <feMergeNode in="SourceGraphic"/>
      </feMerge>
    </filter>
    
    <!-- Background protection for visibility -->
    <filter id="bgProtection">
      <feMorphology operator="dilate" radius="2"/>
      <feGaussianBlur stdDeviation="3"/>
      <feColorMatrix type="matrix" values="1 0 0 0 1
                                           0 1 0 0 1
                                           0 0 1 0 1
                                           0 0 0 0.3 0"/>
      <feMerge>
        <feMergeNode/>
        <feMergeNode in="SourceGraphic"/>
      </feMerge>
    </filter>
  </defs>
  
  <!-- Outer curly braces -->
  <g filter="url(#bgProtection)">
    <!-- Left outer brace -->
    <path d="M 40 80 Q 30 80 30 90 L 30 118 Q 30 128 20 128 Q 30 128 30 138 L 30 166 Q 30 176 40 176" 
          fill="none" 
          stroke="url(#outerBraceGradient)" 
          stroke-width="6" 
          stroke-linecap="round"/>
    
    <!-- Right outer brace -->
    <path d="M 216 80 Q 226 80 226 90 L 226 118 Q 226 128 236 128 Q 226 128 226 138 L 226 166 Q 226 176 216 176" 
          fill="none" 
          stroke="url(#outerBraceGradient)" 
          stroke-width="6" 
          stroke-linecap="round"/>
  </g>
  
  <!-- Inner content group -->
  <g transform="translate(128, 128)">
    <!-- W letter in monospace style -->
    <text x="-20" y="8" 
          font-family="'SF Mono', 'Monaco', 'Inconsolata', 'Fira Code', monospace" 
          font-size="48" 
          font-weight="600" 
          fill="#14B8A6"
          text-anchor="middle">W</text>
    
    <!-- Type annotation colon -->
    <text x="18" y="8" 
          font-family="'SF Mono', 'Monaco', 'Inconsolata', 'Fira Code', monospace" 
          font-size="40" 
          font-weight="400" 
          fill="#F59E0B"
          filter="url(#typeGlow)"
          text-anchor="middle">:</text>
    
    <!-- Inner nested braces around type -->
    <g transform="translate(50, 0)">
      <!-- Small left brace -->
      <path d="M -10 -15 Q -15 -15 -15 -10 L -15 -5 Q -15 0 -20 0 Q -15 0 -15 5 L -15 10 Q -15 15 -10 15" 
            fill="none" 
            stroke="url(#innerBraceGradient)" 
            stroke-width="3" 
            stroke-linecap="round"/>
      
      <!-- Type symbol T -->
      <text x="0" y="6" 
            font-family="'SF Mono', 'Monaco', 'Inconsolata', 'Fira Code', monospace" 
            font-size="24" 
            font-weight="400" 
            fill="#F59E0B"
            text-anchor="middle">T</text>
      
      <!-- Small right brace -->
      <path d="M 10 -15 Q 15 -15 15 -10 L 15 -5 Q 15 0 20 0 Q 15 0 15 5 L 15 10 Q 15 15 10 15" 
            fill="none" 
            stroke="url(#innerBraceGradient)" 
            stroke-width="3" 
            stroke-linecap="round"/>
    </g>
  </g>
  
  <!-- Additional code-like decorations -->
  <g opacity="0.4">
    <!-- Comment slashes -->
    <text x="50" y="65" 
          font-family="'SF Mono', 'Monaco', 'Inconsolata', 'Fira Code', monospace" 
          font-size="14" 
          font-weight="300" 
          fill="#64748B">//</text>
    
    <!-- Semicolon -->
    <text x="210" y="195" 
          font-family="'SF Mono', 'Monaco', 'Inconsolata', 'Fira Code', monospace" 
          font-size="20" 
          font-weight="400" 
          fill="#64748B">;</text>
  </g>
</svg>