<svg viewBox="0 0 100 100" xmlns="http://www.w3.org/2000/svg">
  <defs>
    <linearGradient id="grad3" x1="0%" y1="0%" x2="100%" y2="100%">
      <stop offset="0%" style="stop-color:#0A4F7C;stop-opacity:1" />
      <stop offset="50%" style="stop-color:#14B8A6;stop-opacity:1" />
      <stop offset="100%" style="stop-color:#0A4F7C;stop-opacity:1" />
    </linearGradient>
  </defs>
  <!-- Tessellated diamonds with outlines -->
  <path d="M 50,20 L 65,35 L 50,50 L 35,35 Z" fill="url(#grad3)"/>
  <path d="M 50,50 L 65,65 L 50,80 L 35,65 Z" fill="url(#grad3)" opacity="0.7"/>
  <path d="M 35,35 L 20,50 L 35,65 L 50,50 Z" fill="url(#grad3)" opacity="0.5"/>
  <path d="M 65,35 L 80,50 L 65,65 L 50,50 Z" fill="url(#grad3)" opacity="0.5"/>
  <!-- Outlines -->
  <path d="M 50,20 L 65,35 L 50,50 L 35,35 Z M 50,50 L 65,65 L 50,80 L 35,65 Z M 35,35 L 20,50 L 35,65 L 50,50 Z M 65,35 L 80,50 L 65,65 L 50,50 Z" 
        fill="none" stroke="#1E293B" stroke-width="1" opacity="0.3"/>
</svg>