<svg viewBox="0 0 100 100" xmlns="http://www.w3.org/2000/svg">
  <defs>
    <linearGradient id="grad19" x1="0%" y1="0%" x2="100%" y2="100%">
      <stop offset="0%" style="stop-color:#0A4F7C;stop-opacity:1" />
      <stop offset="50%" style="stop-color:#14B8A6;stop-opacity:1" />
      <stop offset="100%" style="stop-color:#0A4F7C;stop-opacity:1" />
    </linearGradient>
  </defs>
  <!-- Diamonds in various stages of construction -->
  <!-- Complete diamond -->
  <path d="M 50,20 L 65,35 L 50,50 L 35,35 Z" fill="url(#grad19)"/>
  <!-- Diamond with construction lines -->
  <path d="M 50,50 L 65,65 L 50,80 L 35,65 Z" fill="none" stroke="#14B8A6" stroke-width="2"/>
  <path d="M 50,50 L 50,80 M 35,65 L 65,65" stroke="#5EEAD4" stroke-width="1" opacity="0.5" stroke-dasharray="2,2"/>
  <path d="M 50,50 L 65,65 L 50,80 L 35,65 Z" fill="url(#grad19)" opacity="0.3"/>
  <!-- Partial diamonds -->
  <path d="M 35,35 L 20,50 L 35,65" fill="url(#grad19)" opacity="0.5"/>
  <path d="M 50,50 L 35,65" stroke="#14B8A6" stroke-width="2" stroke-dasharray="4,2"/>
  <path d="M 65,35 L 80,50" stroke="#14B8A6" stroke-width="2"/>
  <path d="M 80,50 L 65,65" stroke="#14B8A6" stroke-width="2" stroke-dasharray="4,2" opacity="0.5"/>
  <!-- Construction points -->
  <circle cx="50" cy="50" r="2" fill="#EA580C"/>
  <circle cx="35" cy="65" r="1.5" fill="#FB923C" opacity="0.7"/>
  <circle cx="65" cy="65" r="1.5" fill="#FB923C" opacity="0.7"/>
</svg>