<svg viewBox="0 0 100 100" xmlns="http://www.w3.org/2000/svg">
  <defs>
    <linearGradient id="grad11a" x1="0%" y1="0%" x2="100%" y2="100%">
      <stop offset="0%" style="stop-color:#0A4F7C;stop-opacity:1" />
      <stop offset="50%" style="stop-color:#14B8A6;stop-opacity:1" />
      <stop offset="100%" style="stop-color:#0A4F7C;stop-opacity:1" />
    </linearGradient>
    <linearGradient id="grad11b" x1="0%" y1="0%" x2="100%" y2="100%">
      <stop offset="0%" style="stop-color:#EA580C;stop-opacity:1" />
      <stop offset="100%" style="stop-color:#FB923C;stop-opacity:1" />
    </linearGradient>
  </defs>
  <!-- Tessellated diamonds background -->
  <g opacity="0.3">
    <path d="M 50,20 L 65,35 L 50,50 L 35,35 Z" fill="url(#grad11a)"/>
    <path d="M 50,50 L 65,65 L 50,80 L 35,65 Z" fill="url(#grad11a)" opacity="0.7"/>
    <path d="M 35,35 L 20,50 L 35,65 L 50,50 Z" fill="url(#grad11a)" opacity="0.5"/>
    <path d="M 65,35 L 80,50 L 65,65 L 50,50 Z" fill="url(#grad11a)" opacity="0.5"/>
  </g>
  <!-- Hammer overlay -->
  <g transform="rotate(-45 50 50)">
    <rect x="45" y="20" width="10" height="50" fill="url(#grad11b)"/>
    <rect x="35" y="15" width="30" height="15" rx="2" fill="#1E293B"/>
    <path d="M 35,22.5 L 40,22.5 M 45,22.5 L 50,22.5 M 55,22.5 L 60,22.5" stroke="#FB923C" stroke-width="2"/>
  </g>
</svg>