<svg viewBox="0 0 100 100" xmlns="http://www.w3.org/2000/svg">
  <defs>
    <linearGradient id="grad13a" x1="0%" y1="0%" x2="100%" y2="100%">
      <stop offset="0%" style="stop-color:#14B8A6;stop-opacity:1" />
      <stop offset="100%" style="stop-color:#5EEAD4;stop-opacity:1" />
    </linearGradient>
    <linearGradient id="grad13b" x1="0%" y1="0%" x2="100%" y2="100%">
      <stop offset="0%" style="stop-color:#EA580C;stop-opacity:1" />
      <stop offset="100%" style="stop-color:#FB923C;stop-opacity:1" />
    </linearGradient>
  </defs>
  <!-- Success diamonds (teal) -->
  <path d="M 50,20 L 65,35 L 50,50 L 35,35 Z" fill="url(#grad13a)"/>
  <path d="M 65,35 L 80,50 L 65,65 L 50,50 Z" fill="url(#grad13a)" opacity="0.5"/>
  <!-- Error diamonds (orange) -->
  <path d="M 50,50 L 65,65 L 50,80 L 35,65 Z" fill="url(#grad13b)" opacity="0.7"/>
  <path d="M 35,35 L 20,50 L 35,65 L 50,50 Z" fill="url(#grad13b)" opacity="0.5"/>
  <!-- Result indicators -->
  <circle cx="50" cy="35" r="3" fill="#ffffff"/>
  <path d="M 48,34 L 49.5,36 L 52,33" stroke="#14B8A6" stroke-width="1.5" fill="none"/>
  <circle cx="50" cy="65" r="3" fill="#ffffff"/>
  <path d="M 48,63.5 L 52,66.5 M 52,63.5 L 48,66.5" stroke="#EA580C" stroke-width="1.5"/>
</svg>