<svg viewBox="0 0 100 100" xmlns="http://www.w3.org/2000/svg">
  <defs>
    <linearGradient id="grad14" x1="0%" y1="0%" x2="100%" y2="100%">
      <stop offset="0%" style="stop-color:#EA580C;stop-opacity:1" />
      <stop offset="100%" style="stop-color:#FB923C;stop-opacity:1" />
    </linearGradient>
  </defs>
  <!-- Diamonds being built -->
  <path d="M 30,60 L 40,50 L 50,60 L 40,70 Z" fill="#14B8A6"/>
  <path d="M 50,60 L 60,50 L 70,60 L 60,70 Z" fill="#14B8A6" opacity="0.7"/>
  <path d="M 40,70 L 50,60 L 60,70 L 50,80 Z" fill="#14B8A6" opacity="0.5"/>
  <!-- Hammer in action -->
  <g transform="rotate(-30 55 40)">
    <rect x="50" y="20" width="10" height="35" fill="url(#grad14)"/>
    <rect x="40" y="15" width="30" height="15" rx="2" fill="#1E293B"/>
    <path d="M 40,22.5 L 45,22.5 M 50,22.5 L 55,22.5 M 60,22.5 L 65,22.5" stroke="#FB923C" stroke-width="2"/>
  </g>
  <!-- Motion lines -->
  <path d="M 35,35 L 40,40 M 30,40 L 35,45" stroke="#FB923C" stroke-width="2" opacity="0.5"/>
</svg>