<svg viewBox="0 0 100 100" xmlns="http://www.w3.org/2000/svg">
  <defs>
    <linearGradient id="grad20a" x1="0%" y1="0%" x2="100%" y2="100%">
      <stop offset="0%" style="stop-color:#0A4F7C;stop-opacity:1" />
      <stop offset="50%" style="stop-color:#14B8A6;stop-opacity:1" />
      <stop offset="100%" style="stop-color:#0A4F7C;stop-opacity:1" />
    </linearGradient>
    <linearGradient id="grad20b" x1="0%" y1="0%" x2="100%" y2="100%">
      <stop offset="0%" style="stop-color:#EA580C;stop-opacity:1" />
      <stop offset="100%" style="stop-color:#FB923C;stop-opacity:1" />
    </linearGradient>
  </defs>
  <!-- Central tessellated diamond -->
  <path d="M 50,25 L 62.5,37.5 L 50,50 L 37.5,37.5 Z" fill="url(#grad20a)"/>
  <!-- Hammer as part of the pattern -->
  <g transform="rotate(-45 50 50)">
    <rect x="47" y="35" width="6" height="25" fill="url(#grad20b)" opacity="0.8"/>
    <rect x="42" y="32" width="16" height="8" rx="1" fill="#1E293B"/>
  </g>
  <!-- Supporting diamonds -->
  <path d="M 37.5,37.5 L 25,50 L 37.5,62.5 L 50,50 Z" fill="url(#grad20a)" opacity="0.5"/>
  <path d="M 62.5,37.5 L 75,50 L 62.5,62.5 L 50,50 Z" fill="url(#grad20a)" opacity="0.5"/>
  <path d="M 50,50 L 62.5,62.5 L 50,75 L 37.5,62.5 Z" fill="url(#grad20a)" opacity="0.3"/>
  <!-- Craft marks -->
  <circle cx="50" cy="50" r="3" fill="#5EEAD4"/>
  <path d="M 65,65 L 67,63 M 68,68 L 70,66" stroke="#FB923C" stroke-width="1.5" opacity="0.7"/>
</svg>