<svg viewBox="0 0 100 100" xmlns="http://www.w3.org/2000/svg">
  <defs>
    <linearGradient id="grad7a" x1="0%" y1="0%" x2="100%" y2="100%">
      <stop offset="0%" style="stop-color:#EA580C;stop-opacity:1" />
      <stop offset="100%" style="stop-color:#FB923C;stop-opacity:1" />
    </linearGradient>
    <pattern id="damascus7" x="0" y="0" width="6" height="4" patternUnits="userSpaceOnUse">
      <path d="M 0,0 Q 3,2 6,0" stroke="#374151" stroke-width="0.5" fill="none" opacity="0.6"/>
      <path d="M 0,2 Q 3,4 6,2" stroke="#1E293B" stroke-width="0.5" fill="none" opacity="0.4"/>
    </pattern>
    <linearGradient id="steel7" x1="0%" y1="0%" x2="100%" y2="100%">
      <stop offset="0%" style="stop-color:#94A3B8;stop-opacity:1" />
      <stop offset="50%" style="stop-color:#CBD5E1;stop-opacity:1" />
      <stop offset="100%" style="stop-color:#64748B;stop-opacity:1" />
    </linearGradient>
    <filter id="shadow7">
      <feDropShadow dx="2" dy="2" stdDeviation="2.5" flood-opacity="0.35"/>
    </filter>
    <radialGradient id="glow7">
      <stop offset="0%" style="stop-color:#CBD5E1;stop-opacity:0.8" />
      <stop offset="100%" style="stop-color:#94A3B8;stop-opacity:0" />
    </radialGradient>
  </defs>
  <!-- Anvil -->
  <rect x="28" y="71" width="44" height="9" rx="2" fill="#374151"/>
  <rect x="23" y="78" width="54" height="5" fill="#1E293B"/>
  <!-- Metallic glow -->
  <ellipse cx="50" cy="71" rx="20" ry="10" fill="url(#glow7)"/>
  <!-- Damascus steel hammer -->
  <g transform="rotate(-42 50 48)" filter="url(#shadow7)">
    <rect x="45" y="20" width="10" height="48" fill="url(#grad7a)"/>
    <!-- Damascus steel head -->
    <rect x="35" y="15" width="30" height="15" rx="2" fill="url(#steel7)"/>
    <rect x="35" y="15" width="30" height="15" rx="2" fill="url(#damascus7)"/>
    <!-- Polished edges -->
    <path d="M 37,15 L 63,15" stroke="#E2E8F0" stroke-width="1" opacity="0.7"/>
    <path d="M 37,30 L 63,30" stroke="#475569" stroke-width="1" opacity="0.5"/>
    <!-- Center band -->
    <rect x="35" y="21" width="30" height="3" fill="#1E293B" opacity="0.2"/>
    <!-- Premium grip -->
    <rect x="47" y="33" width="6" height="2" fill="#1E293B" opacity="0.6"/>
    <rect x="47" y="37" width="6" height="2" fill="#1E293B" opacity="0.6"/>
    <rect x="47" y="41" width="6" height="2" fill="#1E293B" opacity="0.6"/>
    <rect x="47" y="45" width="6" height="2" fill="#1E293B" opacity="0.6"/>
    <rect x="47" y="49" width="6" height="2" fill="#1E293B" opacity="0.6"/>
  </g>
  <!-- Metallic sparks -->
  <circle cx="46" cy="69" r="1.5" fill="#CBD5E1"/>
  <circle cx="54" cy="68" r="1.5" fill="#CBD5E1"/>
  <circle cx="50" cy="66" r="2" fill="#94A3B8"/>
  <circle cx="41" cy="67" r="1" fill="#E2E8F0" opacity="0.9"/>
  <circle cx="59" cy="66" r="1" fill="#E2E8F0" opacity="0.9"/>
</svg>