<svg viewBox="0 0 100 100" xmlns="http://www.w3.org/2000/svg">
  <defs>
    <linearGradient id="grad4" x1="0%" y1="0%" x2="0%" y2="100%">
      <stop offset="0%" style="stop-color:#FB923C;stop-opacity:1" />
      <stop offset="100%" style="stop-color:#EA580C;stop-opacity:1" />
    </linearGradient>
    <filter id="shadow4">
      <feDropShadow dx="0" dy="3" stdDeviation="2" flood-opacity="0.3"/>
    </filter>
    <radialGradient id="glow4" cx="50%" cy="70%">
      <stop offset="0%" style="stop-color:#FDBA74;stop-opacity:0.9" />
      <stop offset="60%" style="stop-color:#FB923C;stop-opacity:0.4" />
      <stop offset="100%" style="stop-color:#FB923C;stop-opacity:0" />
    </radialGradient>
  </defs>
  <!-- Forging platform -->
  <rect x="30" y="72" width="40" height="8" rx="1" fill="#374151"/>
  <rect x="25" y="78" width="50" height="7" fill="#1E293B"/>
  <!-- Impact glow -->
  <ellipse cx="50" cy="72" rx="22" ry="12" fill="url(#glow4)"/>
  <!-- Vertical hammer -->
  <g transform="translate(50,50)" filter="url(#shadow4)">
    <rect x="-5" y="-25" width="10" height="40" fill="url(#grad4)"/>
    <rect x="-15" y="-30" width="30" height="15" rx="2" fill="#1E293B"/>
    <!-- Vertical grip -->
    <rect x="-3" y="-10" width="6" height="2" fill="#881337" opacity="0.5"/>
    <rect x="-3" y="-6" width="6" height="2" fill="#881337" opacity="0.5"/>
    <rect x="-3" y="-2" width="6" height="2" fill="#881337" opacity="0.5"/>
    <rect x="-3" y="2" width="6" height="2" fill="#881337" opacity="0.5"/>
    <rect x="-3" y="6" width="6" height="2" fill="#881337" opacity="0.5"/>
  </g>
  <!-- Vertical spark pattern -->
  <circle cx="50" cy="70" r="2.5" fill="#FDBA74"/>
  <circle cx="45" cy="67" r="1.5" fill="#FB923C" opacity="0.9"/>
  <circle cx="55" cy="67" r="1.5" fill="#FB923C" opacity="0.9"/>
  <circle cx="42" cy="70" r="1" fill="#FDBA74" opacity="0.7"/>
  <circle cx="58" cy="70" r="1" fill="#FDBA74" opacity="0.7"/>
  <path d="M 50,65 L 50,60 M 47,63 L 50,60 L 53,63" stroke="#FDBA74" stroke-width="1.5" opacity="0.6"/>
</svg>