<svg viewBox="0 0 100 100" xmlns="http://www.w3.org/2000/svg">
  <defs>
    <linearGradient id="grad8a" x1="0%" y1="0%" x2="100%" y2="100%">
      <stop offset="0%" style="stop-color:#EA580C;stop-opacity:1" />
      <stop offset="100%" style="stop-color:#FB923C;stop-opacity:1" />
    </linearGradient>
    <linearGradient id="royal8" x1="0%" y1="0%" x2="100%" y2="100%">
      <stop offset="0%" style="stop-color:#7C3AED;stop-opacity:1" />
      <stop offset="50%" style="stop-color:#8B5CF6;stop-opacity:1" />
      <stop offset="100%" style="stop-color:#6D28D9;stop-opacity:1" />
    </linearGradient>
    <radialGradient id="gem8a">
      <stop offset="0%" style="stop-color:#14B8A6;stop-opacity:1" />
      <stop offset="70%" style="stop-color:#0F766E;stop-opacity:1" />
      <stop offset="100%" style="stop-color:#134E4A;stop-opacity:1" />
    </radialGradient>
    <radialGradient id="gem8b">
      <stop offset="0%" style="stop-color:#FB923C;stop-opacity:1" />
      <stop offset="70%" style="stop-color:#EA580C;stop-opacity:1" />
      <stop offset="100%" style="stop-color:#C2410C;stop-opacity:1" />
    </radialGradient>
    <filter id="shadow8">
      <feDropShadow dx="2" dy="2" stdDeviation="3" flood-opacity="0.4"/>
    </filter>
    <radialGradient id="glow8">
      <stop offset="0%" style="stop-color:#A78BFA;stop-opacity:0.8" />
      <stop offset="100%" style="stop-color:#8B5CF6;stop-opacity:0" />
    </radialGradient>
  </defs>
  <!-- Royal anvil -->
  <rect x="28" y="70" width="44" height="10" rx="2" fill="#374151"/>
  <rect x="24" y="78" width="52" height="5" fill="#1E293B"/>
  <!-- Mystical glow -->
  <ellipse cx="50" cy="70" rx="22" ry="12" fill="url(#glow8)"/>
  <!-- Jeweled hammer -->
  <g transform="rotate(-45 50 50)" filter="url(#shadow8)">
    <rect x="45" y="20" width="10" height="50" fill="url(#grad8a)"/>
    <!-- Royal purple hammer head -->
    <rect x="35" y="15" width="30" height="15" rx="2" fill="url(#royal8)"/>
    <!-- Silver trim -->
    <rect x="35" y="15" width="30" height="2" fill="#E5E7EB" opacity="0.7"/>
    <rect x="35" y="28" width="30" height="2" fill="#6B7280" opacity="0.5"/>
    <!-- Center jewel (emerald) -->
    <circle cx="50" cy="22.5" r="4" fill="url(#gem8a)"/>
    <circle cx="50" cy="22.5" r="3" fill="none" stroke="#14B8A6" stroke-width="0.5" opacity="0.8"/>
    <circle cx="48.5" cy="21" r="1" fill="#5EEAD4" opacity="0.8"/>
    <!-- Side jewels (amber) -->
    <circle cx="40" cy="22.5" r="2.5" fill="url(#gem8b)"/>
    <circle cx="60" cy="22.5" r="2.5" fill="url(#gem8b)"/>
    <circle cx="39" cy="21.5" r="0.7" fill="#FDBA74" opacity="0.8"/>
    <circle cx="59" cy="21.5" r="0.7" fill="#FDBA74" opacity="0.8"/>
    <!-- Luxury grip -->
    <rect x="47" y="35" width="6" height="2" fill="#6D28D9" opacity="0.6"/>
    <rect x="47" y="40" width="6" height="2" fill="#6D28D9" opacity="0.6"/>
    <rect x="47" y="45" width="6" height="2" fill="#6D28D9" opacity="0.6"/>
    <rect x="47" y="50" width="6" height="2" fill="#6D28D9" opacity="0.6"/>
  </g>
  <!-- Magical sparks -->
  <circle cx="45" cy="68" r="1.5" fill="#A78BFA"/>
  <circle cx="55" cy="67" r="1.5" fill="#A78BFA"/>
  <circle cx="50" cy="65" r="2" fill="#8B5CF6"/>
  <circle cx="40" cy="65" r="1" fill="#14B8A6" opacity="0.8"/>
  <circle cx="60" cy="64" r="1" fill="#FB923C" opacity="0.8"/>
</svg>