<svg viewBox="0 0 100 100" xmlns="http://www.w3.org/2000/svg">
  <defs>
    <linearGradient id="grad3a" x1="0%" y1="0%" x2="100%" y2="100%">
      <stop offset="0%" style="stop-color:#EA580C;stop-opacity:1" />
      <stop offset="100%" style="stop-color:#FB923C;stop-opacity:1" />
    </linearGradient>
    <linearGradient id="grad3b" x1="0%" y1="0%" x2="100%" y2="100%">
      <stop offset="0%" style="stop-color:#0A4F7C;stop-opacity:1" />
      <stop offset="50%" style="stop-color:#14B8A6;stop-opacity:1" />
      <stop offset="100%" style="stop-color:#0A4F7C;stop-opacity:1" />
    </linearGradient>
    <filter id="shadow3">
      <feDropShadow dx="1.5" dy="1.5" stdDeviation="2" flood-opacity="0.35"/>
    </filter>
    <radialGradient id="glow3">
      <stop offset="0%" style="stop-color:#5EEAD4;stop-opacity:0.8" />
      <stop offset="100%" style="stop-color:#5EEAD4;stop-opacity:0" />
    </radialGradient>
  </defs>
  <!-- Anvil surface -->
  <rect x="25" y="70" width="50" height="8" rx="2" fill="#374151"/>
  <rect x="20" y="76" width="60" height="6" fill="#1E293B"/>
  <!-- Diamond being forged -->
  <ellipse cx="50" cy="70" rx="18" ry="8" fill="url(#glow3)"/>
  <path d="M 50,60 L 58,68 L 50,76 L 42,68 Z" fill="url(#grad3b)"/>
  <!-- Hammer with emphasis -->
  <g transform="rotate(-40 50 45)" filter="url(#shadow3)">
    <rect x="45" y="20" width="10" height="40" fill="url(#grad3a)"/>
    <rect x="35" y="15" width="30" height="15" rx="2" fill="#1E293B"/>
    <!-- Grip pattern -->
    <rect x="47" y="32" width="6" height="2" fill="#881337" opacity="0.5"/>
    <rect x="47" y="36" width="6" height="2" fill="#881337" opacity="0.5"/>
    <rect x="47" y="40" width="6" height="2" fill="#881337" opacity="0.5"/>
    <rect x="47" y="44" width="6" height="2" fill="#881337" opacity="0.5"/>
  </g>
  <!-- Sparks and diamond fragments -->
  <path d="M 45,68 L 43,66 L 41,68 L 43,70 Z" fill="#5EEAD4" opacity="0.8"/>
  <path d="M 55,68 L 57,66 L 59,68 L 57,70 Z" fill="#5EEAD4" opacity="0.8"/>
  <circle cx="40" cy="65" r="1.5" fill="#FDBA74"/>
  <circle cx="60" cy="65" r="1.5" fill="#FDBA74"/>
  <circle cx="50" cy="62" r="2" fill="#FB923C" opacity="0.9"/>
</svg>