<svg viewBox="0 0 100 100" xmlns="http://www.w3.org/2000/svg">
  <defs>
    <linearGradient id="grad2" x1="0%" y1="0%" x2="100%" y2="100%">
      <stop offset="0%" style="stop-color:#EA580C;stop-opacity:1" />
      <stop offset="100%" style="stop-color:#FB923C;stop-opacity:1" />
    </linearGradient>
    <filter id="shadow2">
      <feDropShadow dx="2" dy="2" stdDeviation="3" flood-opacity="0.4"/>
    </filter>
    <radialGradient id="glow2" cx="50%" cy="50%">
      <stop offset="0%" style="stop-color:#FDBA74;stop-opacity:1" />
      <stop offset="50%" style="stop-color:#FB923C;stop-opacity:0.5" />
      <stop offset="100%" style="stop-color:#FB923C;stop-opacity:0" />
    </radialGradient>
  </defs>
  <!-- Anvil base -->
  <path d="M 20,72 L 25,68 L 75,68 L 80,72 L 75,82 L 25,82 Z" fill="#1E293B"/>
  <rect x="30" y="65" width="40" height="7" rx="1" fill="#374151"/>
  <!-- Impact glow at strike point -->
  <ellipse cx="50" cy="65" rx="20" ry="10" fill="url(#glow2)"/>
  <!-- Hammer in mid-strike position -->
  <g transform="rotate(-35 50 40)" filter="url(#shadow2)">
    <rect x="45" y="15" width="10" height="45" fill="url(#grad2)"/>
    <rect x="35" y="10" width="30" height="15" rx="2" fill="#1E293B"/>
    <!-- Enhanced grip -->
    <rect x="47" y="30" width="6" height="2" fill="#881337" opacity="0.6"/>
    <rect x="47" y="34" width="6" height="2" fill="#881337" opacity="0.6"/>
    <rect x="47" y="38" width="6" height="2" fill="#881337" opacity="0.6"/>
    <rect x="47" y="42" width="6" height="2" fill="#881337" opacity="0.6"/>
    <rect x="47" y="46" width="6" height="2" fill="#881337" opacity="0.6"/>
  </g>
  <!-- Dynamic sparks radiating from impact -->
  <circle cx="50" cy="65" r="2.5" fill="#FDBA74"/>
  <circle cx="42" cy="63" r="1.5" fill="#FB923C"/>
  <circle cx="58" cy="63" r="1.5" fill="#FB923C"/>
  <circle cx="45" cy="60" r="1" fill="#FDBA74" opacity="0.9"/>
  <circle cx="55" cy="60" r="1" fill="#FDBA74" opacity="0.9"/>
  <circle cx="38" cy="62" r="1" fill="#FDBA74" opacity="0.7"/>
  <circle cx="62" cy="62" r="1" fill="#FDBA74" opacity="0.7"/>
</svg>