<svg viewBox="0 0 100 100" xmlns="http://www.w3.org/2000/svg">
  <defs>
    <linearGradient id="grad1" x1="0%" y1="0%" x2="100%" y2="100%">
      <stop offset="0%" style="stop-color:#EA580C;stop-opacity:1" />
      <stop offset="100%" style="stop-color:#FB923C;stop-opacity:1" />
    </linearGradient>
    <filter id="shadow1">
      <feDropShadow dx="2" dy="2" stdDeviation="2" flood-opacity="0.3"/>
    </filter>
    <radialGradient id="glow1">
      <stop offset="0%" style="stop-color:#FDBA74;stop-opacity:0.8" />
      <stop offset="100%" style="stop-color:#FDBA74;stop-opacity:0" />
    </radialGradient>
  </defs>
  <!-- Forging surface/anvil -->
  <rect x="30" y="70" width="40" height="10" rx="2" fill="#374151"/>
  <rect x="25" y="78" width="50" height="5" fill="#1E293B"/>
  <!-- Forging glow -->
  <ellipse cx="50" cy="70" rx="15" ry="8" fill="url(#glow1)"/>
  <!-- Emphasized hammer with shadow -->
  <g transform="rotate(-45 50 50)" filter="url(#shadow1)">
    <rect x="45" y="20" width="10" height="50" fill="url(#grad1)"/>
    <rect x="35" y="15" width="30" height="15" rx="2" fill="#1E293B"/>
    <!-- Grip texture on handle -->
    <rect x="47" y="35" width="6" height="2" fill="#881337" opacity="0.5"/>
    <rect x="47" y="40" width="6" height="2" fill="#881337" opacity="0.5"/>
    <rect x="47" y="45" width="6" height="2" fill="#881337" opacity="0.5"/>
    <rect x="47" y="50" width="6" height="2" fill="#881337" opacity="0.5"/>
  </g>
  <!-- Sparks -->
  <circle cx="45" cy="68" r="1.5" fill="#FDBA74"/>
  <circle cx="55" cy="67" r="1.5" fill="#FDBA74"/>
  <circle cx="50" cy="65" r="2" fill="#FB923C"/>
  <circle cx="40" cy="65" r="1" fill="#FDBA74" opacity="0.8"/>
  <circle cx="60" cy="64" r="1" fill="#FDBA74" opacity="0.8"/>
</svg>