<svg viewBox="0 0 100 100" xmlns="http://www.w3.org/2000/svg">
  <defs>
    <linearGradient id="grad10a" x1="0%" y1="0%" x2="100%" y2="100%">
      <stop offset="0%" style="stop-color:#EA580C;stop-opacity:1" />
      <stop offset="100%" style="stop-color:#FB923C;stop-opacity:1" />
    </linearGradient>
    <radialGradient id="mesh10a" cx="30%" cy="30%">
      <stop offset="0%" style="stop-color:#14B8A6;stop-opacity:1" />
      <stop offset="50%" style="stop-color:#0F766E;stop-opacity:1" />
      <stop offset="100%" style="stop-color:#134E4A;stop-opacity:1" />
    </radialGradient>
    <radialGradient id="mesh10b" cx="70%" cy="70%">
      <stop offset="0%" style="stop-color:#5EEAD4;stop-opacity:0.8" />
      <stop offset="100%" style="stop-color:#14B8A6;stop-opacity:0.8" />
    </radialGradient>
    <linearGradient id="mesh10c" x1="0%" y1="0%" x2="100%" y2="100%">
      <stop offset="0%" style="stop-color:#0A4F7C;stop-opacity:0.6" />
      <stop offset="100%" style="stop-color:#14B8A6;stop-opacity:0.6" />
    </linearGradient>
    <filter id="shadow10">
      <feDropShadow dx="2" dy="2" stdDeviation="2.5" flood-opacity="0.35"/>
    </filter>
    <filter id="blur10">
      <feGaussianBlur stdDeviation="0.5"/>
    </filter>
    <radialGradient id="glow10">
      <stop offset="0%" style="stop-color:#5EEAD4;stop-opacity:0.8" />
      <stop offset="100%" style="stop-color:#14B8A6;stop-opacity:0" />
    </radialGradient>
  </defs>
  <!-- Modern anvil -->
  <rect x="28" y="70" width="44" height="10" rx="2" fill="#374151"/>
  <rect x="24" y="78" width="52" height="5" fill="#1E293B"/>
  <!-- Gradient mesh glow -->
  <ellipse cx="50" cy="70" rx="20" ry="10" fill="url(#glow10)"/>
  <!-- Gradient mesh hammer -->
  <g transform="rotate(-45 50 50)" filter="url(#shadow10)">
    <rect x="45" y="20" width="10" height="50" fill="url(#grad10a)"/>
    <!-- Multi-gradient hammer head -->
    <rect x="35" y="15" width="30" height="15" rx="2" fill="url(#mesh10a)"/>
    <rect x="35" y="15" width="30" height="15" rx="2" fill="url(#mesh10b)" opacity="0.5"/>
    <rect x="35" y="15" width="30" height="15" rx="2" fill="url(#mesh10c)"/>
    <!-- Soft glow overlay -->
    <rect x="37" y="17" width="26" height="11" rx="1" fill="#5EEAD4" opacity="0.2" filter="url(#blur10)"/>
    <!-- Geometric pattern -->
    <path d="M 40,20 L 45,25 L 50,20 L 55,25 L 60,20" stroke="#0A4F7C" stroke-width="1" fill="none" opacity="0.4"/>
    <circle cx="50" cy="22.5" r="3" fill="none" stroke="#5EEAD4" stroke-width="0.5" opacity="0.6"/>
    <!-- Modern grip -->
    <rect x="47" y="35" width="6" height="2" fill="#0F766E" opacity="0.6"/>
    <rect x="47" y="40" width="6" height="2" fill="#0F766E" opacity="0.6"/>
    <rect x="47" y="45" width="6" height="2" fill="#0F766E" opacity="0.6"/>
    <rect x="47" y="50" width="6" height="2" fill="#0F766E" opacity="0.6"/>
  </g>
  <!-- Gradient sparks -->
  <circle cx="45" cy="68" r="1.5" fill="#5EEAD4"/>
  <circle cx="55" cy="67" r="1.5" fill="#5EEAD4"/>
  <circle cx="50" cy="65" r="2" fill="#14B8A6"/>
  <circle cx="40" cy="65" r="1" fill="#FDBA74" opacity="0.8"/>
  <circle cx="60" cy="64" r="1" fill="#FDBA74" opacity="0.8"/>
</svg>