<svg viewBox="0 0 100 100" xmlns="http://www.w3.org/2000/svg">
  <defs>
    <!-- Chrome hammer gradient -->
    <linearGradient id="hammerChrome2" x1="0%" y1="0%" x2="100%" y2="100%">
      <stop offset="0%" style="stop-color:#F8FAFC;stop-opacity:1" />
      <stop offset="25%" style="stop-color:#E2E8F0;stop-opacity:1" />
      <stop offset="75%" style="stop-color:#CBD5E1;stop-opacity:1" />
      <stop offset="100%" style="stop-color:#94A3B8;stop-opacity:1" />
    </linearGradient>
    <!-- Handle -->
    <linearGradient id="handle2" x1="0%" y1="0%" x2="100%" y2="100%">
      <stop offset="0%" style="stop-color:#1E293B;stop-opacity:1" />
      <stop offset="100%" style="stop-color:#0F172A;stop-opacity:1" />
    </linearGradient>
    <!-- Velocity streak -->
    <filter id="velocityStreak2">
      <feGaussianBlur in="SourceGraphic" stdDeviation="3,0.8"/>
    </filter>
    <!-- Chrome reflection effect -->
    <linearGradient id="chromeReflect2" x1="0%" y1="0%" x2="100%" y2="0%">
      <stop offset="0%" style="stop-color:#F8FAFC;stop-opacity:1" />
      <stop offset="50%" style="stop-color:#CBD5E1;stop-opacity:0.3" />
      <stop offset="100%" style="stop-color:#F8FAFC;stop-opacity:1" />
    </linearGradient>
    <!-- Electric energy glow -->
    <radialGradient id="electricGlow2" cx="50%" cy="50%">
      <stop offset="0%" style="stop-color:#DBEAFE;stop-opacity:0.9" />
      <stop offset="40%" style="stop-color:#3B82F6;stop-opacity:0.6" />
      <stop offset="100%" style="stop-color:#1E40AF;stop-opacity:0" />
    </radialGradient>
  </defs>
  
  <!-- Anvil -->
  <path d="M 18,78 L 28,75 L 72,75 L 82,78 L 78,88 L 22,88 Z" fill="#1E293B"/>
  <rect x="30" y="72" width="40" height="6" rx="2" fill="#374151"/>
  
  <!-- Electric impact field -->
  <ellipse cx="52" cy="75" rx="28" ry="16" fill="url(#electricGlow2)" opacity="0.7"/>
  
  <!-- Velocity streaks (multiple layers for depth) -->
  <g opacity="0.6" filter="url(#velocityStreak2)">
    <rect x="45" y="8" width="6" height="55" fill="#3B82F6" transform="rotate(-42 48 35.5)"/>
    <rect x="43" y="5" width="6" height="55" fill="#60A5FA" transform="rotate(-40 46 32.5)"/>
    <rect x="41" y="2" width="6" height="55" fill="#93C5FD" transform="rotate(-38 44 29.5)"/>
  </g>
  
  <!-- Main hammer with dynamic positioning -->
  <g transform="rotate(-42 50 38)">
    <!-- Handle with grip -->
    <rect x="47" y="8" width="6" height="52" rx="3" fill="url(#handle2)"/>
    <!-- Ergonomic grip sections -->
    <ellipse cx="50" y="22" rx="4" ry="2" fill="#374151"/>
    <ellipse cx="50" y="28" rx="4" ry="2" fill="#374151"/>
    <ellipse cx="50" y="34" rx="4" ry="2" fill="#374151"/>
    <!-- Hammer head with chrome finish -->
    <rect x="35" y="2" width="30" height="18" rx="4" fill="url(#hammerChrome2)"/>
    <!-- Chrome reflection highlight -->
    <rect x="37" y="4" width="26" height="4" rx="2" fill="url(#chromeReflect2)" opacity="0.8"/>
    <!-- Impact face detail -->
    <rect x="38" y="14" width="24" height="2" fill="#94A3B8"/>
  </g>
  
  <!-- Dynamic spark constellation -->
  <circle cx="52" cy="73" r="2.5" fill="#DBEAFE">
    <animate attributeName="r" values="2.5;1.5;2.5" dur="0.6s" repeatCount="indefinite"/>
  </circle>
  <circle cx="45" cy="70" r="1.8" fill="#60A5FA" opacity="0.9"/>
  <circle cx="59" cy="70" r="1.8" fill="#60A5FA" opacity="0.9"/>
  <circle cx="39" cy="72" r="1.2" fill="#93C5FD" opacity="0.8"/>
  <circle cx="65" cy="72" r="1.2" fill="#93C5FD" opacity="0.8"/>
  <circle cx="48" cy="66" r="0.8" fill="#DBEAFE" opacity="0.7"/>
  <circle cx="56" cy="66" r="0.8" fill="#DBEAFE" opacity="0.7"/>
  
  <!-- Energy discharge lines -->
  <line x1="52" y1="73" x2="42" y2="65" stroke="#3B82F6" stroke-width="0.5" opacity="0.6"/>
  <line x1="52" y1="73" x2="62" y2="65" stroke="#3B82F6" stroke-width="0.5" opacity="0.6"/>
  <line x1="52" y1="73" x2="35" y2="74" stroke="#60A5FA" stroke-width="0.3" opacity="0.5"/>
  <line x1="52" y1="73" x2="69" y2="74" stroke="#60A5FA" stroke-width="0.3" opacity="0.5"/>
</svg>