<svg viewBox="0 0 100 100" xmlns="http://www.w3.org/2000/svg">
  <defs>
    <!-- Golden hammer gradient -->
    <linearGradient id="hammerGold1" x1="0%" y1="0%" x2="100%" y2="100%">
      <stop offset="0%" style="stop-color:#FEF3C7;stop-opacity:1" />
      <stop offset="30%" style="stop-color:#F59E0B;stop-opacity:1" />
      <stop offset="70%" style="stop-color:#D97706;stop-opacity:1" />
      <stop offset="100%" style="stop-color:#92400E;stop-opacity:1" />
    </linearGradient>
    <!-- Handle gradient -->
    <linearGradient id="handle1" x1="0%" y1="0%" x2="100%" y2="100%">
      <stop offset="0%" style="stop-color:#374151;stop-opacity:1" />
      <stop offset="50%" style="stop-color:#1F2937;stop-opacity:1" />
      <stop offset="100%" style="stop-color:#111827;stop-opacity:1" />
    </linearGradient>
    <!-- Motion blur filter -->
    <filter id="motionBlur1">
      <feGaussianBlur in="SourceGraphic" stdDeviation="2,0.5"/>
    </filter>
    <!-- Impact glow -->
    <radialGradient id="impactGlow1" cx="50%" cy="50%">
      <stop offset="0%" style="stop-color:#FEF3C7;stop-opacity:0.9" />
      <stop offset="30%" style="stop-color:#F59E0B;stop-opacity:0.6" />
      <stop offset="70%" style="stop-color:#D97706;stop-opacity:0.3" />
      <stop offset="100%" style="stop-color:#92400E;stop-opacity:0" />
    </radialGradient>
    <!-- Energy trail filter -->
    <filter id="energyTrail1">
      <feGaussianBlur in="SourceGraphic" stdDeviation="1.5,0.3"/>
    </filter>
  </defs>
  
  <!-- Anvil base -->
  <path d="M 15,75 L 25,72 L 75,72 L 85,75 L 80,85 L 20,85 Z" fill="#1E293B"/>
  <rect x="27" y="69" width="46" height="6" rx="2" fill="#374151"/>
  
  <!-- Impact energy burst -->
  <ellipse cx="55" cy="72" rx="30" ry="18" fill="url(#impactGlow1)" opacity="0.8"/>
  
  <!-- Motion trail (behind hammer) -->
  <g opacity="0.4" filter="url(#energyTrail1)">
    <rect x="48" y="15" width="8" height="45" fill="#F59E0B" transform="rotate(-35 52 37.5)"/>
    <rect x="46" y="12" width="8" height="45" fill="#F59E0B" transform="rotate(-33 50 34.5)"/>
    <rect x="44" y="9" width="8" height="45" fill="#F59E0B" transform="rotate(-31 48 31.5)"/>
  </g>
  
  <!-- Main hammer with subtle motion blur -->
  <g transform="rotate(-35 50 40)" filter="url(#motionBlur1)">
    <!-- Handle -->
    <rect x="46" y="15" width="8" height="50" rx="4" fill="url(#handle1)"/>
    <!-- Grip texture -->
    <rect x="47.5" y="25" width="5" height="1" fill="#6B7280" opacity="0.6"/>
    <rect x="47.5" y="28" width="5" height="1" fill="#6B7280" opacity="0.6"/>
    <rect x="47.5" y="31" width="5" height="1" fill="#6B7280" opacity="0.6"/>
    <rect x="47.5" y="34" width="5" height="1" fill="#6B7280" opacity="0.6"/>
    <!-- Hammer head -->
    <rect x="38" y="8" width="24" height="16" rx="3" fill="url(#hammerGold1)"/>
    <!-- Head detail lines -->
    <rect x="40" y="12" width="20" height="1" fill="#FEF3C7" opacity="0.7"/>
    <rect x="40" y="18" width="20" height="1" fill="#92400E" opacity="0.6"/>
  </g>
  
  <!-- Impact sparks with directional motion -->
  <circle cx="55" cy="70" r="3" fill="#FEF3C7">
    <animate attributeName="opacity" values="1;0.3;1" dur="0.8s" repeatCount="indefinite"/>
  </circle>
  <circle cx="48" cy="67" r="2" fill="#F59E0B" opacity="0.8"/>
  <circle cx="62" cy="67" r="2" fill="#F59E0B" opacity="0.8"/>
  <circle cx="41" cy="69" r="1.5" fill="#D97706" opacity="0.7"/>
  <circle cx="69" cy="69" r="1.5" fill="#D97706" opacity="0.7"/>
  <circle cx="44" cy="63" r="1" fill="#FEF3C7" opacity="0.6"/>
  <circle cx="66" cy="63" r="1" fill="#FEF3C7" opacity="0.6"/>
  <circle cx="38" cy="72" r="0.8" fill="#F59E0B" opacity="0.5"/>
  <circle cx="72" cy="72" r="0.8" fill="#F59E0B" opacity="0.5"/>
  
  <!-- Energy particles trailing upward -->
  <circle cx="52" cy="55" r="0.5" fill="#FEF3C7" opacity="0.4"/>
  <circle cx="48" cy="50" r="0.5" fill="#F59E0B" opacity="0.3"/>
  <circle cx="56" cy="52" r="0.5" fill="#D97706" opacity="0.3"/>
</svg>