<svg viewBox="0 0 100 100" xmlns="http://www.w3.org/2000/svg">
  <defs>
    <!-- Forging heat gradient -->
    <linearGradient id="forgeHeat3" x1="0%" y1="0%" x2="100%" y2="100%">
      <stop offset="0%" style="stop-color:#FEF3C7;stop-opacity:1" />
      <stop offset="20%" style="stop-color:#FDE047;stop-opacity:1" />
      <stop offset="60%" style="stop-color:#F97316;stop-opacity:1" />
      <stop offset="100%" style="stop-color:#DC2626;stop-opacity:1" />
    </linearGradient>
    <!-- Handle -->
    <linearGradient id="handle3" x1="0%" y1="0%" x2="100%" y2="100%">
      <stop offset="0%" style="stop-color:#451A03;stop-opacity:1" />
      <stop offset="50%" style="stop-color:#92400E;stop-opacity:1" />
      <stop offset="100%" style="stop-color:#451A03;stop-opacity:1" />
    </linearGradient>
    <!-- Forge glow effect -->
    <radialGradient id="forgeGlow3" cx="50%" cy="50%">
      <stop offset="0%" style="stop-color:#FBBF24;stop-opacity:1" />
      <stop offset="30%" style="stop-color:#F97316;stop-opacity:0.8" />
      <stop offset="60%" style="stop-color:#DC2626;stop-opacity:0.4" />
      <stop offset="100%" style="stop-color:#7C2D12;stop-opacity:0" />
    </radialGradient>
    <!-- Heat shimmer effect -->
    <filter id="heatShimmer3">
      <feTurbulence baseFrequency="0.02" numOctaves="3"/>
      <feDisplacementMap in="SourceGraphic" scale="1"/>
    </filter>
    <!-- Directional motion blur -->
    <filter id="motionTrail3">
      <feGaussianBlur in="SourceGraphic" stdDeviation="2.5,0.6"/>
    </filter>
  </defs>
  
  <!-- Glowing anvil base -->
  <path d="M 20,76 L 30,73 L 70,73 L 80,76 L 76,86 L 24,86 Z" fill="#451A03"/>
  <rect x="32" y="70" width="36" height="6" rx="2" fill="#92400E"/>
  <!-- Anvil heat glow -->
  <ellipse cx="50" cy="73" rx="18" ry="8" fill="#F97316" opacity="0.3"/>
  
  <!-- Intense forge energy field -->
  <ellipse cx="50" cy="73" rx="35" ry="20" fill="url(#forgeGlow3)" opacity="0.9"/>
  
  <!-- Heat shimmer rising -->
  <g opacity="0.4" filter="url(#heatShimmer3)">
    <rect x="45" y="50" width="10" height="25" fill="#F97316" opacity="0.6"/>
    <rect x="42" y="45" width="6" height="30" fill="#FBBF24" opacity="0.4"/>
    <rect x="52" y="45" width="6" height="30" fill="#FBBF24" opacity="0.4"/>
  </g>
  
  <!-- Motion trails (multiple hammer positions) -->
  <g opacity="0.5" filter="url(#motionTrail3)">
    <rect x="46" y="10" width="8" height="50" fill="#F97316" transform="rotate(-30 50 35)"/>
    <rect x="44" y="5" width="8" height="50" fill="#F97316" transform="rotate(-25 48 30)"/>
    <rect x="42" y="0" width="8" height="50" fill="#F97316" transform="rotate(-20 46 25)"/>
  </g>
  
  <!-- Main hammer at impact moment -->
  <g transform="rotate(-35 50 37)">
    <!-- Wooden handle with leather wrap -->
    <rect x="46" y="10" width="8" height="50" rx="4" fill="url(#handle3)"/>
    <!-- Leather wrap texture -->
    <rect x="47" y="20" width="6" height="2" fill="#7C2D12" opacity="0.8"/>
    <rect x="47" y="25" width="6" height="2" fill="#7C2D12" opacity="0.8"/>
    <rect x="47" y="30" width="6" height="2" fill="#7C2D12" opacity="0.8"/>
    <rect x="47" y="35" width="6" height="2" fill="#7C2D12" opacity="0.8"/>
    <!-- Red-hot hammer head -->
    <rect x="38" y="4" width="24" height="16" rx="3" fill="url(#forgeHeat3)"/>
    <!-- Heat lines on head -->
    <rect x="40" y="8" width="20" height="1" fill="#FEF3C7" opacity="0.9"/>
    <rect x="40" y="14" width="20" height="1" fill="#DC2626" opacity="0.7"/>
  </g>
  
  <!-- Explosive impact sparks -->
  <circle cx="50" cy="71" r="3" fill="#FBBF24">
    <animate attributeName="opacity" values="1;0.4;1" dur="0.4s" repeatCount="indefinite"/>
  </circle>
  <circle cx="43" cy="68" r="2.2" fill="#F97316" opacity="0.9"/>
  <circle cx="57" cy="68" r="2.2" fill="#F97316" opacity="0.9"/>
  <circle cx="36" cy="70" r="1.6" fill="#DC2626" opacity="0.8"/>
  <circle cx="64" cy="70" r="1.6" fill="#DC2626" opacity="0.8"/>
  <circle cx="46" cy="64" r="1" fill="#FBBF24" opacity="0.7"/>
  <circle cx="54" cy="64" r="1" fill="#FBBF24" opacity="0.7"/>
  <circle cx="40" cy="74" r="0.8" fill="#F97316" opacity="0.6"/>
  <circle cx="60" cy="74" r="0.8" fill="#F97316" opacity="0.6"/>
  
  <!-- Molten metal droplets -->
  <circle cx="33" cy="76" r="0.6" fill="#DC2626" opacity="0.8"/>
  <circle cx="67" cy="76" r="0.6" fill="#DC2626" opacity="0.8"/>
  <circle cx="38" cy="78" r="0.4" fill="#F97316" opacity="0.7"/>
  <circle cx="62" cy="78" r="0.4" fill="#F97316" opacity="0.7"/>
  
  <!-- Forge fire particles floating upward -->
  <circle cx="48" cy="58" r="0.5" fill="#FBBF24" opacity="0.5">
    <animateTransform attributeName="transform" type="translate" values="0,0; -2,-10; 0,-20" dur="2s" repeatCount="indefinite"/>
  </circle>
  <circle cx="52" cy="55" r="0.4" fill="#F97316" opacity="0.4">
    <animateTransform attributeName="transform" type="translate" values="0,0; 2,-12; 0,-24" dur="2.2s" repeatCount="indefinite"/>
  </circle>
</svg>