<svg viewBox="0 0 100 100" xmlns="http://www.w3.org/2000/svg">
  <defs>
    <!-- Plasma-forged steel gradient -->
    <linearGradient id="plasma9_03" x1="0%" y1="0%" x2="100%" y2="100%">
      <stop offset="0%" style="stop-color:#F0F9FF;stop-opacity:1" />
      <stop offset="20%" style="stop-color:#7DD3FC;stop-opacity:1" />
      <stop offset="40%" style="stop-color:#0EA5E9;stop-opacity:1" />
      <stop offset="60%" style="stop-color:#0284C7;stop-opacity:1" />
      <stop offset="80%" style="stop-color:#0369A1;stop-opacity:1" />
      <stop offset="100%" style="stop-color:#0C4A6E;stop-opacity:1" />
    </linearGradient>
    <!-- Titanium handle -->
    <linearGradient id="titaniumHandle9_03" x1="0%" y1="0%" x2="100%" y2="100%">
      <stop offset="0%" style="stop-color:#E2E8F0;stop-opacity:1" />
      <stop offset="50%" style="stop-color:#64748B;stop-opacity:1" />
      <stop offset="100%" style="stop-color:#1E293B;stop-opacity:1" />
    </linearGradient>
    <!-- Plasma energy field -->
    <radialGradient id="plasmaField9_03" cx="50%" cy="50%">
      <stop offset="0%" style="stop-color:#F0F9FF;stop-opacity:1" />
      <stop offset="20%" style="stop-color:#7DD3FC;stop-opacity:0.9" />
      <stop offset="40%" style="stop-color:#0EA5E9;stop-opacity:0.7" />
      <stop offset="60%" style="stop-color:#0284C7;stop-opacity:0.5" />
      <stop offset="80%" style="stop-color:#0369A1;stop-opacity:0.2" />
      <stop offset="100%" style="stop-color:#0C4A6E;stop-opacity:0" />
    </radialGradient>
    <!-- Enhanced lightning gradient with moderate orange integration (15%) -->
    <linearGradient id="lightningGrad9_03" x1="0%" y1="0%" x2="100%" y2="100%">
      <stop offset="0%" style="stop-color:#F0F9FF;stop-opacity:1" />
      <stop offset="20%" style="stop-color:#7DD3FC;stop-opacity:0.9" />
      <stop offset="50%" style="stop-color:#0EA5E9;stop-opacity:0.8" />
      <stop offset="75%" style="stop-color:#FF3E00;stop-opacity:0.15" />
      <stop offset="100%" style="stop-color:#F97316;stop-opacity:0.15" />
    </linearGradient>
    <!-- Orange accent gradient - stronger -->
    <linearGradient id="orangeAccent9_03" x1="0%" y1="0%" x2="100%" y2="100%">
      <stop offset="0%" style="stop-color:#F97316;stop-opacity:0.2" />
      <stop offset="50%" style="stop-color:#FF3E00;stop-opacity:0.15" />
      <stop offset="100%" style="stop-color:#CE422B;stop-opacity:0.1" />
    </linearGradient>
    <!-- Pure orange highlights -->
    <linearGradient id="orangeHighlight9_03" x1="0%" y1="0%" x2="100%" y2="100%">
      <stop offset="0%" style="stop-color:#FF3E00;stop-opacity:0.25" />
      <stop offset="100%" style="stop-color:#F97316;stop-opacity:0.2" />
    </linearGradient>
    <!-- Quantum distortion -->
    <filter id="quantumDistort9_03">
      <feTurbulence baseFrequency="0.08" numOctaves="3"/>
      <feDisplacementMap in="SourceGraphic" scale="4"/>
    </filter>
    <!-- Hyper velocity blur -->
    <filter id="hyperVelocity9_03">
      <feGaussianBlur in="SourceGraphic" stdDeviation="4,1.2"/>
    </filter>
    <!-- Energy core glow -->
    <filter id="energyGlow9_03">
      <feGaussianBlur stdDeviation="3"/>
      <feColorMatrix values="1 0 0 0 0  0 1 0 0 0  0 0 1 0 0  0 0 0 1 0"/>
    </filter>
    <!-- Lightning glow filter with moderate orange tint -->
    <filter id="lightningGlow9_03">
      <feGaussianBlur stdDeviation="3"/>
      <feColorMatrix values="1 0 0 0 0  0 1 0 0 0  0 0 1 0 0.15  0 0 0 1 0"/>
    </filter>
  </defs>
  
  <!-- High-tech anvil base -->
  <path d="M 20,78 L 30,75 L 70,75 L 80,78 L 76,88 L 24,88 Z" fill="#0F172A" stroke="#0369A1" stroke-width="0.5"/>
  <rect x="32" y="72" width="36" height="6" rx="2" fill="#1E293B" stroke="#0EA5E9" stroke-width="0.3"/>
  <!-- Tech surface pattern -->
  <rect x="34" y="72" width="32" height="2" fill="#0284C7" opacity="0.6"/>
  <rect x="36" y="74" width="4" height="2" fill="#7DD3FC" opacity="0.4"/>
  <rect x="44" y="74" width="4" height="2" fill="#7DD3FC" opacity="0.4"/>
  <rect x="52" y="74" width="4" height="2" fill="#7DD3FC" opacity="0.4"/>
  <rect x="60" y="74" width="4" height="2" fill="#7DD3FC" opacity="0.4"/>

  <!-- Massive plasma field -->
  <ellipse cx="50" cy="75" rx="40" ry="24" fill="url(#plasmaField9_03)" opacity="0.95"/>

  <!-- Enhanced lightning arc trails with advanced branching patterns -->
  <g opacity="0.8" filter="url(#lightningGlow9_03)">
    <!-- Main arc from left with complex natural curve -->
    <path d="M 15,15 C 18,8 25,6 32,12 C 37,18 40,26 42,36 C 44,46 46,58 48,70 C 49,72 49.5,73.5 50,75" stroke="url(#lightningGrad9_03)" stroke-width="4.5" fill="none"/>
    <!-- Primary branches from left arc -->
    <path d="M 22,14 C 25,18 28,24 31,31 C 33,36 35,41 37,46 C 38,49 39,52 40,55" stroke="url(#lightningGrad9_03)" stroke-width="3" fill="none" opacity="0.85"/>
    <path d="M 35,28 C 38,33 40,38 42,44 C 43,48 44,52 45,56 C 45.5,59 46,62 46.5,65" stroke="url(#orangeAccent9_03)" stroke-width="2.5" fill="none" opacity="0.8"/>
    <!-- Secondary branches with orange highlights -->
    <path d="M 28,22 C 30,25 32,29 34,33 C 35,36 36,39 37,42" stroke="url(#orangeHighlight9_03)" stroke-width="2" fill="none" opacity="0.7"/>
    <path d="M 39,35 C 41,39 42,43 43,47" stroke="url(#orangeHighlight9_03)" stroke-width="1.8" fill="none" opacity="0.7"/>
    
    <!-- Main arc from right with complex natural curve -->
    <path d="M 85,15 C 82,8 75,6 68,12 C 63,18 60,26 58,36 C 56,46 54,58 52,70 C 51,72 50.5,73.5 50,75" stroke="url(#lightningGrad9_03)" stroke-width="4.5" fill="none"/>
    <!-- Primary branches from right arc -->
    <path d="M 78,14 C 75,18 72,24 69,31 C 67,36 65,41 63,46 C 62,49 61,52 60,55" stroke="url(#lightningGrad9_03)" stroke-width="3" fill="none" opacity="0.85"/>
    <path d="M 65,28 C 62,33 60,38 58,44 C 57,48 56,52 55,56 C 54.5,59 54,62 53.5,65" stroke="url(#orangeAccent9_03)" stroke-width="2.5" fill="none" opacity="0.8"/>
    <!-- Secondary branches with orange highlights -->
    <path d="M 72,22 C 70,25 68,29 66,33 C 65,36 64,39 63,42" stroke="url(#orangeHighlight9_03)" stroke-width="2" fill="none" opacity="0.7"/>
    <path d="M 61,35 C 59,39 58,43 57,47" stroke="url(#orangeHighlight9_03)" stroke-width="1.8" fill="none" opacity="0.7"/>
    
    <!-- Central converging arcs with enhanced flow -->
    <path d="M 50,0 C 47,10 46,22 47,35 C 48,48 49,60 49.5,70 C 49.7,72 49.85,73.5 50,75" stroke="url(#lightningGrad9_03)" stroke-width="4" fill="none"/>
    <path d="M 50,0 C 53,10 54,22 53,35 C 52,48 51,60 50.5,70 C 50.3,72 50.15,73.5 50,75" stroke="url(#lightningGrad9_03)" stroke-width="4" fill="none"/>
    <!-- Central secondary branches with orange -->
    <path d="M 47,25 C 45,29 44,34 43,39 C 42,43 41.5,47 41,51" stroke="url(#orangeAccent9_03)" stroke-width="2.2" fill="none" opacity="0.75"/>
    <path d="M 53,25 C 55,29 56,34 57,39 C 58,43 58.5,47 59,51" stroke="url(#orangeAccent9_03)" stroke-width="2.2" fill="none" opacity="0.75"/>
    <!-- Fine detail branches with orange highlights -->
    <path d="M 48,18 C 46,21 45,25 44,28 C 43,31 42,34 41,37" stroke="url(#orangeHighlight9_03)" stroke-width="1.5" fill="none" opacity="0.6"/>
    <path d="M 52,18 C 54,21 55,25 56,28 C 57,31 58,34 59,37" stroke="url(#orangeHighlight9_03)" stroke-width="1.5" fill="none" opacity="0.6"/>
    <!-- Micro-detail branches -->
    <path d="M 45,32 C 43,34 42,36 41,38" stroke="url(#orangeHighlight9_03)" stroke-width="1" fill="none" opacity="0.5"/>
    <path d="M 55,32 C 57,34 58,36 59,38" stroke="url(#orangeHighlight9_03)" stroke-width="1" fill="none" opacity="0.5"/>
  </g>

  <!-- Hyper-velocity motion blur -->
  <g opacity="0.5" filter="url(#hyperVelocity9_03)">
    <rect x="46" y="2" width="8" height="56" fill="#0EA5E9" transform="rotate(-38 50 30)"/>
    <rect x="44" y="-2" width="8" height="56" fill="#0284C7" transform="rotate(-34 48 26)"/>
    <rect x="42" y="-6" width="8" height="56" fill="#0369A1" transform="rotate(-30 46 22)"/>
  </g>

  <!-- Main plasma hammer -->
  <g transform="rotate(-38 50 36)">
    <!-- Titanium handle with tech grip -->
    <rect x="47" y="2" width="6" height="52" rx="3" fill="url(#titaniumHandle9_03)"/>
    <!-- Tech grip pattern -->
    <rect x="47.2" y="12" width="5.6" height="1" fill="#0EA5E9" opacity="0.7"/>
    <rect x="47.2" y="16" width="5.6" height="1" fill="#0EA5E9" opacity="0.7"/>
    <rect x="47.2" y="20" width="5.6" height="1" fill="#0EA5E9" opacity="0.7"/>
    <rect x="47.2" y="24" width="5.6" height="1" fill="#0EA5E9" opacity="0.7"/>
    <rect x="47.2" y="28" width="5.6" height="1" fill="#0EA5E9" opacity="0.7"/>
    <rect x="47.2" y="32" width="5.6" height="1" fill="#0EA5E9" opacity="0.7"/>
    <rect x="47.2" y="36" width="5.6" height="1" fill="#0EA5E9" opacity="0.7"/>
    <!-- Plasma-forged hammer head -->
    <rect x="36" y="-4" width="28" height="18" rx="4" fill="url(#plasma9_03)"/>
    <!-- Energy core -->
    <rect x="38" y="1" width="24" height="3" fill="#F0F9FF" opacity="0.9"/>
    <rect x="38" y="8" width="24" height="3" fill="#0C4A6E" opacity="0.8"/>
    <!-- Tech details -->
    <circle cx="42" cy="5" r="1" fill="#7DD3FC" opacity="0.8"/>
    <circle cx="58" cy="5" r="1" fill="#7DD3FC" opacity="0.8"/>
  </g>

  <!-- Plasma explosion core -->
  <circle cx="50" cy="73" r="5" fill="#F0F9FF" filter="url(#energyGlow9_03)">
    <animate attributeName="r" values="5;3;5" dur="0.4s" repeatCount="indefinite"/>
    <animate attributeName="opacity" values="1;0.7;1" dur="0.4s" repeatCount="indefinite"/>
  </circle>

  <!-- High-energy particle burst -->
  <g opacity="0.9">
    <circle cx="43" cy="70" r="3" fill="#7DD3FC"/>
    <circle cx="57" cy="70" r="3" fill="#7DD3FC"/>
    <circle cx="36" cy="72" r="2.5" fill="#0EA5E9" opacity="0.9"/>
    <circle cx="64" cy="72" r="2.5" fill="#0EA5E9" opacity="0.9"/>
    <circle cx="46" cy="66" r="2" fill="#F0F9FF" opacity="0.8"/>
    <circle cx="54" cy="66" r="2" fill="#F0F9FF" opacity="0.8"/>
    <circle cx="39" cy="76" r="1.5" fill="#0284C7" opacity="0.7"/>
    <circle cx="61" cy="76" r="1.5" fill="#0284C7" opacity="0.7"/>
  </g>

  <!-- Enhanced electrical discharge with multi-level fractal branching -->
  <g filter="url(#lightningGlow9_03)" opacity="0.9">
    <!-- Main discharge branches with organic curves -->
    <path d="M 50,73 C 46,71 40,69 33,67 C 28,65 23,63 17,60 C 20,62 24,64 28,66 C 31,67 34,68 38,70 C 41,71 44,72 47,73" stroke="#F0F9FF" stroke-width="3.5" fill="none"/>
    <path d="M 50,73 C 54,71 60,69 67,67 C 72,65 77,63 83,60 C 80,62 76,64 72,66 C 69,67 66,68 62,70 C 59,71 56,72 53,73" stroke="#F0F9FF" stroke-width="3.5" fill="none"/>
    
    <!-- Primary fractal branches with moderate orange -->
    <path d="M 28,66 C 25,68 22,70 19,72 C 16,74 13,76 10,78 C 12,77 14,76 16,75" stroke="url(#orangeAccent9_03)" stroke-width="2.5" fill="none" opacity="0.85"/>
    <path d="M 72,66 C 75,68 78,70 81,72 C 84,74 87,76 90,78 C 88,77 86,76 84,75" stroke="url(#orangeAccent9_03)" stroke-width="2.5" fill="none" opacity="0.85"/>
    
    <!-- Secondary branches with orange highlights -->
    <path d="M 22,70 C 20,72 18,74 16,76" stroke="url(#orangeHighlight9_03)" stroke-width="2" fill="none" opacity="0.8"/>
    <path d="M 78,70 C 80,72 82,74 84,76" stroke="url(#orangeHighlight9_03)" stroke-width="2" fill="none" opacity="0.8"/>
    
    <!-- Upward discharges with complex branching -->
    <path d="M 50,73 C 48,68 45,62 41,55 C 38,49 35,43 31,36 C 33,39 35,42 38,46 C 40,50 42,54 44,59 C 46,63 47,67 48,71" stroke="#7DD3FC" stroke-width="3" fill="none"/>
    <path d="M 50,73 C 52,68 55,62 59,55 C 62,49 65,43 69,36 C 67,39 65,42 62,46 C 60,50 58,54 56,59 C 54,63 53,67 52,71" stroke="#7DD3FC" stroke-width="3" fill="none"/>
    
    <!-- Tertiary upward branches with orange -->
    <path d="M 38,50 C 36,48 34,46 32,44 C 30,42 28,40 26,38" stroke="url(#orangeAccent9_03)" stroke-width="2" fill="none" opacity="0.8"/>
    <path d="M 62,50 C 64,48 66,46 68,44 C 70,42 72,40 74,38" stroke="url(#orangeAccent9_03)" stroke-width="2" fill="none" opacity="0.8"/>
    
    <!-- Fine detail fractal sparks -->
    <path d="M 35,58 C 33,56 31,54 29,52 C 27,50 25,48 23,46" stroke="url(#orangeHighlight9_03)" stroke-width="1.5" fill="none" opacity="0.7"/>
    <path d="M 65,58 C 67,56 69,54 71,52 C 73,50 75,48 77,46" stroke="url(#orangeHighlight9_03)" stroke-width="1.5" fill="none" opacity="0.7"/>
    
    <!-- Micro-fractal details -->
    <path d="M 30,55 C 28,53 26,51 24,49" stroke="url(#orangeHighlight9_03)" stroke-width="1" fill="none" opacity="0.6"/>
    <path d="M 70,55 C 72,53 74,51 76,49" stroke="url(#orangeHighlight9_03)" stroke-width="1" fill="none" opacity="0.6"/>
  </g>

  <!-- Plasma wave rings -->
  <g opacity="0.4">
    <circle cx="50" cy="75" r="18" fill="none" stroke="#0EA5E9" stroke-width="1.5">
      <animate attributeName="r" values="18;25;18" dur="1.5s" repeatCount="indefinite"/>
      <animate attributeName="opacity" values="0.4;0.1;0.4" dur="1.5s" repeatCount="indefinite"/>
    </circle>
    <circle cx="50" cy="75" r="26" fill="none" stroke="#0284C7" stroke-width="1.2">
      <animate attributeName="r" values="26;33;26" dur="1.8s" repeatCount="indefinite"/>
      <animate attributeName="opacity" values="0.4;0.1;0.4" dur="1.8s" repeatCount="indefinite"/>
    </circle>
    <circle cx="50" cy="75" r="34" fill="none" stroke="#0369A1" stroke-width="0.8">
      <animate attributeName="r" values="34;41;34" dur="2.1s" repeatCount="indefinite"/>
      <animate attributeName="opacity" values="0.4;0.1;0.4" dur="2.1s" repeatCount="indefinite"/>
    </circle>
  </g>

  <!-- Energy matrix particles -->
  <g opacity="0.6">
    <rect x="28" y="76" width="2" height="2" fill="#7DD3FC" opacity="0.8">
      <animateTransform attributeName="transform" type="rotate" values="0 29 77;360 29 77" dur="3s" repeatCount="indefinite"/>
    </rect>
    <rect x="70" y="76" width="2" height="2" fill="#7DD3FC" opacity="0.8">
      <animateTransform attributeName="transform" type="rotate" values="0 71 77;360 71 77" dur="3s" repeatCount="indefinite"/>
    </rect>
    <rect x="44" y="58" width="1.5" height="1.5" fill="#0EA5E9" opacity="0.7">
      <animateTransform attributeName="transform" type="rotate" values="0 44.75 58.75;360 44.75 58.75" dur="2.5s" repeatCount="indefinite"/>
    </rect>
    <rect x="54" y="58" width="1.5" height="1.5" fill="#0EA5E9" opacity="0.7">
      <animateTransform attributeName="transform" type="rotate" values="0 54.75 58.75;360 54.75 58.75" dur="2.5s" repeatCount="indefinite"/>
    </rect>
  </g>
</svg>