<svg viewBox="0 0 100 100" xmlns="http://www.w3.org/2000/svg">
  <defs>
    <!-- Plasma-forged steel gradient -->
    <linearGradient id="plasma9_04" x1="0%" y1="0%" x2="100%" y2="100%">
      <stop offset="0%" style="stop-color:#F0F9FF;stop-opacity:1" />
      <stop offset="20%" style="stop-color:#7DD3FC;stop-opacity:1" />
      <stop offset="40%" style="stop-color:#0EA5E9;stop-opacity:1" />
      <stop offset="60%" style="stop-color:#0284C7;stop-opacity:1" />
      <stop offset="80%" style="stop-color:#0369A1;stop-opacity:1" />
      <stop offset="100%" style="stop-color:#0C4A6E;stop-opacity:1" />
    </linearGradient>
    <!-- Titanium handle -->
    <linearGradient id="titaniumHandle9_04" x1="0%" y1="0%" x2="100%" y2="100%">
      <stop offset="0%" style="stop-color:#E2E8F0;stop-opacity:1" />
      <stop offset="50%" style="stop-color:#64748B;stop-opacity:1" />
      <stop offset="100%" style="stop-color:#1E293B;stop-opacity:1" />
    </linearGradient>
    <!-- Plasma energy field -->
    <radialGradient id="plasmaField9_04" cx="50%" cy="50%">
      <stop offset="0%" style="stop-color:#F0F9FF;stop-opacity:1" />
      <stop offset="20%" style="stop-color:#7DD3FC;stop-opacity:0.9" />
      <stop offset="40%" style="stop-color:#0EA5E9;stop-opacity:0.7" />
      <stop offset="60%" style="stop-color:#0284C7;stop-opacity:0.5" />
      <stop offset="80%" style="stop-color:#0369A1;stop-opacity:0.2" />
      <stop offset="100%" style="stop-color:#0C4A6E;stop-opacity:0" />
    </radialGradient>
    <!-- Enhanced lightning gradient with bold orange highlights (25%) -->
    <linearGradient id="lightningGrad9_04" x1="0%" y1="0%" x2="100%" y2="100%">
      <stop offset="0%" style="stop-color:#F0F9FF;stop-opacity:1" />
      <stop offset="15%" style="stop-color:#7DD3FC;stop-opacity:0.9" />
      <stop offset="40%" style="stop-color:#0EA5E9;stop-opacity:0.8" />
      <stop offset="65%" style="stop-color:#FF3E00;stop-opacity:0.25" />
      <stop offset="100%" style="stop-color:#F97316;stop-opacity:0.25" />
    </linearGradient>
    <!-- Orange accent gradient - bold -->
    <linearGradient id="orangeAccent9_04" x1="0%" y1="0%" x2="100%" y2="100%">
      <stop offset="0%" style="stop-color:#F97316;stop-opacity:0.3" />
      <stop offset="50%" style="stop-color:#FF3E00;stop-opacity:0.25" />
      <stop offset="100%" style="stop-color:#CE422B;stop-opacity:0.2" />
    </linearGradient>
    <!-- Bold orange highlights -->
    <linearGradient id="orangeHighlight9_04" x1="0%" y1="0%" x2="100%" y2="100%">
      <stop offset="0%" style="stop-color:#FF3E00;stop-opacity:0.35" />
      <stop offset="100%" style="stop-color:#F97316;stop-opacity:0.3" />
    </linearGradient>
    <!-- Pure orange energy -->
    <linearGradient id="orangeEnergy9_04" x1="0%" y1="0%" x2="100%" y2="100%">
      <stop offset="0%" style="stop-color:#FF3E00;stop-opacity:0.4" />
      <stop offset="50%" style="stop-color:#F97316;stop-opacity:0.35" />
      <stop offset="100%" style="stop-color:#CE422B;stop-opacity:0.25" />
    </linearGradient>
    <!-- Quantum distortion -->
    <filter id="quantumDistort9_04">
      <feTurbulence baseFrequency="0.08" numOctaves="3"/>
      <feDisplacementMap in="SourceGraphic" scale="4"/>
    </filter>
    <!-- Hyper velocity blur -->
    <filter id="hyperVelocity9_04">
      <feGaussianBlur in="SourceGraphic" stdDeviation="4,1.2"/>
    </filter>
    <!-- Energy core glow -->
    <filter id="energyGlow9_04">
      <feGaussianBlur stdDeviation="3"/>
      <feColorMatrix values="1 0 0 0 0  0 1 0 0 0  0 0 1 0 0  0 0 0 1 0"/>
    </filter>
    <!-- Lightning glow filter with bold orange tint -->
    <filter id="lightningGlow9_04">
      <feGaussianBlur stdDeviation="3.5"/>
      <feColorMatrix values="1 0 0 0 0  0 1 0 0 0  0 0 1 0 0.25  0 0 0 1 0"/>
    </filter>
  </defs>
  
  <!-- High-tech anvil base -->
  <path d="M 20,78 L 30,75 L 70,75 L 80,78 L 76,88 L 24,88 Z" fill="#0F172A" stroke="#0369A1" stroke-width="0.5"/>
  <rect x="32" y="72" width="36" height="6" rx="2" fill="#1E293B" stroke="#0EA5E9" stroke-width="0.3"/>
  <!-- Tech surface pattern -->
  <rect x="34" y="72" width="32" height="2" fill="#0284C7" opacity="0.6"/>
  <rect x="36" y="74" width="4" height="2" fill="#7DD3FC" opacity="0.4"/>
  <rect x="44" y="74" width="4" height="2" fill="#7DD3FC" opacity="0.4"/>
  <rect x="52" y="74" width="4" height="2" fill="#7DD3FC" opacity="0.4"/>
  <rect x="60" y="74" width="4" height="2" fill="#7DD3FC" opacity="0.4"/>

  <!-- Massive plasma field -->
  <ellipse cx="50" cy="75" rx="40" ry="24" fill="url(#plasmaField9_04)" opacity="0.95"/>

  <!-- Enhanced lightning arc trails with dramatic branching and bold orange -->
  <g opacity="0.85" filter="url(#lightningGlow9_04)">
    <!-- Main arc from left with dramatic natural curve -->
    <path d="M 15,15 C 16,6 22,4 30,9 C 36,14 39,21 41,30 C 43,39 45,49 47,60 C 48,65 49,70 49.2,72 C 49.6,73.5 49.8,74.2 50,75" stroke="url(#lightningGrad9_04)" stroke-width="5" fill="none"/>
    <!-- Primary branches from left arc with bold orange -->
    <path d="M 20,12 C 23,16 26,22 29,29 C 31,34 33,39 35,45 C 36,48 37,52 38,56 C 38.5,58 39,60 39.5,62" stroke="url(#orangeAccent9_04)" stroke-width="3.5" fill="none" opacity="0.9"/>
    <path d="M 32,25 C 35,30 37,36 39,42 C 40,46 41,50 42,54 C 42.5,57 43,60 43.5,63 C 44,65 44.3,66.5 44.5,68" stroke="url(#orangeHighlight9_04)" stroke-width="3" fill="none" opacity="0.85"/>
    <!-- Secondary branches with bold orange highlights -->
    <path d="M 25,20 C 27,23 29,27 31,31 C 32,34 33,37 34,40 C 34.5,42 35,44 35.5,46" stroke="url(#orangeEnergy9_04)" stroke-width="2.5" fill="none" opacity="0.8"/>
    <path d="M 36,32 C 38,36 39,40 40,44 C 40.5,46 41,48 41.5,50" stroke="url(#orangeEnergy9_04)" stroke-width="2.2" fill="none" opacity="0.8"/>
    
    <!-- Main arc from right with dramatic natural curve -->
    <path d="M 85,15 C 84,6 78,4 70,9 C 64,14 61,21 59,30 C 57,39 55,49 53,60 C 52,65 51,70 50.8,72 C 50.4,73.5 50.2,74.2 50,75" stroke="url(#lightningGrad9_04)" stroke-width="5" fill="none"/>
    <!-- Primary branches from right arc with bold orange -->
    <path d="M 80,12 C 77,16 74,22 71,29 C 69,34 67,39 65,45 C 64,48 63,52 62,56 C 61.5,58 61,60 60.5,62" stroke="url(#orangeAccent9_04)" stroke-width="3.5" fill="none" opacity="0.9"/>
    <path d="M 68,25 C 65,30 63,36 61,42 C 60,46 59,50 58,54 C 57.5,57 57,60 56.5,63 C 56,65 55.7,66.5 55.5,68" stroke="url(#orangeHighlight9_04)" stroke-width="3" fill="none" opacity="0.85"/>
    <!-- Secondary branches with bold orange highlights -->
    <path d="M 75,20 C 73,23 71,27 69,31 C 68,34 67,37 66,40 C 65.5,42 65,44 64.5,46" stroke="url(#orangeEnergy9_04)" stroke-width="2.5" fill="none" opacity="0.8"/>
    <path d="M 64,32 C 62,36 61,40 60,44 C 59.5,46 59,48 58.5,50" stroke="url(#orangeEnergy9_04)" stroke-width="2.2" fill="none" opacity="0.8"/>
    
    <!-- Central converging arcs with dramatic flow and orange integration -->
    <path d="M 50,0 C 48,8 47,18 48,29 C 49,40 49.5,52 49.7,63 C 49.8,68 49.9,71 49.95,73 C 49.97,74 49.98,74.5 50,75" stroke="url(#lightningGrad9_04)" stroke-width="4.5" fill="none"/>
    <path d="M 50,0 C 52,8 53,18 52,29 C 51,40 50.5,52 50.3,63 C 50.2,68 50.1,71 50.05,73 C 50.03,74 50.02,74.5 50,75" stroke="url(#lightningGrad9_04)" stroke-width="4.5" fill="none"/>
    <!-- Central secondary branches with bold orange -->
    <path d="M 48,22 C 46,26 45,31 44,36 C 43,41 42.5,46 42,51 C 41.5,54 41.2,57 41,60" stroke="url(#orangeAccent9_04)" stroke-width="2.8" fill="none" opacity="0.85"/>
    <path d="M 52,22 C 54,26 55,31 56,36 C 57,41 57.5,46 58,51 C 58.5,54 58.8,57 59,60" stroke="url(#orangeAccent9_04)" stroke-width="2.8" fill="none" opacity="0.85"/>
    <!-- Fine detail branches with prominent orange -->
    <path d="M 47,16 C 45,19 44,23 43,27 C 42,30 41,33 40,36 C 39,39 38.5,42 38,45" stroke="url(#orangeHighlight9_04)" stroke-width="2.2" fill="none" opacity="0.75"/>
    <path d="M 53,16 C 55,19 56,23 57,27 C 58,30 59,33 60,36 C 61,39 61.5,42 62,45" stroke="url(#orangeHighlight9_04)" stroke-width="2.2" fill="none" opacity="0.75"/>
    <!-- Micro-detail branches with orange energy -->
    <path d="M 44,28 C 42,30 41,33 40,36 C 39,38 38.5,40 38,42" stroke="url(#orangeEnergy9_04)" stroke-width="1.8" fill="none" opacity="0.7"/>
    <path d="M 56,28 C 58,30 59,33 60,36 C 61,38 61.5,40 62,42" stroke="url(#orangeEnergy9_04)" stroke-width="1.8" fill="none" opacity="0.7"/>
    <!-- Ultra-fine branches -->
    <path d="M 41,35 C 39,37 38,39 37,41" stroke="url(#orangeEnergy9_04)" stroke-width="1.2" fill="none" opacity="0.6"/>
    <path d="M 59,35 C 61,37 62,39 63,41" stroke="url(#orangeEnergy9_04)" stroke-width="1.2" fill="none" opacity="0.6"/>
  </g>

  <!-- Hyper-velocity motion blur -->
  <g opacity="0.5" filter="url(#hyperVelocity9_04)">
    <rect x="46" y="2" width="8" height="56" fill="#0EA5E9" transform="rotate(-38 50 30)"/>
    <rect x="44" y="-2" width="8" height="56" fill="#0284C7" transform="rotate(-34 48 26)"/>
    <rect x="42" y="-6" width="8" height="56" fill="#0369A1" transform="rotate(-30 46 22)"/>
  </g>

  <!-- Main plasma hammer -->
  <g transform="rotate(-38 50 36)">
    <!-- Titanium handle with tech grip -->
    <rect x="47" y="2" width="6" height="52" rx="3" fill="url(#titaniumHandle9_04)"/>
    <!-- Tech grip pattern -->
    <rect x="47.2" y="12" width="5.6" height="1" fill="#0EA5E9" opacity="0.7"/>
    <rect x="47.2" y="16" width="5.6" height="1" fill="#0EA5E9" opacity="0.7"/>
    <rect x="47.2" y="20" width="5.6" height="1" fill="#0EA5E9" opacity="0.7"/>
    <rect x="47.2" y="24" width="5.6" height="1" fill="#0EA5E9" opacity="0.7"/>
    <rect x="47.2" y="28" width="5.6" height="1" fill="#0EA5E9" opacity="0.7"/>
    <rect x="47.2" y="32" width="5.6" height="1" fill="#0EA5E9" opacity="0.7"/>
    <rect x="47.2" y="36" width="5.6" height="1" fill="#0EA5E9" opacity="0.7"/>
    <!-- Plasma-forged hammer head -->
    <rect x="36" y="-4" width="28" height="18" rx="4" fill="url(#plasma9_04)"/>
    <!-- Energy core -->
    <rect x="38" y="1" width="24" height="3" fill="#F0F9FF" opacity="0.9"/>
    <rect x="38" y="8" width="24" height="3" fill="#0C4A6E" opacity="0.8"/>
    <!-- Tech details -->
    <circle cx="42" cy="5" r="1" fill="#7DD3FC" opacity="0.8"/>
    <circle cx="58" cy="5" r="1" fill="#7DD3FC" opacity="0.8"/>
  </g>

  <!-- Plasma explosion core -->
  <circle cx="50" cy="73" r="5" fill="#F0F9FF" filter="url(#energyGlow9_04)">
    <animate attributeName="r" values="5;3;5" dur="0.4s" repeatCount="indefinite"/>
    <animate attributeName="opacity" values="1;0.7;1" dur="0.4s" repeatCount="indefinite"/>
  </circle>

  <!-- High-energy particle burst -->
  <g opacity="0.9">
    <circle cx="43" cy="70" r="3" fill="#7DD3FC"/>
    <circle cx="57" cy="70" r="3" fill="#7DD3FC"/>
    <circle cx="36" cy="72" r="2.5" fill="#0EA5E9" opacity="0.9"/>
    <circle cx="64" cy="72" r="2.5" fill="#0EA5E9" opacity="0.9"/>
    <circle cx="46" cy="66" r="2" fill="#F0F9FF" opacity="0.8"/>
    <circle cx="54" cy="66" r="2" fill="#F0F9FF" opacity="0.8"/>
    <circle cx="39" cy="76" r="1.5" fill="#0284C7" opacity="0.7"/>
    <circle cx="61" cy="76" r="1.5" fill="#0284C7" opacity="0.7"/>
  </g>

  <!-- Enhanced electrical discharge with dramatic multi-level fractal branching -->
  <g filter="url(#lightningGlow9_04)" opacity="0.95">
    <!-- Main discharge branches with bold organic curves -->
    <path d="M 50,73 C 47,71 42,69 36,67 C 31,65 25,63 18,60 C 14,58 10,56 5,54 C 8,56 12,58 16,60 C 20,62 25,64 30,66 C 34,67 38,68 42,70 C 45,71 47,72 49,73" stroke="#F0F9FF" stroke-width="4" fill="none"/>
    <path d="M 50,73 C 53,71 58,69 64,67 C 69,65 75,63 82,60 C 86,58 90,56 95,54 C 92,56 88,58 84,60 C 80,62 75,64 70,66 C 66,67 62,68 58,70 C 55,71 53,72 51,73" stroke="#F0F9FF" stroke-width="4" fill="none"/>
    
    <!-- Primary fractal branches with bold orange -->
    <path d="M 25,64 C 22,66 18,68 14,70 C 10,72 6,74 2,76 C 4,75 7,74 10,73 C 13,72 16,71 19,70" stroke="url(#orangeAccent9_04)" stroke-width="3" fill="none" opacity="0.9"/>
    <path d="M 75,64 C 78,66 82,68 86,70 C 90,72 94,74 98,76 C 96,75 93,74 90,73 C 87,72 84,71 81,70" stroke="url(#orangeAccent9_04)" stroke-width="3" fill="none" opacity="0.9"/>
    
    <!-- Secondary branches with bold orange highlights -->
    <path d="M 18,68 C 15,70 12,72 9,74 C 6,76 3,78 0,80" stroke="url(#orangeHighlight9_04)" stroke-width="2.5" fill="none" opacity="0.85"/>
    <path d="M 82,68 C 85,70 88,72 91,74 C 94,76 97,78 100,80" stroke="url(#orangeHighlight9_04)" stroke-width="2.5" fill="none" opacity="0.85"/>
    
    <!-- Tertiary micro-branches -->
    <path d="M 12,72 C 10,74 8,76 6,78" stroke="url(#orangeEnergy9_04)" stroke-width="2" fill="none" opacity="0.8"/>
    <path d="M 88,72 C 90,74 92,76 94,78" stroke="url(#orangeEnergy9_04)" stroke-width="2" fill="none" opacity="0.8"/>
    
    <!-- Upward discharges with dramatic complex branching -->
    <path d="M 50,73 C 49,69 47,64 44,58 C 41,52 38,46 34,39 C 31,33 28,27 24,20 C 26,23 28,27 31,31 C 34,36 37,41 40,47 C 42,52 44,57 46,62 C 47,66 48,69 49,72" stroke="#7DD3FC" stroke-width="3.5" fill="none"/>
    <path d="M 50,73 C 51,69 53,64 56,58 C 59,52 62,46 66,39 C 69,33 72,27 76,20 C 74,23 72,27 69,31 C 66,36 63,41 60,47 C 58,52 56,57 54,62 C 53,66 52,69 51,72" stroke="#7DD3FC" stroke-width="3.5" fill="none"/>
    
    <!-- Primary upward branches with bold orange -->
    <path d="M 34,42 C 32,40 30,38 28,36 C 26,34 24,32 22,30 C 20,28 18,26 16,24" stroke="url(#orangeAccent9_04)" stroke-width="2.8" fill="none" opacity="0.9"/>
    <path d="M 66,42 C 68,40 70,38 72,36 C 74,34 76,32 78,30 C 80,28 82,26 84,24" stroke="url(#orangeAccent9_04)" stroke-width="2.8" fill="none" opacity="0.9"/>
    
    <!-- Secondary upward branches with orange highlights -->
    <path d="M 28,38 C 26,36 24,34 22,32 C 20,30 18,28 16,26" stroke="url(#orangeHighlight9_04)" stroke-width="2.3" fill="none" opacity="0.85"/>
    <path d="M 72,38 C 74,36 76,34 78,32 C 80,30 82,28 84,26" stroke="url(#orangeHighlight9_04)" stroke-width="2.3" fill="none" opacity="0.85"/>
    
    <!-- Fine detail fractal sparks with orange energy -->
    <path d="M 31,50 C 29,48 27,46 25,44 C 23,42 21,40 19,38 C 17,36 15,34 13,32" stroke="url(#orangeEnergy9_04)" stroke-width="2" fill="none" opacity="0.8"/>
    <path d="M 69,50 C 71,48 73,46 75,44 C 77,42 79,40 81,38 C 83,36 85,34 87,32" stroke="url(#orangeEnergy9_04)" stroke-width="2" fill="none" opacity="0.8"/>
    
    <!-- Micro-fractal details -->
    <path d="M 26,47 C 24,45 22,43 20,41 C 18,39 16,37 14,35" stroke="url(#orangeEnergy9_04)" stroke-width="1.5" fill="none" opacity="0.7"/>
    <path d="M 74,47 C 76,45 78,43 80,41 C 82,39 84,37 86,35" stroke="url(#orangeEnergy9_04)" stroke-width="1.5" fill="none" opacity="0.7"/>
  </g>

  <!-- Plasma wave rings -->
  <g opacity="0.4">
    <circle cx="50" cy="75" r="18" fill="none" stroke="#0EA5E9" stroke-width="1.5">
      <animate attributeName="r" values="18;25;18" dur="1.5s" repeatCount="indefinite"/>
      <animate attributeName="opacity" values="0.4;0.1;0.4" dur="1.5s" repeatCount="indefinite"/>
    </circle>
    <circle cx="50" cy="75" r="26" fill="none" stroke="#0284C7" stroke-width="1.2">
      <animate attributeName="r" values="26;33;26" dur="1.8s" repeatCount="indefinite"/>
      <animate attributeName="opacity" values="0.4;0.1;0.4" dur="1.8s" repeatCount="indefinite"/>
    </circle>
    <circle cx="50" cy="75" r="34" fill="none" stroke="#0369A1" stroke-width="0.8">
      <animate attributeName="r" values="34;41;34" dur="2.1s" repeatCount="indefinite"/>
      <animate attributeName="opacity" values="0.4;0.1;0.4" dur="2.1s" repeatCount="indefinite"/>
    </circle>
  </g>

  <!-- Energy matrix particles -->
  <g opacity="0.6">
    <rect x="28" y="76" width="2" height="2" fill="#7DD3FC" opacity="0.8">
      <animateTransform attributeName="transform" type="rotate" values="0 29 77;360 29 77" dur="3s" repeatCount="indefinite"/>
    </rect>
    <rect x="70" y="76" width="2" height="2" fill="#7DD3FC" opacity="0.8">
      <animateTransform attributeName="transform" type="rotate" values="0 71 77;360 71 77" dur="3s" repeatCount="indefinite"/>
    </rect>
    <rect x="44" y="58" width="1.5" height="1.5" fill="#0EA5E9" opacity="0.7">
      <animateTransform attributeName="transform" type="rotate" values="0 44.75 58.75;360 44.75 58.75" dur="2.5s" repeatCount="indefinite"/>
    </rect>
    <rect x="54" y="58" width="1.5" height="1.5" fill="#0EA5E9" opacity="0.7">
      <animateTransform attributeName="transform" type="rotate" values="0 54.75 58.75;360 54.75 58.75" dur="2.5s" repeatCount="indefinite"/>
    </rect>
  </g>
</svg>