<svg viewBox="0 0 100 100" xmlns="http://www.w3.org/2000/svg">
  <defs>
    <!-- Plasma-forged steel gradient -->
    <linearGradient id="plasma9_05" x1="0%" y1="0%" x2="100%" y2="100%">
      <stop offset="0%" style="stop-color:#F0F9FF;stop-opacity:1" />
      <stop offset="20%" style="stop-color:#7DD3FC;stop-opacity:1" />
      <stop offset="40%" style="stop-color:#0EA5E9;stop-opacity:1" />
      <stop offset="60%" style="stop-color:#0284C7;stop-opacity:1" />
      <stop offset="80%" style="stop-color:#0369A1;stop-opacity:1" />
      <stop offset="100%" style="stop-color:#0C4A6E;stop-opacity:1" />
    </linearGradient>
    <!-- Titanium handle -->
    <linearGradient id="titaniumHandle9_05" x1="0%" y1="0%" x2="100%" y2="100%">
      <stop offset="0%" style="stop-color:#E2E8F0;stop-opacity:1" />
      <stop offset="50%" style="stop-color:#64748B;stop-opacity:1" />
      <stop offset="100%" style="stop-color:#1E293B;stop-opacity:1" />
    </linearGradient>
    <!-- Plasma energy field -->
    <radialGradient id="plasmaField9_05" cx="50%" cy="50%">
      <stop offset="0%" style="stop-color:#F0F9FF;stop-opacity:1" />
      <stop offset="20%" style="stop-color:#7DD3FC;stop-opacity:0.9" />
      <stop offset="40%" style="stop-color:#0EA5E9;stop-opacity:0.7" />
      <stop offset="60%" style="stop-color:#0284C7;stop-opacity:0.5" />
      <stop offset="80%" style="stop-color:#0369A1;stop-opacity:0.2" />
      <stop offset="100%" style="stop-color:#0C4A6E;stop-opacity:0" />
    </radialGradient>
    <!-- Enhanced lightning gradient with maximum orange integration (30%) -->
    <linearGradient id="lightningGrad9_05" x1="0%" y1="0%" x2="100%" y2="100%">
      <stop offset="0%" style="stop-color:#F0F9FF;stop-opacity:1" />
      <stop offset="10%" style="stop-color:#7DD3FC;stop-opacity:0.9" />
      <stop offset="30%" style="stop-color:#0EA5E9;stop-opacity:0.8" />
      <stop offset="55%" style="stop-color:#FF3E00;stop-opacity:0.3" />
      <stop offset="100%" style="stop-color:#F97316;stop-opacity:0.3" />
    </linearGradient>
    <!-- Orange accent gradient - maximum -->
    <linearGradient id="orangeAccent9_05" x1="0%" y1="0%" x2="100%" y2="100%">
      <stop offset="0%" style="stop-color:#F97316;stop-opacity:0.4" />
      <stop offset="50%" style="stop-color:#FF3E00;stop-opacity:0.35" />
      <stop offset="100%" style="stop-color:#CE422B;stop-opacity:0.25" />
    </linearGradient>
    <!-- Maximum orange highlights -->
    <linearGradient id="orangeHighlight9_05" x1="0%" y1="0%" x2="100%" y2="100%">
      <stop offset="0%" style="stop-color:#FF3E00;stop-opacity:0.45" />
      <stop offset="100%" style="stop-color:#F97316;stop-opacity:0.4" />
    </linearGradient>
    <!-- Pure orange energy - maximum -->
    <linearGradient id="orangeEnergy9_05" x1="0%" y1="0%" x2="100%" y2="100%">
      <stop offset="0%" style="stop-color:#FF3E00;stop-opacity:0.5" />
      <stop offset="50%" style="stop-color:#F97316;stop-opacity:0.45" />
      <stop offset="100%" style="stop-color:#CE422B;stop-opacity:0.35" />
    </linearGradient>
    <!-- Ultra orange highlights -->
    <linearGradient id="orangeUltra9_05" x1="0%" y1="0%" x2="100%" y2="100%">
      <stop offset="0%" style="stop-color:#FF3E00;stop-opacity:0.6" />
      <stop offset="50%" style="stop-color:#F97316;stop-opacity:0.5" />
      <stop offset="100%" style="stop-color:#CE422B;stop-opacity:0.4" />
    </linearGradient>
    <!-- Quantum distortion -->
    <filter id="quantumDistort9_05">
      <feTurbulence baseFrequency="0.08" numOctaves="3"/>
      <feDisplacementMap in="SourceGraphic" scale="4"/>
    </filter>
    <!-- Hyper velocity blur -->
    <filter id="hyperVelocity9_05">
      <feGaussianBlur in="SourceGraphic" stdDeviation="4,1.2"/>
    </filter>
    <!-- Energy core glow -->
    <filter id="energyGlow9_05">
      <feGaussianBlur stdDeviation="3"/>
      <feColorMatrix values="1 0 0 0 0  0 1 0 0 0  0 0 1 0 0  0 0 0 1 0"/>
    </filter>
    <!-- Lightning glow filter with maximum orange tint -->
    <filter id="lightningGlow9_05">
      <feGaussianBlur stdDeviation="4"/>
      <feColorMatrix values="1 0 0 0 0  0 1 0 0 0  0 0 1 0 0.3  0 0 0 1 0"/>
    </filter>
  </defs>
  
  <!-- High-tech anvil base -->
  <path d="M 20,78 L 30,75 L 70,75 L 80,78 L 76,88 L 24,88 Z" fill="#0F172A" stroke="#0369A1" stroke-width="0.5"/>
  <rect x="32" y="72" width="36" height="6" rx="2" fill="#1E293B" stroke="#0EA5E9" stroke-width="0.3"/>
  <!-- Tech surface pattern -->
  <rect x="34" y="72" width="32" height="2" fill="#0284C7" opacity="0.6"/>
  <rect x="36" y="74" width="4" height="2" fill="#7DD3FC" opacity="0.4"/>
  <rect x="44" y="74" width="4" height="2" fill="#7DD3FC" opacity="0.4"/>
  <rect x="52" y="74" width="4" height="2" fill="#7DD3FC" opacity="0.4"/>
  <rect x="60" y="74" width="4" height="2" fill="#7DD3FC" opacity="0.4"/>

  <!-- Massive plasma field -->
  <ellipse cx="50" cy="75" rx="40" ry="24" fill="url(#plasmaField9_05)" opacity="0.95"/>

  <!-- Enhanced lightning arc trails with maximum branching and orange integration -->
  <g opacity="0.9" filter="url(#lightningGlow9_05)">
    <!-- Main arc from left with ultimate natural curve and orange dominance -->
    <path d="M 15,15 C 14,4 20,2 28,6 C 34,10 37,17 39,26 C 41,35 43,45 45,56 C 46,62 47,67 48,71 C 48.5,72.5 49,73.8 49.3,74.5 C 49.6,74.8 49.8,74.9 50,75" stroke="url(#lightningGrad9_05)" stroke-width="5.5" fill="none"/>
    <!-- Primary branches from left arc with maximum orange -->
    <path d="M 18,10 C 21,14 24,20 27,27 C 29,32 31,37 33,43 C 34,46 35,50 36,54 C 36.5,56 37,58 37.5,60 C 38,62 38.3,63.5 38.5,65" stroke="url(#orangeAccent9_05)" stroke-width="4" fill="none" opacity="0.95"/>
    <path d="M 30,22 C 33,27 35,33 37,39 C 38,43 39,47 40,51 C 40.5,54 41,57 41.5,60 C 42,62 42.3,64 42.5,66 C 42.7,67.5 42.8,68.5 43,69" stroke="url(#orangeHighlight9_05)" stroke-width="3.5" fill="none" opacity="0.9"/>
    <!-- Secondary branches with maximum orange highlights -->
    <path d="M 23,18 C 25,21 27,25 29,29 C 30,32 31,35 32,38 C 32.5,40 33,42 33.5,44 C 34,46 34.2,47.5 34.5,49" stroke="url(#orangeEnergy9_05)" stroke-width="3" fill="none" opacity="0.85"/>
    <path d="M 34,30 C 36,34 37,38 38,42 C 38.5,44 39,46 39.5,48 C 40,50 40.2,51.5 40.5,53" stroke="url(#orangeUltra9_05)" stroke-width="2.7" fill="none" opacity="0.85"/>
    <!-- Tertiary micro-branches with ultra orange -->
    <path d="M 26,25 C 28,28 29,31 30,34" stroke="url(#orangeUltra9_05)" stroke-width="2.3" fill="none" opacity="0.8"/>
    <path d="M 31,36 C 33,39 34,42 35,45" stroke="url(#orangeUltra9_05)" stroke-width="2" fill="none" opacity="0.8"/>
    
    <!-- Main arc from right with ultimate natural curve and orange dominance -->
    <path d="M 85,15 C 86,4 80,2 72,6 C 66,10 63,17 61,26 C 59,35 57,45 55,56 C 54,62 53,67 52,71 C 51.5,72.5 51,73.8 50.7,74.5 C 50.4,74.8 50.2,74.9 50,75" stroke="url(#lightningGrad9_05)" stroke-width="5.5" fill="none"/>
    <!-- Primary branches from right arc with maximum orange -->
    <path d="M 82,10 C 79,14 76,20 73,27 C 71,32 69,37 67,43 C 66,46 65,50 64,54 C 63.5,56 63,58 62.5,60 C 62,62 61.7,63.5 61.5,65" stroke="url(#orangeAccent9_05)" stroke-width="4" fill="none" opacity="0.95"/>
    <path d="M 70,22 C 67,27 65,33 63,39 C 62,43 61,47 60,51 C 59.5,54 59,57 58.5,60 C 58,62 57.7,64 57.5,66 C 57.3,67.5 57.2,68.5 57,69" stroke="url(#orangeHighlight9_05)" stroke-width="3.5" fill="none" opacity="0.9"/>
    <!-- Secondary branches with maximum orange highlights -->
    <path d="M 77,18 C 75,21 73,25 71,29 C 70,32 69,35 68,38 C 67.5,40 67,42 66.5,44 C 66,46 65.8,47.5 65.5,49" stroke="url(#orangeEnergy9_05)" stroke-width="3" fill="none" opacity="0.85"/>
    <path d="M 66,30 C 64,34 63,38 62,42 C 61.5,44 61,46 60.5,48 C 60,50 59.8,51.5 59.5,53" stroke="url(#orangeUltra9_05)" stroke-width="2.7" fill="none" opacity="0.85"/>
    <!-- Tertiary micro-branches with ultra orange -->
    <path d="M 74,25 C 72,28 71,31 70,34" stroke="url(#orangeUltra9_05)" stroke-width="2.3" fill="none" opacity="0.8"/>
    <path d="M 69,36 C 67,39 66,42 65,45" stroke="url(#orangeUltra9_05)" stroke-width="2" fill="none" opacity="0.8"/>
    
    <!-- Central converging arcs with maximum flow and orange dominance -->
    <path d="M 50,0 C 49,6 48,14 49,23 C 49.5,32 50,42 50.2,53 C 50.3,58 50.4,63 50.45,68 C 50.48,71 50.49,73 50.495,74 C 50.497,74.5 50.498,74.8 50,75" stroke="url(#lightningGrad9_05)" stroke-width="5" fill="none"/>
    <path d="M 50,0 C 51,6 52,14 51,23 C 50.5,32 50,42 49.8,53 C 49.7,58 49.6,63 49.55,68 C 49.52,71 49.51,73 49.505,74 C 49.503,74.5 49.502,74.8 50,75" stroke="url(#lightningGrad9_05)" stroke-width="5" fill="none"/>
    <!-- Central secondary branches with maximum orange -->
    <path d="M 49,20 C 47,24 46,29 45,34 C 44,39 43.5,44 43,49 C 42.5,52 42.2,55 42,58 C 41.8,60 41.7,61.5 41.6,63" stroke="url(#orangeAccent9_05)" stroke-width="3.5" fill="none" opacity="0.9"/>
    <path d="M 51,20 C 53,24 54,29 55,34 C 56,39 56.5,44 57,49 C 57.5,52 57.8,55 58,58 C 58.2,60 58.3,61.5 58.4,63" stroke="url(#orangeAccent9_05)" stroke-width="3.5" fill="none" opacity="0.9"/>
    <!-- Fine detail branches with maximum orange -->
    <path d="M 46,14 C 44,17 43,21 42,25 C 41,28 40,31 39,34 C 38,37 37.5,40 37,43 C 36.5,45 36.2,47 36,49" stroke="url(#orangeHighlight9_05)" stroke-width="2.8" fill="none" opacity="0.85"/>
    <path d="M 54,14 C 56,17 57,21 58,25 C 59,28 60,31 61,34 C 62,37 62.5,40 63,43 C 63.5,45 63.8,47 64,49" stroke="url(#orangeHighlight9_05)" stroke-width="2.8" fill="none" opacity="0.85"/>
    <!-- Micro-detail branches with ultra orange energy -->
    <path d="M 43,26 C 41,28 40,31 39,34 C 38,36 37.5,38 37,40 C 36.5,42 36.2,43.5 36,45" stroke="url(#orangeEnergy9_05)" stroke-width="2.5" fill="none" opacity="0.8"/>
    <path d="M 57,26 C 59,28 60,31 61,34 C 62,36 62.5,38 63,40 C 63.5,42 63.8,43.5 64,45" stroke="url(#orangeEnergy9_05)" stroke-width="2.5" fill="none" opacity="0.8"/>
    <!-- Ultra-fine branches with maximum orange -->
    <path d="M 40,33 C 38,35 37,37 36,39 C 35,41 34.5,42.5 34,44" stroke="url(#orangeUltra9_05)" stroke-width="2" fill="none" opacity="0.75"/>
    <path d="M 60,33 C 62,35 63,37 64,39 C 65,41 65.5,42.5 66,44" stroke="url(#orangeUltra9_05)" stroke-width="2" fill="none" opacity="0.75"/>
    <!-- Nano-detail branches -->
    <path d="M 37,38 C 35,40 34,42 33,44" stroke="url(#orangeUltra9_05)" stroke-width="1.5" fill="none" opacity="0.7"/>
    <path d="M 63,38 C 65,40 66,42 67,44" stroke="url(#orangeUltra9_05)" stroke-width="1.5" fill="none" opacity="0.7"/>
  </g>

  <!-- Hyper-velocity motion blur -->
  <g opacity="0.5" filter="url(#hyperVelocity9_05)">
    <rect x="46" y="2" width="8" height="56" fill="#0EA5E9" transform="rotate(-38 50 30)"/>
    <rect x="44" y="-2" width="8" height="56" fill="#0284C7" transform="rotate(-34 48 26)"/>
    <rect x="42" y="-6" width="8" height="56" fill="#0369A1" transform="rotate(-30 46 22)"/>
  </g>

  <!-- Main plasma hammer -->
  <g transform="rotate(-38 50 36)">
    <!-- Titanium handle with tech grip -->
    <rect x="47" y="2" width="6" height="52" rx="3" fill="url(#titaniumHandle9_05)"/>
    <!-- Tech grip pattern -->
    <rect x="47.2" y="12" width="5.6" height="1" fill="#0EA5E9" opacity="0.7"/>
    <rect x="47.2" y="16" width="5.6" height="1" fill="#0EA5E9" opacity="0.7"/>
    <rect x="47.2" y="20" width="5.6" height="1" fill="#0EA5E9" opacity="0.7"/>
    <rect x="47.2" y="24" width="5.6" height="1" fill="#0EA5E9" opacity="0.7"/>
    <rect x="47.2" y="28" width="5.6" height="1" fill="#0EA5E9" opacity="0.7"/>
    <rect x="47.2" y="32" width="5.6" height="1" fill="#0EA5E9" opacity="0.7"/>
    <rect x="47.2" y="36" width="5.6" height="1" fill="#0EA5E9" opacity="0.7"/>
    <!-- Plasma-forged hammer head -->
    <rect x="36" y="-4" width="28" height="18" rx="4" fill="url(#plasma9_05)"/>
    <!-- Energy core -->
    <rect x="38" y="1" width="24" height="3" fill="#F0F9FF" opacity="0.9"/>
    <rect x="38" y="8" width="24" height="3" fill="#0C4A6E" opacity="0.8"/>
    <!-- Tech details -->
    <circle cx="42" cy="5" r="1" fill="#7DD3FC" opacity="0.8"/>
    <circle cx="58" cy="5" r="1" fill="#7DD3FC" opacity="0.8"/>
  </g>

  <!-- Plasma explosion core -->
  <circle cx="50" cy="73" r="5" fill="#F0F9FF" filter="url(#energyGlow9_05)">
    <animate attributeName="r" values="5;3;5" dur="0.4s" repeatCount="indefinite"/>
    <animate attributeName="opacity" values="1;0.7;1" dur="0.4s" repeatCount="indefinite"/>
  </circle>

  <!-- High-energy particle burst -->
  <g opacity="0.9">
    <circle cx="43" cy="70" r="3" fill="#7DD3FC"/>
    <circle cx="57" cy="70" r="3" fill="#7DD3FC"/>
    <circle cx="36" cy="72" r="2.5" fill="#0EA5E9" opacity="0.9"/>
    <circle cx="64" cy="72" r="2.5" fill="#0EA5E9" opacity="0.9"/>
    <circle cx="46" cy="66" r="2" fill="#F0F9FF" opacity="0.8"/>
    <circle cx="54" cy="66" r="2" fill="#F0F9FF" opacity="0.8"/>
    <circle cx="39" cy="76" r="1.5" fill="#0284C7" opacity="0.7"/>
    <circle cx="61" cy="76" r="1.5" fill="#0284C7" opacity="0.7"/>
  </g>

  <!-- Ultimate electrical discharge with maximum multi-level fractal branching and orange dominance -->
  <g filter="url(#lightningGlow9_05)" opacity="1">
    <!-- Main discharge branches with ultimate organic curves and orange integration -->
    <path d="M 50,73 C 48,71 44,69 38,67 C 33,65 27,63 20,60 C 16,58 11,56 5,54 C 2,53 -1,52 -4,51 C -1,53 3,55 7,57 C 11,59 16,61 21,63 C 26,65 32,67 37,69 C 42,70 46,71 49,72" stroke="#F0F9FF" stroke-width="4.5" fill="none"/>
    <path d="M 50,73 C 52,71 56,69 62,67 C 67,65 73,63 80,60 C 84,58 89,56 95,54 C 98,53 101,52 104,51 C 101,53 97,55 93,57 C 89,59 84,61 79,63 C 74,65 68,67 63,69 C 58,70 54,71 51,72" stroke="#F0F9FF" stroke-width="4.5" fill="none"/>
    
    <!-- Primary fractal branches with maximum orange -->
    <path d="M 27,64 C 24,66 20,68 15,70 C 11,72 6,74 1,76 C -2,77 -5,78 -8,79 C -5,78 -1,77 3,76 C 7,75 11,74 15,73 C 19,72 23,71 26,70" stroke="url(#orangeAccent9_05)" stroke-width="3.5" fill="none" opacity="0.95"/>
    <path d="M 73,64 C 76,66 80,68 85,70 C 89,72 94,74 99,76 C 102,77 105,78 108,79 C 105,78 101,77 97,76 C 93,75 89,74 85,73 C 81,72 77,71 74,70" stroke="url(#orangeAccent9_05)" stroke-width="3.5" fill="none" opacity="0.95"/>
    
    <!-- Secondary branches with maximum orange highlights -->
    <path d="M 20,68 C 17,70 13,72 9,74 C 5,76 1,78 -3,80 C -6,81 -9,82 -12,83" stroke="url(#orangeHighlight9_05)" stroke-width="3" fill="none" opacity="0.9"/>
    <path d="M 80,68 C 83,70 87,72 91,74 C 95,76 99,78 103,80 C 106,81 109,82 112,83" stroke="url(#orangeHighlight9_05)" stroke-width="3" fill="none" opacity="0.9"/>
    
    <!-- Tertiary micro-branches with ultra orange -->
    <path d="M 13,72 C 10,74 7,76 4,78 C 1,80 -2,82 -5,84" stroke="url(#orangeEnergy9_05)" stroke-width="2.5" fill="none" opacity="0.85"/>
    <path d="M 87,72 C 90,74 93,76 96,78 C 99,80 102,82 105,84" stroke="url(#orangeEnergy9_05)" stroke-width="2.5" fill="none" opacity="0.85"/>
    
    <!-- Quaternary nano-branches -->
    <path d="M 7,76 C 4,78 1,80 -2,82" stroke="url(#orangeUltra9_05)" stroke-width="2" fill="none" opacity="0.8"/>
    <path d="M 93,76 C 96,78 99,80 102,82" stroke="url(#orangeUltra9_05)" stroke-width="2" fill="none" opacity="0.8"/>
    
    <!-- Upward discharges with ultimate complex branching and orange dominance -->
    <path d="M 50,73 C 49,70 48,66 46,61 C 44,56 42,50 39,44 C 37,38 34,32 31,25 C 28,18 25,11 21,4 C 23,7 25,11 28,15 C 31,20 34,26 37,32 C 40,39 42,46 45,53 C 47,59 48,65 49,70" stroke="#7DD3FC" stroke-width="4" fill="none"/>
    <path d="M 50,73 C 51,70 52,66 54,61 C 56,56 58,50 61,44 C 63,38 66,32 69,25 C 72,18 75,11 79,4 C 77,7 75,11 72,15 C 69,20 66,26 63,32 C 60,39 58,46 55,53 C 53,59 52,65 51,70" stroke="#7DD3FC" stroke-width="4" fill="none"/>
    
    <!-- Primary upward branches with maximum orange -->
    <path d="M 36,40 C 34,38 32,36 30,34 C 28,32 26,30 24,28 C 22,26 20,24 18,22 C 16,20 14,18 12,16" stroke="url(#orangeAccent9_05)" stroke-width="3.2" fill="none" opacity="0.95"/>
    <path d="M 64,40 C 66,38 68,36 70,34 C 72,32 74,30 76,28 C 78,26 80,24 82,22 C 84,20 86,18 88,16" stroke="url(#orangeAccent9_05)" stroke-width="3.2" fill="none" opacity="0.95"/>
    
    <!-- Secondary upward branches with ultra orange highlights -->
    <path d="M 30,36 C 28,34 26,32 24,30 C 22,28 20,26 18,24 C 16,22 14,20 12,18" stroke="url(#orangeHighlight9_05)" stroke-width="2.8" fill="none" opacity="0.9"/>
    <path d="M 70,36 C 72,34 74,32 76,30 C 78,28 80,26 82,24 C 84,22 86,20 88,18" stroke="url(#orangeHighlight9_05)" stroke-width="2.8" fill="none" opacity="0.9"/>
    
    <!-- Tertiary upward branches with maximum orange energy -->
    <path d="M 24,32 C 22,30 20,28 18,26 C 16,24 14,22 12,20 C 10,18 8,16 6,14" stroke="url(#orangeEnergy9_05)" stroke-width="2.5" fill="none" opacity="0.85"/>
    <path d="M 76,32 C 78,30 80,28 82,26 C 84,24 86,22 88,20 C 90,18 92,16 94,14" stroke="url(#orangeEnergy9_05)" stroke-width="2.5" fill="none" opacity="0.85"/>
    
    <!-- Fine detail fractal sparks with ultra orange energy -->
    <path d="M 33,48 C 31,46 29,44 27,42 C 25,40 23,38 21,36 C 19,34 17,32 15,30 C 13,28 11,26 9,24" stroke="url(#orangeUltra9_05)" stroke-width="2.2" fill="none" opacity="0.8"/>
    <path d="M 67,48 C 69,46 71,44 73,42 C 75,40 77,38 79,36 C 81,34 83,32 85,30 C 87,28 89,26 91,24" stroke="url(#orangeUltra9_05)" stroke-width="2.2" fill="none" opacity="0.8"/>
    
    <!-- Micro-fractal details with maximum orange -->
    <path d="M 28,45 C 26,43 24,41 22,39 C 20,37 18,35 16,33 C 14,31 12,29 10,27" stroke="url(#orangeUltra9_05)" stroke-width="1.8" fill="none" opacity="0.75"/>
    <path d="M 72,45 C 74,43 76,41 78,39 C 80,37 82,35 84,33 C 86,31 88,29 90,27" stroke="url(#orangeUltra9_05)" stroke-width="1.8" fill="none" opacity="0.75"/>
    
    <!-- Ultra-micro fractal details -->
    <path d="M 25,42 C 23,40 21,38 19,36 C 17,34 15,32 13,30" stroke="url(#orangeUltra9_05)" stroke-width="1.5" fill="none" opacity="0.7"/>
    <path d="M 75,42 C 77,40 79,38 81,36 C 83,34 85,32 87,30" stroke="url(#orangeUltra9_05)" stroke-width="1.5" fill="none" opacity="0.7"/>
  </g>

  <!-- Plasma wave rings -->
  <g opacity="0.4">
    <circle cx="50" cy="75" r="18" fill="none" stroke="#0EA5E9" stroke-width="1.5">
      <animate attributeName="r" values="18;25;18" dur="1.5s" repeatCount="indefinite"/>
      <animate attributeName="opacity" values="0.4;0.1;0.4" dur="1.5s" repeatCount="indefinite"/>
    </circle>
    <circle cx="50" cy="75" r="26" fill="none" stroke="#0284C7" stroke-width="1.2">
      <animate attributeName="r" values="26;33;26" dur="1.8s" repeatCount="indefinite"/>
      <animate attributeName="opacity" values="0.4;0.1;0.4" dur="1.8s" repeatCount="indefinite"/>
    </circle>
    <circle cx="50" cy="75" r="34" fill="none" stroke="#0369A1" stroke-width="0.8">
      <animate attributeName="r" values="34;41;34" dur="2.1s" repeatCount="indefinite"/>
      <animate attributeName="opacity" values="0.4;0.1;0.4" dur="2.1s" repeatCount="indefinite"/>
    </circle>
  </g>

  <!-- Energy matrix particles -->
  <g opacity="0.6">
    <rect x="28" y="76" width="2" height="2" fill="#7DD3FC" opacity="0.8">
      <animateTransform attributeName="transform" type="rotate" values="0 29 77;360 29 77" dur="3s" repeatCount="indefinite"/>
    </rect>
    <rect x="70" y="76" width="2" height="2" fill="#7DD3FC" opacity="0.8">
      <animateTransform attributeName="transform" type="rotate" values="0 71 77;360 71 77" dur="3s" repeatCount="indefinite"/>
    </rect>
    <rect x="44" y="58" width="1.5" height="1.5" fill="#0EA5E9" opacity="0.7">
      <animateTransform attributeName="transform" type="rotate" values="0 44.75 58.75;360 44.75 58.75" dur="2.5s" repeatCount="indefinite"/>
    </rect>
    <rect x="54" y="58" width="1.5" height="1.5" fill="#0EA5E9" opacity="0.7">
      <animateTransform attributeName="transform" type="rotate" values="0 54.75 58.75;360 54.75 58.75" dur="2.5s" repeatCount="indefinite"/>
    </rect>
  </g>
</svg>