<svg viewBox="0 0 100 100" xmlns="http://www.w3.org/2000/svg">
  <defs>
    <!-- Plasma-forged steel gradient -->
    <linearGradient id="plasma9_02" x1="0%" y1="0%" x2="100%" y2="100%">
      <stop offset="0%" style="stop-color:#F0F9FF;stop-opacity:1" />
      <stop offset="20%" style="stop-color:#7DD3FC;stop-opacity:1" />
      <stop offset="40%" style="stop-color:#0EA5E9;stop-opacity:1" />
      <stop offset="60%" style="stop-color:#0284C7;stop-opacity:1" />
      <stop offset="80%" style="stop-color:#0369A1;stop-opacity:1" />
      <stop offset="100%" style="stop-color:#0C4A6E;stop-opacity:1" />
    </linearGradient>
    <!-- Titanium handle -->
    <linearGradient id="titaniumHandle9_02" x1="0%" y1="0%" x2="100%" y2="100%">
      <stop offset="0%" style="stop-color:#E2E8F0;stop-opacity:1" />
      <stop offset="50%" style="stop-color:#64748B;stop-opacity:1" />
      <stop offset="100%" style="stop-color:#1E293B;stop-opacity:1" />
    </linearGradient>
    <!-- Plasma energy field -->
    <radialGradient id="plasmaField9_02" cx="50%" cy="50%">
      <stop offset="0%" style="stop-color:#F0F9FF;stop-opacity:1" />
      <stop offset="20%" style="stop-color:#7DD3FC;stop-opacity:0.9" />
      <stop offset="40%" style="stop-color:#0EA5E9;stop-opacity:0.7" />
      <stop offset="60%" style="stop-color:#0284C7;stop-opacity:0.5" />
      <stop offset="80%" style="stop-color:#0369A1;stop-opacity:0.2" />
      <stop offset="100%" style="stop-color:#0C4A6E;stop-opacity:0" />
    </radialGradient>
    <!-- Enhanced lightning gradient with light orange accents (10%) -->
    <linearGradient id="lightningGrad9_02" x1="0%" y1="0%" x2="100%" y2="100%">
      <stop offset="0%" style="stop-color:#F0F9FF;stop-opacity:1" />
      <stop offset="25%" style="stop-color:#7DD3FC;stop-opacity:0.9" />
      <stop offset="60%" style="stop-color:#0EA5E9;stop-opacity:0.8" />
      <stop offset="85%" style="stop-color:#FF3E00;stop-opacity:0.1" />
      <stop offset="100%" style="stop-color:#F97316;stop-opacity:0.1" />
    </linearGradient>
    <!-- Orange accent gradient -->
    <linearGradient id="orangeAccent9_02" x1="0%" y1="0%" x2="100%" y2="100%">
      <stop offset="0%" style="stop-color:#F97316;stop-opacity:0.15" />
      <stop offset="50%" style="stop-color:#FF3E00;stop-opacity:0.1" />
      <stop offset="100%" style="stop-color:#CE422B;stop-opacity:0.05" />
    </linearGradient>
    <!-- Quantum distortion -->
    <filter id="quantumDistort9_02">
      <feTurbulence baseFrequency="0.08" numOctaves="3"/>
      <feDisplacementMap in="SourceGraphic" scale="4"/>
    </filter>
    <!-- Hyper velocity blur -->
    <filter id="hyperVelocity9_02">
      <feGaussianBlur in="SourceGraphic" stdDeviation="4,1.2"/>
    </filter>
    <!-- Energy core glow -->
    <filter id="energyGlow9_02">
      <feGaussianBlur stdDeviation="3"/>
      <feColorMatrix values="1 0 0 0 0  0 1 0 0 0  0 0 1 0 0  0 0 0 1 0"/>
    </filter>
    <!-- Lightning glow filter with orange tint -->
    <filter id="lightningGlow9_02">
      <feGaussianBlur stdDeviation="2.5"/>
      <feColorMatrix values="1 0 0 0 0  0 1 0 0 0  0 0 1 0 0.1  0 0 0 1 0"/>
    </filter>
  </defs>
  
  <!-- High-tech anvil base -->
  <path d="M 20,78 L 30,75 L 70,75 L 80,78 L 76,88 L 24,88 Z" fill="#0F172A" stroke="#0369A1" stroke-width="0.5"/>
  <rect x="32" y="72" width="36" height="6" rx="2" fill="#1E293B" stroke="#0EA5E9" stroke-width="0.3"/>
  <!-- Tech surface pattern -->
  <rect x="34" y="72" width="32" height="2" fill="#0284C7" opacity="0.6"/>
  <rect x="36" y="74" width="4" height="2" fill="#7DD3FC" opacity="0.4"/>
  <rect x="44" y="74" width="4" height="2" fill="#7DD3FC" opacity="0.4"/>
  <rect x="52" y="74" width="4" height="2" fill="#7DD3FC" opacity="0.4"/>
  <rect x="60" y="74" width="4" height="2" fill="#7DD3FC" opacity="0.4"/>

  <!-- Massive plasma field -->
  <ellipse cx="50" cy="75" rx="40" ry="24" fill="url(#plasmaField9_02)" opacity="0.95"/>

  <!-- Enhanced lightning arc trails with sophisticated branching -->
  <g opacity="0.75" filter="url(#lightningGlow9_02)">
    <!-- Main arc from left with elegant curve -->
    <path d="M 15,15 C 20,10 28,8 35,15 C 40,22 43,32 45,45 C 47,58 49,68 50,75" stroke="url(#lightningGrad9_02)" stroke-width="4" fill="none"/>
    <!-- Primary branches from left arc -->
    <path d="M 25,16 C 28,20 31,26 34,33 C 36,38 37,42 38,46" stroke="url(#lightningGrad9_02)" stroke-width="2.5" fill="none" opacity="0.8"/>
    <path d="M 38,35 C 41,40 43,45 45,51 C 46,55 47,58 47.5,62" stroke="url(#orangeAccent9_02)" stroke-width="2" fill="none" opacity="0.7"/>
    <!-- Tertiary micro-branches -->
    <path d="M 32,25 C 34,28 35,31 36,34" stroke="url(#orangeAccent9_02)" stroke-width="1.2" fill="none" opacity="0.6"/>
    
    <!-- Main arc from right with elegant curve -->
    <path d="M 85,15 C 80,10 72,8 65,15 C 60,22 57,32 55,45 C 53,58 51,68 50,75" stroke="url(#lightningGrad9_02)" stroke-width="4" fill="none"/>
    <!-- Primary branches from right arc -->
    <path d="M 75,16 C 72,20 69,26 66,33 C 64,38 63,42 62,46" stroke="url(#lightningGrad9_02)" stroke-width="2.5" fill="none" opacity="0.8"/>
    <path d="M 62,35 C 59,40 57,45 55,51 C 54,55 53,58 52.5,62" stroke="url(#orangeAccent9_02)" stroke-width="2" fill="none" opacity="0.7"/>
    <!-- Tertiary micro-branches -->
    <path d="M 68,25 C 66,28 65,31 64,34" stroke="url(#orangeAccent9_02)" stroke-width="1.2" fill="none" opacity="0.6"/>
    
    <!-- Central converging arcs with natural flow -->
    <path d="M 50,0 C 46,12 45,25 47,40 C 48,55 49,65 50,75" stroke="url(#lightningGrad9_02)" stroke-width="3.5" fill="none"/>
    <path d="M 50,0 C 54,12 55,25 53,40 C 52,55 51,65 50,75" stroke="url(#lightningGrad9_02)" stroke-width="3.5" fill="none"/>
    <!-- Secondary central branches -->
    <path d="M 47,28 C 45,32 44,37 43,42" stroke="url(#orangeAccent9_02)" stroke-width="1.5" fill="none" opacity="0.6"/>
    <path d="M 53,28 C 55,32 56,37 57,42" stroke="url(#orangeAccent9_02)" stroke-width="1.5" fill="none" opacity="0.6"/>
    <!-- Fine detail branches -->
    <path d="M 49,20 C 47,23 46,26 45,29" stroke="url(#orangeAccent9_02)" stroke-width="0.8" fill="none" opacity="0.5"/>
    <path d="M 51,20 C 53,23 54,26 55,29" stroke="url(#orangeAccent9_02)" stroke-width="0.8" fill="none" opacity="0.5"/>
  </g>

  <!-- Hyper-velocity motion blur -->
  <g opacity="0.5" filter="url(#hyperVelocity9_02)">
    <rect x="46" y="2" width="8" height="56" fill="#0EA5E9" transform="rotate(-38 50 30)"/>
    <rect x="44" y="-2" width="8" height="56" fill="#0284C7" transform="rotate(-34 48 26)"/>
    <rect x="42" y="-6" width="8" height="56" fill="#0369A1" transform="rotate(-30 46 22)"/>
  </g>

  <!-- Main plasma hammer -->
  <g transform="rotate(-38 50 36)">
    <!-- Titanium handle with tech grip -->
    <rect x="47" y="2" width="6" height="52" rx="3" fill="url(#titaniumHandle9_02)"/>
    <!-- Tech grip pattern -->
    <rect x="47.2" y="12" width="5.6" height="1" fill="#0EA5E9" opacity="0.7"/>
    <rect x="47.2" y="16" width="5.6" height="1" fill="#0EA5E9" opacity="0.7"/>
    <rect x="47.2" y="20" width="5.6" height="1" fill="#0EA5E9" opacity="0.7"/>
    <rect x="47.2" y="24" width="5.6" height="1" fill="#0EA5E9" opacity="0.7"/>
    <rect x="47.2" y="28" width="5.6" height="1" fill="#0EA5E9" opacity="0.7"/>
    <rect x="47.2" y="32" width="5.6" height="1" fill="#0EA5E9" opacity="0.7"/>
    <rect x="47.2" y="36" width="5.6" height="1" fill="#0EA5E9" opacity="0.7"/>
    <!-- Plasma-forged hammer head -->
    <rect x="36" y="-4" width="28" height="18" rx="4" fill="url(#plasma9_02)"/>
    <!-- Energy core -->
    <rect x="38" y="1" width="24" height="3" fill="#F0F9FF" opacity="0.9"/>
    <rect x="38" y="8" width="24" height="3" fill="#0C4A6E" opacity="0.8"/>
    <!-- Tech details -->
    <circle cx="42" cy="5" r="1" fill="#7DD3FC" opacity="0.8"/>
    <circle cx="58" cy="5" r="1" fill="#7DD3FC" opacity="0.8"/>
  </g>

  <!-- Plasma explosion core -->
  <circle cx="50" cy="73" r="5" fill="#F0F9FF" filter="url(#energyGlow9_02)">
    <animate attributeName="r" values="5;3;5" dur="0.4s" repeatCount="indefinite"/>
    <animate attributeName="opacity" values="1;0.7;1" dur="0.4s" repeatCount="indefinite"/>
  </circle>

  <!-- High-energy particle burst -->
  <g opacity="0.9">
    <circle cx="43" cy="70" r="3" fill="#7DD3FC"/>
    <circle cx="57" cy="70" r="3" fill="#7DD3FC"/>
    <circle cx="36" cy="72" r="2.5" fill="#0EA5E9" opacity="0.9"/>
    <circle cx="64" cy="72" r="2.5" fill="#0EA5E9" opacity="0.9"/>
    <circle cx="46" cy="66" r="2" fill="#F0F9FF" opacity="0.8"/>
    <circle cx="54" cy="66" r="2" fill="#F0F9FF" opacity="0.8"/>
    <circle cx="39" cy="76" r="1.5" fill="#0284C7" opacity="0.7"/>
    <circle cx="61" cy="76" r="1.5" fill="#0284C7" opacity="0.7"/>
  </g>

  <!-- Enhanced electrical discharge with complex fractal branching -->
  <g filter="url(#lightningGlow9_02)" opacity="0.85">
    <!-- Main discharge branches with sophisticated curves -->
    <path d="M 50,73 C 45,71 38,69 30,66 C 27,65 24,64 20,62 C 23,64 26,65 30,67 C 32,68 34,69 37,71" stroke="#F0F9FF" stroke-width="3" fill="none"/>
    <path d="M 50,73 C 55,71 62,69 70,66 C 73,65 76,64 80,62 C 77,64 74,65 70,67 C 68,68 66,69 63,71" stroke="#F0F9FF" stroke-width="3" fill="none"/>
    
    <!-- Secondary fractal branches with orange accents -->
    <path d="M 30,67 C 28,69 26,71 24,73 C 22,75 20,77 18,79" stroke="url(#orangeAccent9_02)" stroke-width="2" fill="none" opacity="0.8"/>
    <path d="M 70,67 C 72,69 74,71 76,73 C 78,75 80,77 82,79" stroke="url(#orangeAccent9_02)" stroke-width="2" fill="none" opacity="0.8"/>
    
    <!-- Upward discharges with natural branching -->
    <path d="M 50,73 C 47,67 44,60 40,52 C 38,48 36,44 33,40 C 35,43 37,46 40,50 C 42,54 44,58 46,63" stroke="#7DD3FC" stroke-width="2.5" fill="none"/>
    <path d="M 50,73 C 53,67 56,60 60,52 C 62,48 64,44 67,40 C 65,43 63,46 60,50 C 58,54 56,58 54,63" stroke="#7DD3FC" stroke-width="2.5" fill="none"/>
    
    <!-- Tertiary micro-fractal details -->
    <path d="M 40,55 C 38,53 36,51 34,49 C 32,47 30,45 28,43" stroke="url(#orangeAccent9_02)" stroke-width="1.2" fill="none" opacity="0.7"/>
    <path d="M 60,55 C 62,53 64,51 66,49 C 68,47 70,45 72,43" stroke="url(#orangeAccent9_02)" stroke-width="1.2" fill="none" opacity="0.7"/>
    
    <!-- Fine detail sparks -->
    <path d="M 35,62 C 33,60 31,58 29,56" stroke="url(#orangeAccent9_02)" stroke-width="0.8" fill="none" opacity="0.6"/>
    <path d="M 65,62 C 67,60 69,58 71,56" stroke="url(#orangeAccent9_02)" stroke-width="0.8" fill="none" opacity="0.6"/>
  </g>

  <!-- Plasma wave rings -->
  <g opacity="0.4">
    <circle cx="50" cy="75" r="18" fill="none" stroke="#0EA5E9" stroke-width="1.5">
      <animate attributeName="r" values="18;25;18" dur="1.5s" repeatCount="indefinite"/>
      <animate attributeName="opacity" values="0.4;0.1;0.4" dur="1.5s" repeatCount="indefinite"/>
    </circle>
    <circle cx="50" cy="75" r="26" fill="none" stroke="#0284C7" stroke-width="1.2">
      <animate attributeName="r" values="26;33;26" dur="1.8s" repeatCount="indefinite"/>
      <animate attributeName="opacity" values="0.4;0.1;0.4" dur="1.8s" repeatCount="indefinite"/>
    </circle>
    <circle cx="50" cy="75" r="34" fill="none" stroke="#0369A1" stroke-width="0.8">
      <animate attributeName="r" values="34;41;34" dur="2.1s" repeatCount="indefinite"/>
      <animate attributeName="opacity" values="0.4;0.1;0.4" dur="2.1s" repeatCount="indefinite"/>
    </circle>
  </g>

  <!-- Energy matrix particles -->
  <g opacity="0.6">
    <rect x="28" y="76" width="2" height="2" fill="#7DD3FC" opacity="0.8">
      <animateTransform attributeName="transform" type="rotate" values="0 29 77;360 29 77" dur="3s" repeatCount="indefinite"/>
    </rect>
    <rect x="70" y="76" width="2" height="2" fill="#7DD3FC" opacity="0.8">
      <animateTransform attributeName="transform" type="rotate" values="0 71 77;360 71 77" dur="3s" repeatCount="indefinite"/>
    </rect>
    <rect x="44" y="58" width="1.5" height="1.5" fill="#0EA5E9" opacity="0.7">
      <animateTransform attributeName="transform" type="rotate" values="0 44.75 58.75;360 44.75 58.75" dur="2.5s" repeatCount="indefinite"/>
    </rect>
    <rect x="54" y="58" width="1.5" height="1.5" fill="#0EA5E9" opacity="0.7">
      <animateTransform attributeName="transform" type="rotate" values="0 54.75 58.75;360 54.75 58.75" dur="2.5s" repeatCount="indefinite"/>
    </rect>
  </g>
</svg>