<svg viewBox="0 0 100 100" xmlns="http://www.w3.org/2000/svg">
  <defs>
    <!-- Plasma-forged steel gradient with teal -->
    <linearGradient id="plasmaDiamond1" x1="0%" y1="0%" x2="100%" y2="100%">
      <stop offset="0%" style="stop-color:#F0F9FF;stop-opacity:1" />
      <stop offset="20%" style="stop-color:#7DD3FC;stop-opacity:1" />
      <stop offset="40%" style="stop-color:#0EA5E9;stop-opacity:1" />
      <stop offset="60%" style="stop-color:#0284C7;stop-opacity:1" />
      <stop offset="80%" style="stop-color:#0369A1;stop-opacity:1" />
      <stop offset="100%" style="stop-color:#0C4A6E;stop-opacity:1" />
    </linearGradient>
    <!-- Circuit pattern gradient -->
    <linearGradient id="circuitGrad1" x1="0%" y1="0%" x2="100%" y2="100%">
      <stop offset="0%" style="stop-color:#7DD3FC;stop-opacity:0.9" />
      <stop offset="50%" style="stop-color:#0EA5E9;stop-opacity:0.7" />
      <stop offset="100%" style="stop-color:#0284C7;stop-opacity:0.5" />
    </linearGradient>
    <!-- Titanium handle -->
    <linearGradient id="titaniumHandle2" x1="0%" y1="0%" x2="100%" y2="100%">
      <stop offset="0%" style="stop-color:#E2E8F0;stop-opacity:1" />
      <stop offset="50%" style="stop-color:#64748B;stop-opacity:1" />
      <stop offset="100%" style="stop-color:#1E293B;stop-opacity:1" />
    </linearGradient>
    <!-- Plasma energy field -->
    <radialGradient id="plasmaFieldDiamond1" cx="50%" cy="50%">
      <stop offset="0%" style="stop-color:#7DD3FC;stop-opacity:0.8" />
      <stop offset="30%" style="stop-color:#0EA5E9;stop-opacity:0.6" />
      <stop offset="50%" style="stop-color:#0284C7;stop-opacity:0.4" />
      <stop offset="70%" style="stop-color:#0369A1;stop-opacity:0.2" />
      <stop offset="100%" style="stop-color:#0C4A6E;stop-opacity:0" />
    </radialGradient>
    <!-- Quantum distortion -->
    <filter id="quantumDistort2">
      <feTurbulence baseFrequency="0.08" numOctaves="3"/>
      <feDisplacementMap in="SourceGraphic" scale="4"/>
    </filter>
    <!-- Energy core glow -->
    <filter id="energyGlow2">
      <feGaussianBlur stdDeviation="3"/>
      <feColorMatrix values="1 0 0 0 0  0 1 0 0 0  0 0 1 0 0  0 0 0 1 0"/>
    </filter>
  </defs>
  
  <!-- High-tech anvil base -->
  <path d="M 20,78 L 30,75 L 70,75 L 80,78 L 76,88 L 24,88 Z" fill="#0F172A" stroke="#0EA5E9" stroke-width="0.5"/>
  <rect x="32" y="72" width="36" height="6" rx="2" fill="#1E293B" stroke="#0EA5E9" stroke-width="0.3"/>
  <!-- Tech surface pattern -->
  <rect x="34" y="72" width="32" height="2" fill="#0284C7" opacity="0.6"/>
  <rect x="38" y="74" width="4" height="2" fill="#7DD3FC" opacity="0.5"/>
  <rect x="46" y="74" width="4" height="2" fill="#0EA5E9" opacity="0.4"/>
  <rect x="54" y="74" width="4" height="2" fill="#7DD3FC" opacity="0.5"/>
  <rect x="62" y="74" width="4" height="2" fill="#0EA5E9" opacity="0.4"/>
  
  <!-- Massive plasma field -->
  <ellipse cx="50" cy="75" rx="40" ry="24" fill="url(#plasmaFieldDiamond1)" opacity="0.9"/>
  
  <!-- Main plasma hammer with diamond circuit head -->
  <g transform="rotate(-38 50 36)">
    <!-- Titanium handle with tech grip -->
    <rect x="47" y="2" width="6" height="52" rx="3" fill="url(#titaniumHandle2)"/>
    <!-- Tech grip pattern -->
    <rect x="47.2" y="14" width="5.6" height="1" fill="#0EA5E9" opacity="0.7"/>
    <rect x="47.2" y="18" width="5.6" height="1" fill="#7DD3FC" opacity="0.7"/>
    <rect x="47.2" y="22" width="5.6" height="1" fill="#0EA5E9" opacity="0.7"/>
    <rect x="47.2" y="26" width="5.6" height="1" fill="#7DD3FC" opacity="0.7"/>
    <rect x="47.2" y="30" width="5.6" height="1" fill="#0EA5E9" opacity="0.7"/>
    <rect x="47.2" y="34" width="5.6" height="1" fill="#7DD3FC" opacity="0.7"/>
    
    <!-- Diamond-shaped hammer head with circuit patterns -->
    <g>
      <!-- Main diamond shape -->
      <polygon points="50,-8 32,2 50,12 68,2" fill="url(#plasmaDiamond1)"/>
      
      <!-- Circuit board patterns inside diamond -->
      <g stroke="url(#circuitGrad1)" stroke-width="0.3" fill="none">
        <!-- Main circuit paths -->
        <path d="M 50,-6 L 50,10 M 40,-2 L 40,6 M 60,-2 L 60,6"/>
        <path d="M 35,2 L 65,2 M 42,-3 L 58,-3 M 42,7 L 58,7"/>
        
        <!-- Circuit nodes -->
        <circle cx="50" cy="-6" r="0.8" fill="#F0F9FF" stroke="none"/>
        <circle cx="50" cy="10" r="0.8" fill="#F0F9FF" stroke="none"/>
        <circle cx="40" cy="2" r="0.6" fill="#7DD3FC" stroke="none"/>
        <circle cx="60" cy="2" r="0.6" fill="#7DD3FC" stroke="none"/>
        <circle cx="45" cy="-2" r="0.5" fill="#0EA5E9" stroke="none"/>
        <circle cx="55" cy="-2" r="0.5" fill="#0EA5E9" stroke="none"/>
        <circle cx="45" cy="6" r="0.5" fill="#0EA5E9" stroke="none"/>
        <circle cx="55" cy="6" r="0.5" fill="#0EA5E9" stroke="none"/>
        
        <!-- Diagonal circuit traces -->
        <path d="M 38,0 L 42,4 M 62,0 L 58,4"/>
        <path d="M 38,4 L 42,0 M 62,4 L 58,0"/>
      </g>
      
      <!-- Diamond edge highlights -->
      <line x1="50" y1="-8" x2="32" y2="2" stroke="#F0F9FF" stroke-width="0.5" opacity="0.6"/>
      <line x1="50" y1="-8" x2="68" y2="2" stroke="#F0F9FF" stroke-width="0.5" opacity="0.6"/>
      <line x1="32" y1="2" x2="50" y2="12" stroke="#0C4A6E" stroke-width="0.5" opacity="0.4"/>
      <line x1="68" y1="2" x2="50" y2="12" stroke="#0C4A6E" stroke-width="0.5" opacity="0.4"/>
      
      <!-- Central energy core -->
      <polygon points="50,-2 47,2 50,6 53,2" fill="#F0F9FF" opacity="0.9"/>
      
      <!-- Side diamond facets -->
      <polygon points="50,-8 32,2 40,2" fill="#0369A1" opacity="0.5"/>
      <polygon points="50,-8 68,2 60,2" fill="#0369A1" opacity="0.5"/>
      <polygon points="32,2 50,12 40,2" fill="#0C4A6E" opacity="0.4"/>
      <polygon points="68,2 50,12 60,2" fill="#0C4A6E" opacity="0.4"/>
    </g>
  </g>
  
  <!-- Plasma explosion core -->
  <circle cx="50" cy="73" r="5" fill="#7DD3FC" filter="url(#energyGlow2)">
    <animate attributeName="r" values="5;3;5" dur="0.4s" repeatCount="indefinite"/>
    <animate attributeName="opacity" values="1;0.7;1" dur="0.4s" repeatCount="indefinite"/>
  </circle>
  
  <!-- High-energy particle burst -->
  <g opacity="0.9">
    <circle cx="43" cy="70" r="3" fill="#0EA5E9"/>
    <circle cx="57" cy="70" r="3" fill="#7DD3FC"/>
    <circle cx="36" cy="72" r="2.5" fill="#0284C7" opacity="0.9"/>
    <circle cx="64" cy="72" r="2.5" fill="#0EA5E9" opacity="0.9"/>
    <circle cx="46" cy="66" r="2" fill="#F0F9FF" opacity="0.8"/>
    <circle cx="54" cy="66" r="2" fill="#7DD3FC" opacity="0.8"/>
    <circle cx="39" cy="76" r="1.5" fill="#0369A1" opacity="0.7"/>
    <circle cx="61" cy="76" r="1.5" fill="#0C4A6E" opacity="0.7"/>
  </g>
  
  <!-- Quantum energy discharge -->
  <g filter="url(#quantumDistort2)" opacity="0.7">
    <path d="M 50,73 L 30,68 L 35,70 L 25,65 L 30,67" stroke="#7DD3FC" stroke-width="2" fill="none"/>
    <path d="M 50,73 L 70,68 L 65,70 L 75,65 L 70,67" stroke="#F0F9FF" stroke-width="2" fill="none"/>
    <path d="M 50,73 L 42,58 L 45,62 L 38,55 L 42,59" stroke="#0EA5E9" stroke-width="1.5" fill="none"/>
    <path d="M 50,73 L 58,58 L 55,62 L 62,55 L 58,59" stroke="#0284C7" stroke-width="1.5" fill="none"/>
  </g>
  
  <!-- Plasma wave rings -->
  <g opacity="0.4">
    <circle cx="50" cy="75" r="18" fill="none" stroke="#0EA5E9" stroke-width="1.5">
      <animate attributeName="r" values="18;25;18" dur="1.5s" repeatCount="indefinite"/>
      <animate attributeName="opacity" values="0.4;0.1;0.4" dur="1.5s" repeatCount="indefinite"/>
    </circle>
    <circle cx="50" cy="75" r="26" fill="none" stroke="#0284C7" stroke-width="1.2">
      <animate attributeName="r" values="26;33;26" dur="1.8s" repeatCount="indefinite"/>
      <animate attributeName="opacity" values="0.4;0.1;0.4" dur="1.8s" repeatCount="indefinite"/>
    </circle>
  </g>
  
  <!-- Energy matrix particles -->
  <g opacity="0.6">
    <rect x="28" y="76" width="2" height="2" fill="#0EA5E9" opacity="0.8">
      <animateTransform attributeName="transform" type="rotate" values="0 29 77;360 29 77" dur="3s" repeatCount="indefinite"/>
    </rect>
    <rect x="70" y="76" width="2" height="2" fill="#7DD3FC" opacity="0.8">
      <animateTransform attributeName="transform" type="rotate" values="0 71 77;360 71 77" dur="3s" repeatCount="indefinite"/>
    </rect>
  </g>
</svg>