<svg viewBox="0 0 100 100" xmlns="http://www.w3.org/2000/svg">
  <defs>
    <!-- Plasma-forged steel gradient with teal -->
    <linearGradient id="plasmaHex1" x1="0%" y1="0%" x2="100%" y2="100%">
      <stop offset="0%" style="stop-color:#F0F9FF;stop-opacity:1" />
      <stop offset="20%" style="stop-color:#7DD3FC;stop-opacity:1" />
      <stop offset="40%" style="stop-color:#0EA5E9;stop-opacity:1" />
      <stop offset="60%" style="stop-color:#0284C7;stop-opacity:1" />
      <stop offset="80%" style="stop-color:#0369A1;stop-opacity:1" />
      <stop offset="100%" style="stop-color:#0C4A6E;stop-opacity:1" />
    </linearGradient>
    <!-- Crystalline facet gradient -->
    <linearGradient id="crystalFacet1" x1="0%" y1="0%" x2="100%" y2="100%">
      <stop offset="0%" style="stop-color:#F0F9FF;stop-opacity:0.9" />
      <stop offset="50%" style="stop-color:#0EA5E9;stop-opacity:0.7" />
      <stop offset="100%" style="stop-color:#0369A1;stop-opacity:0.5" />
    </linearGradient>
    <!-- Titanium handle -->
    <linearGradient id="titaniumHandle1" x1="0%" y1="0%" x2="100%" y2="100%">
      <stop offset="0%" style="stop-color:#E2E8F0;stop-opacity:1" />
      <stop offset="50%" style="stop-color:#64748B;stop-opacity:1" />
      <stop offset="100%" style="stop-color:#1E293B;stop-opacity:1" />
    </linearGradient>
    <!-- Plasma energy field -->
    <radialGradient id="plasmaFieldHex1" cx="50%" cy="50%">
      <stop offset="0%" style="stop-color:#7DD3FC;stop-opacity:0.8" />
      <stop offset="30%" style="stop-color:#0EA5E9;stop-opacity:0.6" />
      <stop offset="50%" style="stop-color:#0284C7;stop-opacity:0.4" />
      <stop offset="70%" style="stop-color:#0369A1;stop-opacity:0.2" />
      <stop offset="100%" style="stop-color:#0C4A6E;stop-opacity:0" />
    </radialGradient>
    <!-- Quantum distortion -->
    <filter id="quantumDistort1">
      <feTurbulence baseFrequency="0.08" numOctaves="3"/>
      <feDisplacementMap in="SourceGraphic" scale="4"/>
    </filter>
    <!-- Energy core glow -->
    <filter id="energyGlow1">
      <feGaussianBlur stdDeviation="3"/>
      <feColorMatrix values="1 0 0 0 0  0 1 0 0 0  0 0 1 0 0  0 0 0 1 0"/>
    </filter>
  </defs>
  
  <!-- High-tech anvil base -->
  <path d="M 20,78 L 30,75 L 70,75 L 80,78 L 76,88 L 24,88 Z" fill="#0F172A" stroke="#0EA5E9" stroke-width="0.5"/>
  <rect x="32" y="72" width="36" height="6" rx="2" fill="#1E293B" stroke="#0EA5E9" stroke-width="0.3"/>
  <!-- Tech surface pattern -->
  <rect x="34" y="72" width="32" height="2" fill="#0284C7" opacity="0.6"/>
  <rect x="38" y="74" width="4" height="2" fill="#7DD3FC" opacity="0.5"/>
  <rect x="46" y="74" width="4" height="2" fill="#0EA5E9" opacity="0.4"/>
  <rect x="54" y="74" width="4" height="2" fill="#7DD3FC" opacity="0.5"/>
  <rect x="62" y="74" width="4" height="2" fill="#0EA5E9" opacity="0.4"/>
  
  <!-- Massive plasma field -->
  <ellipse cx="50" cy="75" rx="40" ry="24" fill="url(#plasmaFieldHex1)" opacity="0.9"/>
  
  <!-- Main plasma hammer with hexagonal crystal head -->
  <g transform="rotate(-38 50 36)">
    <!-- Titanium handle with tech grip -->
    <rect x="47" y="2" width="6" height="52" rx="3" fill="url(#titaniumHandle1)"/>
    <!-- Tech grip pattern -->
    <rect x="47.2" y="14" width="5.6" height="1" fill="#0EA5E9" opacity="0.7"/>
    <rect x="47.2" y="18" width="5.6" height="1" fill="#7DD3FC" opacity="0.7"/>
    <rect x="47.2" y="22" width="5.6" height="1" fill="#0EA5E9" opacity="0.7"/>
    <rect x="47.2" y="26" width="5.6" height="1" fill="#7DD3FC" opacity="0.7"/>
    <rect x="47.2" y="30" width="5.6" height="1" fill="#0EA5E9" opacity="0.7"/>
    <rect x="47.2" y="34" width="5.6" height="1" fill="#7DD3FC" opacity="0.7"/>
    
    <!-- Hexagonal crystal hammer head -->
    <g>
      <!-- Main hexagon -->
      <polygon points="50,2 41,-5 29,-5 22,2 29,9 41,9" fill="url(#plasmaHex1)"/>
      <!-- Opposite side hexagon -->
      <polygon points="50,2 59,-5 71,-5 78,2 71,9 59,9" fill="url(#plasmaHex1)"/>
      
      <!-- Crystal facets on left side -->
      <polygon points="50,2 41,-5 29,-5 35,2" fill="url(#crystalFacet1)" opacity="0.8"/>
      <polygon points="35,2 29,-5 22,2 29,9" fill="#0C4A6E" opacity="0.6"/>
      <polygon points="35,2 29,9 41,9" fill="#0369A1" opacity="0.5"/>
      
      <!-- Crystal facets on right side -->
      <polygon points="50,2 59,-5 71,-5 65,2" fill="url(#crystalFacet1)" opacity="0.8"/>
      <polygon points="65,2 71,-5 78,2 71,9" fill="#0C4A6E" opacity="0.6"/>
      <polygon points="65,2 71,9 59,9" fill="#0369A1" opacity="0.5"/>
      
      <!-- Center energy core -->
      <polygon points="50,2 46,-1 46,5 50,8 54,5 54,-1" fill="#F0F9FF" opacity="0.9"/>
      
      <!-- Hexagonal edge lines -->
      <g stroke="#7DD3FC" stroke-width="0.5" fill="none" opacity="0.8">
        <line x1="41" y1="-5" x2="29" y2="-5"/>
        <line x1="29" y1="-5" x2="22" y2="2"/>
        <line x1="22" y1="2" x2="29" y2="9"/>
        <line x1="29" y1="9" x2="41" y2="9"/>
        <line x1="59" y1="-5" x2="71" y2="-5"/>
        <line x1="71" y1="-5" x2="78" y2="2"/>
        <line x1="78" y1="2" x2="71" y2="9"/>
        <line x1="71" y1="9" x2="59" y2="9"/>
      </g>
    </g>
  </g>
  
  <!-- Plasma explosion core -->
  <circle cx="50" cy="73" r="5" fill="#7DD3FC" filter="url(#energyGlow1)">
    <animate attributeName="r" values="5;3;5" dur="0.4s" repeatCount="indefinite"/>
    <animate attributeName="opacity" values="1;0.7;1" dur="0.4s" repeatCount="indefinite"/>
  </circle>
  
  <!-- High-energy particle burst -->
  <g opacity="0.9">
    <circle cx="43" cy="70" r="3" fill="#0EA5E9"/>
    <circle cx="57" cy="70" r="3" fill="#7DD3FC"/>
    <circle cx="36" cy="72" r="2.5" fill="#0284C7" opacity="0.9"/>
    <circle cx="64" cy="72" r="2.5" fill="#0EA5E9" opacity="0.9"/>
    <circle cx="46" cy="66" r="2" fill="#F0F9FF" opacity="0.8"/>
    <circle cx="54" cy="66" r="2" fill="#7DD3FC" opacity="0.8"/>
    <circle cx="39" cy="76" r="1.5" fill="#0369A1" opacity="0.7"/>
    <circle cx="61" cy="76" r="1.5" fill="#0C4A6E" opacity="0.7"/>
  </g>
  
  <!-- Quantum energy discharge -->
  <g filter="url(#quantumDistort1)" opacity="0.7">
    <path d="M 50,73 L 30,68 L 35,70 L 25,65 L 30,67" stroke="#7DD3FC" stroke-width="2" fill="none"/>
    <path d="M 50,73 L 70,68 L 65,70 L 75,65 L 70,67" stroke="#F0F9FF" stroke-width="2" fill="none"/>
    <path d="M 50,73 L 42,58 L 45,62 L 38,55 L 42,59" stroke="#0EA5E9" stroke-width="1.5" fill="none"/>
    <path d="M 50,73 L 58,58 L 55,62 L 62,55 L 58,59" stroke="#0284C7" stroke-width="1.5" fill="none"/>
  </g>
  
  <!-- Plasma wave rings -->
  <g opacity="0.4">
    <circle cx="50" cy="75" r="18" fill="none" stroke="#0EA5E9" stroke-width="1.5">
      <animate attributeName="r" values="18;25;18" dur="1.5s" repeatCount="indefinite"/>
      <animate attributeName="opacity" values="0.4;0.1;0.4" dur="1.5s" repeatCount="indefinite"/>
    </circle>
    <circle cx="50" cy="75" r="26" fill="none" stroke="#0284C7" stroke-width="1.2">
      <animate attributeName="r" values="26;33;26" dur="1.8s" repeatCount="indefinite"/>
      <animate attributeName="opacity" values="0.4;0.1;0.4" dur="1.8s" repeatCount="indefinite"/>
    </circle>
  </g>
  
  <!-- Energy matrix particles -->
  <g opacity="0.6">
    <rect x="28" y="76" width="2" height="2" fill="#0EA5E9" opacity="0.8">
      <animateTransform attributeName="transform" type="rotate" values="0 29 77;360 29 77" dur="3s" repeatCount="indefinite"/>
    </rect>
    <rect x="70" y="76" width="2" height="2" fill="#7DD3FC" opacity="0.8">
      <animateTransform attributeName="transform" type="rotate" values="0 71 77;360 71 77" dur="3s" repeatCount="indefinite"/>
    </rect>
  </g>
</svg>