<svg viewBox="0 0 100 100" xmlns="http://www.w3.org/2000/svg">
  <defs>
    <!-- Plasma-forged steel gradient with teal -->
    <linearGradient id="plasmaPrism1" x1="0%" y1="0%" x2="100%" y2="100%">
      <stop offset="0%" style="stop-color:#F0F9FF;stop-opacity:1" />
      <stop offset="20%" style="stop-color:#7DD3FC;stop-opacity:1" />
      <stop offset="40%" style="stop-color:#0EA5E9;stop-opacity:1" />
      <stop offset="60%" style="stop-color:#0284C7;stop-opacity:1" />
      <stop offset="80%" style="stop-color:#0369A1;stop-opacity:1" />
      <stop offset="100%" style="stop-color:#0C4A6E;stop-opacity:1" />
    </linearGradient>
    <!-- Energy channel gradient -->
    <linearGradient id="energyChannel1" x1="0%" y1="0%" x2="100%" y2="100%">
      <stop offset="0%" style="stop-color:#F0F9FF;stop-opacity:0.9" />
      <stop offset="50%" style="stop-color:#7DD3FC;stop-opacity:0.7" />
      <stop offset="100%" style="stop-color:#0EA5E9;stop-opacity:0.5" />
    </linearGradient>
    <!-- Titanium handle -->
    <linearGradient id="titaniumHandle3" x1="0%" y1="0%" x2="100%" y2="100%">
      <stop offset="0%" style="stop-color:#E2E8F0;stop-opacity:1" />
      <stop offset="50%" style="stop-color:#64748B;stop-opacity:1" />
      <stop offset="100%" style="stop-color:#1E293B;stop-opacity:1" />
    </linearGradient>
    <!-- Plasma energy field -->
    <radialGradient id="plasmaFieldPrism1" cx="50%" cy="50%">
      <stop offset="0%" style="stop-color:#7DD3FC;stop-opacity:0.8" />
      <stop offset="30%" style="stop-color:#0EA5E9;stop-opacity:0.6" />
      <stop offset="50%" style="stop-color:#0284C7;stop-opacity:0.4" />
      <stop offset="70%" style="stop-color:#0369A1;stop-opacity:0.2" />
      <stop offset="100%" style="stop-color:#0C4A6E;stop-opacity:0" />
    </radialGradient>
    <!-- Quantum distortion -->
    <filter id="quantumDistort3">
      <feTurbulence baseFrequency="0.08" numOctaves="3"/>
      <feDisplacementMap in="SourceGraphic" scale="4"/>
    </filter>
    <!-- Energy core glow -->
    <filter id="energyGlow3">
      <feGaussianBlur stdDeviation="3"/>
      <feColorMatrix values="1 0 0 0 0  0 1 0 0 0  0 0 1 0 0  0 0 0 1 0"/>
    </filter>
  </defs>
  
  <!-- High-tech anvil base -->
  <path d="M 20,78 L 30,75 L 70,75 L 80,78 L 76,88 L 24,88 Z" fill="#0F172A" stroke="#0EA5E9" stroke-width="0.5"/>
  <rect x="32" y="72" width="36" height="6" rx="2" fill="#1E293B" stroke="#0EA5E9" stroke-width="0.3"/>
  <!-- Tech surface pattern -->
  <rect x="34" y="72" width="32" height="2" fill="#0284C7" opacity="0.6"/>
  <rect x="38" y="74" width="4" height="2" fill="#7DD3FC" opacity="0.5"/>
  <rect x="46" y="74" width="4" height="2" fill="#0EA5E9" opacity="0.4"/>
  <rect x="54" y="74" width="4" height="2" fill="#7DD3FC" opacity="0.5"/>
  <rect x="62" y="74" width="4" height="2" fill="#0EA5E9" opacity="0.4"/>
  
  <!-- Massive plasma field -->
  <ellipse cx="50" cy="75" rx="40" ry="24" fill="url(#plasmaFieldPrism1)" opacity="0.9"/>
  
  <!-- Main plasma hammer with angular prism head -->
  <g transform="rotate(-38 50 36)">
    <!-- Titanium handle with tech grip -->
    <rect x="47" y="2" width="6" height="52" rx="3" fill="url(#titaniumHandle3)"/>
    <!-- Tech grip pattern -->
    <rect x="47.2" y="14" width="5.6" height="1" fill="#0EA5E9" opacity="0.7"/>
    <rect x="47.2" y="18" width="5.6" height="1" fill="#7DD3FC" opacity="0.7"/>
    <rect x="47.2" y="22" width="5.6" height="1" fill="#0EA5E9" opacity="0.7"/>
    <rect x="47.2" y="26" width="5.6" height="1" fill="#7DD3FC" opacity="0.7"/>
    <rect x="47.2" y="30" width="5.6" height="1" fill="#0EA5E9" opacity="0.7"/>
    <rect x="47.2" y="34" width="5.6" height="1" fill="#7DD3FC" opacity="0.7"/>
    
    <!-- Angular prism hammer head with energy channels -->
    <g>
      <!-- Main prism shape - angular multi-faceted design -->
      <polygon points="50,-10 25,2 30,14 50,8 70,14 75,2" fill="url(#plasmaPrism1)"/>
      
      <!-- Top angular facets -->
      <polygon points="50,-10 25,2 40,-4" fill="#0369A1" opacity="0.7"/>
      <polygon points="50,-10 75,2 60,-4" fill="#0369A1" opacity="0.7"/>
      
      <!-- Side angular facets -->
      <polygon points="25,2 30,14 28,8" fill="#0C4A6E" opacity="0.6"/>
      <polygon points="75,2 70,14 72,8" fill="#0C4A6E" opacity="0.6"/>
      
      <!-- Bottom angular facets -->
      <polygon points="30,14 50,8 40,12" fill="#0284C7" opacity="0.5"/>
      <polygon points="70,14 50,8 60,12" fill="#0284C7" opacity="0.5"/>
      
      <!-- Geometric energy channels -->
      <g stroke="url(#energyChannel1)" stroke-width="0.8" fill="none">
        <!-- Main energy channels -->
        <path d="M 50,-10 L 50,8"/>
        <path d="M 40,-4 L 40,12"/>
        <path d="M 60,-4 L 60,12"/>
        
        <!-- Diagonal energy channels -->
        <path d="M 25,2 L 50,8"/>
        <path d="M 75,2 L 50,8"/>
        <path d="M 30,14 L 50,-10"/>
        <path d="M 70,14 L 50,-10"/>
      </g>
      
      <!-- Energy nodes at vertices -->
      <circle cx="50" cy="-10" r="1.2" fill="#F0F9FF" opacity="0.9"/>
      <circle cx="25" cy="2" r="0.8" fill="#7DD3FC" opacity="0.8"/>
      <circle cx="75" cy="2" r="0.8" fill="#7DD3FC" opacity="0.8"/>
      <circle cx="30" cy="14" r="0.6" fill="#0EA5E9" opacity="0.7"/>
      <circle cx="70" cy="14" r="0.6" fill="#0EA5E9" opacity="0.7"/>
      <circle cx="50" cy="8" r="1" fill="#F0F9FF" opacity="0.9"/>
      
      <!-- Angular edge highlights -->
      <g stroke="#F0F9FF" stroke-width="0.4" fill="none" opacity="0.7">
        <line x1="50" y1="-10" x2="25" y2="2"/>
        <line x1="50" y1="-10" x2="75" y2="2"/>
        <line x1="25" y1="2" x2="30" y2="14"/>
        <line x1="75" y1="2" x2="70" y2="14"/>
        <line x1="30" y1="14" x2="50" y2="8"/>
        <line x1="70" y1="14" x2="50" y2="8"/>
      </g>
      
      <!-- Central prism core -->
      <polygon points="50,-2 46,2 50,6 54,2" fill="#F0F9FF" opacity="0.9"/>
    </g>
  </g>
  
  <!-- Plasma explosion core -->
  <circle cx="50" cy="73" r="5" fill="#7DD3FC" filter="url(#energyGlow3)">
    <animate attributeName="r" values="5;3;5" dur="0.4s" repeatCount="indefinite"/>
    <animate attributeName="opacity" values="1;0.7;1" dur="0.4s" repeatCount="indefinite"/>
  </circle>
  
  <!-- High-energy particle burst -->
  <g opacity="0.9">
    <circle cx="43" cy="70" r="3" fill="#0EA5E9"/>
    <circle cx="57" cy="70" r="3" fill="#7DD3FC"/>
    <circle cx="36" cy="72" r="2.5" fill="#0284C7" opacity="0.9"/>
    <circle cx="64" cy="72" r="2.5" fill="#0EA5E9" opacity="0.9"/>
    <circle cx="46" cy="66" r="2" fill="#F0F9FF" opacity="0.8"/>
    <circle cx="54" cy="66" r="2" fill="#7DD3FC" opacity="0.8"/>
    <circle cx="39" cy="76" r="1.5" fill="#0369A1" opacity="0.7"/>
    <circle cx="61" cy="76" r="1.5" fill="#0C4A6E" opacity="0.7"/>
  </g>
  
  <!-- Quantum energy discharge -->
  <g filter="url(#quantumDistort3)" opacity="0.7">
    <path d="M 50,73 L 30,68 L 35,70 L 25,65 L 30,67" stroke="#7DD3FC" stroke-width="2" fill="none"/>
    <path d="M 50,73 L 70,68 L 65,70 L 75,65 L 70,67" stroke="#F0F9FF" stroke-width="2" fill="none"/>
    <path d="M 50,73 L 42,58 L 45,62 L 38,55 L 42,59" stroke="#0EA5E9" stroke-width="1.5" fill="none"/>
    <path d="M 50,73 L 58,58 L 55,62 L 62,55 L 58,59" stroke="#0284C7" stroke-width="1.5" fill="none"/>
  </g>
  
  <!-- Plasma wave rings -->
  <g opacity="0.4">
    <circle cx="50" cy="75" r="18" fill="none" stroke="#0EA5E9" stroke-width="1.5">
      <animate attributeName="r" values="18;25;18" dur="1.5s" repeatCount="indefinite"/>
      <animate attributeName="opacity" values="0.4;0.1;0.4" dur="1.5s" repeatCount="indefinite"/>
    </circle>
    <circle cx="50" cy="75" r="26" fill="none" stroke="#0284C7" stroke-width="1.2">
      <animate attributeName="r" values="26;33;26" dur="1.8s" repeatCount="indefinite"/>
      <animate attributeName="opacity" values="0.4;0.1;0.4" dur="1.8s" repeatCount="indefinite"/>
    </circle>
  </g>
  
  <!-- Energy matrix particles -->
  <g opacity="0.6">
    <rect x="28" y="76" width="2" height="2" fill="#0EA5E9" opacity="0.8">
      <animateTransform attributeName="transform" type="rotate" values="0 29 77;360 29 77" dur="3s" repeatCount="indefinite"/>
    </rect>
    <rect x="70" y="76" width="2" height="2" fill="#7DD3FC" opacity="0.8">
      <animateTransform attributeName="transform" type="rotate" values="0 71 77;360 71 77" dur="3s" repeatCount="indefinite"/>
    </rect>
  </g>
</svg>