<svg viewBox="0 0 100 100" xmlns="http://www.w3.org/2000/svg">
  <defs>
    <!-- Original plasma hammer gradient -->
    <linearGradient id="plasmaSteel9" x1="0%" y1="0%" x2="100%" y2="100%">
      <stop offset="0%" style="stop-color:#F0F9FF;stop-opacity:1" />
      <stop offset="20%" style="stop-color:#7DD3FC;stop-opacity:1" />
      <stop offset="40%" style="stop-color:#0EA5E9;stop-opacity:1" />
      <stop offset="60%" style="stop-color:#0284C7;stop-opacity:1" />
      <stop offset="80%" style="stop-color:#0369A1;stop-opacity:1" />
      <stop offset="100%" style="stop-color:#0C4A6E;stop-opacity:1" />
    </linearGradient>
    <!-- Titanium handle -->
    <linearGradient id="titaniumHandle9" x1="0%" y1="0%" x2="100%" y2="100%">
      <stop offset="0%" style="stop-color:#E2E8F0;stop-opacity:1" />
      <stop offset="50%" style="stop-color:#64748B;stop-opacity:1" />
      <stop offset="100%" style="stop-color:#1E293B;stop-opacity:1" />
    </linearGradient>
    <!-- Original plasma field -->
    <radialGradient id="plasmaField9" cx="50%" cy="50%">
      <stop offset="0%" style="stop-color:#F0F9FF;stop-opacity:1" />
      <stop offset="20%" style="stop-color:#7DD3FC;stop-opacity:0.9" />
      <stop offset="40%" style="stop-color:#0EA5E9;stop-opacity:0.7" />
      <stop offset="60%" style="stop-color:#0284C7;stop-opacity:0.5" />
      <stop offset="80%" style="stop-color:#0369A1;stop-opacity:0.2" />
      <stop offset="100%" style="stop-color:#0C4A6E;stop-opacity:0" />
    </radialGradient>
    <!-- Aurora gradients -->
    <linearGradient id="aurora1" x1="0%" y1="0%" x2="100%" y2="100%">
      <stop offset="0%" style="stop-color:#00FF7F;stop-opacity:0.8" />
      <stop offset="30%" style="stop-color:#00FFFF;stop-opacity:0.8" />
      <stop offset="60%" style="stop-color:#8A2BE2;stop-opacity:0.8" />
      <stop offset="100%" style="stop-color:#FF69B4;stop-opacity:0.8" />
    </linearGradient>
    <linearGradient id="aurora2" x1="0%" y1="0%" x2="100%" y2="100%">
      <stop offset="0%" style="stop-color:#FF69B4;stop-opacity:0.7" />
      <stop offset="30%" style="stop-color:#8A2BE2;stop-opacity:0.7" />
      <stop offset="60%" style="stop-color:#00FFFF;stop-opacity:0.7" />
      <stop offset="100%" style="stop-color:#00FF7F;stop-opacity:0.7" />
    </linearGradient>
    <!-- Filters -->
    <filter id="quantumDistort9">
      <feTurbulence baseFrequency="0.08" numOctaves="3"/>
      <feDisplacementMap in="SourceGraphic" scale="4"/>
    </filter>
    <filter id="hyperVelocity9">
      <feGaussianBlur in="SourceGraphic" stdDeviation="4,1.2"/>
    </filter>
    <filter id="energyGlow9">
      <feGaussianBlur stdDeviation="3"/>
    </filter>
    <filter id="auroraEffect9">
      <feGaussianBlur stdDeviation="2"/>
      <feColorMatrix values="1.1 0 0 0 0  0 1.1 0 0 0  0 0 1.1 0 0  0 0 0 1 0"/>
    </filter>
  </defs>
  
  <!-- High-tech anvil base -->
  <path d="M 20,78 L 30,75 L 70,75 L 80,78 L 76,88 L 24,88 Z" fill="#0F172A" stroke="#0369A1" stroke-width="0.5"/>
  <rect x="32" y="72" width="36" height="6" rx="2" fill="#1E293B" stroke="#0EA5E9" stroke-width="0.3"/>
  <!-- Tech surface pattern -->
  <rect x="34" y="72" width="32" height="2" fill="#0284C7" opacity="0.6"/>
  <rect x="36" y="74" width="4" height="2" fill="#7DD3FC" opacity="0.4"/>
  <rect x="44" y="74" width="4" height="2" fill="#7DD3FC" opacity="0.4"/>
  <rect x="52" y="74" width="4" height="2" fill="#7DD3FC" opacity="0.4"/>
  <rect x="60" y="74" width="4" height="2" fill="#7DD3FC" opacity="0.4"/>
  
  <!-- Original plasma field -->
  <ellipse cx="50" cy="75" rx="40" ry="24" fill="url(#plasmaField9)" opacity="0.95"/>
  
  <!-- Aurora quantum distortion trails -->
  <g opacity="0.8" filter="url(#quantumDistort9)">
    <path d="M 15,15 Q 30,5 50,75" stroke="url(#aurora1)" stroke-width="3" fill="none" opacity="0.8"/>
    <path d="M 85,15 Q 70,5 50,75" stroke="url(#aurora2)" stroke-width="3" fill="none" opacity="0.8"/>
    <path d="M 50,0 Q 40,30 50,75" stroke="#00FF7F" stroke-width="2.5" fill="none" opacity="0.7"/>
    <path d="M 50,0 Q 60,30 50,75" stroke="#FF69B4" stroke-width="2.5" fill="none" opacity="0.7"/>
  </g>
  
  <!-- Hyper-velocity motion blur -->
  <g opacity="0.5" filter="url(#hyperVelocity9)">
    <rect x="46" y="2" width="8" height="56" fill="#0EA5E9" transform="rotate(-38 50 30)"/>
    <rect x="44" y="-2" width="8" height="56" fill="#0284C7" transform="rotate(-34 48 26)"/>
    <rect x="42" y="-6" width="8" height="56" fill="#0369A1" transform="rotate(-30 46 22)"/>
  </g>
  
  <!-- Main plasma hammer (unchanged) -->
  <g transform="rotate(-38 50 36)">
    <!-- Titanium handle with tech grip -->
    <rect x="47" y="2" width="6" height="52" rx="3" fill="url(#titaniumHandle9)"/>
    <!-- Tech grip pattern -->
    <rect x="47.2" y="12" width="5.6" height="1" fill="#0EA5E9" opacity="0.7"/>
    <rect x="47.2" y="16" width="5.6" height="1" fill="#0EA5E9" opacity="0.7"/>
    <rect x="47.2" y="20" width="5.6" height="1" fill="#0EA5E9" opacity="0.7"/>
    <rect x="47.2" y="24" width="5.6" height="1" fill="#0EA5E9" opacity="0.7"/>
    <rect x="47.2" y="28" width="5.6" height="1" fill="#0EA5E9" opacity="0.7"/>
    <rect x="47.2" y="32" width="5.6" height="1" fill="#0EA5E9" opacity="0.7"/>
    <rect x="47.2" y="36" width="5.6" height="1" fill="#0EA5E9" opacity="0.7"/>
    <!-- Plasma-forged hammer head -->
    <rect x="36" y="-4" width="28" height="18" rx="4" fill="url(#plasmaSteel9)"/>
    <!-- Energy core -->
    <rect x="38" y="1" width="24" height="3" fill="#F0F9FF" opacity="0.9"/>
    <rect x="38" y="8" width="24" height="3" fill="#0C4A6E" opacity="0.8"/>
    <!-- Tech details -->
    <circle cx="42" cy="5" r="1" fill="#7DD3FC" opacity="0.8"/>
    <circle cx="58" cy="5" r="1" fill="#7DD3FC" opacity="0.8"/>
  </g>
  
  <!-- Plasma explosion core -->
  <circle cx="50" cy="73" r="5" fill="#F0F9FF" filter="url(#energyGlow9)">
    <animate attributeName="r" values="5;3;5" dur="0.4s" repeatCount="indefinite"/>
    <animate attributeName="opacity" values="1;0.7;1" dur="0.4s" repeatCount="indefinite"/>
  </circle>
  
  <!-- Aurora particle burst -->
  <g opacity="0.9">
    <circle cx="43" cy="70" r="3" fill="#00FF7F"/>
    <circle cx="57" cy="70" r="3" fill="#FF69B4"/>
    <circle cx="36" cy="72" r="2.5" fill="#00FFFF" opacity="0.9"/>
    <circle cx="64" cy="72" r="2.5" fill="#8A2BE2" opacity="0.9"/>
    <circle cx="46" cy="66" r="2" fill="#32CD32" opacity="0.8"/>
    <circle cx="54" cy="66" r="2" fill="#DA70D6" opacity="0.8"/>
    <circle cx="39" cy="76" r="1.5" fill="#00CED1" opacity="0.7"/>
    <circle cx="61" cy="76" r="1.5" fill="#9370DB" opacity="0.7"/>
  </g>
  
  <!-- Aurora quantum energy discharge -->
  <g filter="url(#quantumDistort9)" opacity="0.8">
    <path d="M 50,73 L 30,68 L 35,70 L 25,65 L 30,67" stroke="#00FF7F" stroke-width="2" fill="none"/>
    <path d="M 50,73 L 70,68 L 65,70 L 75,65 L 70,67" stroke="#FF69B4" stroke-width="2" fill="none"/>
    <path d="M 50,73 L 42,58 L 45,62 L 38,55 L 42,59" stroke="#00FFFF" stroke-width="1.5" fill="none"/>
    <path d="M 50,73 L 58,58 L 55,62 L 62,55 L 58,59" stroke="#8A2BE2" stroke-width="1.5" fill="none"/>
    <!-- Cascading aurora waves -->
    <path d="M 35,70 Q 42,65 50,70 Q 58,75 65,70" stroke="#32CD32" stroke-width="1" fill="none" opacity="0.7">
      <animate attributeName="stroke" values="#32CD32;#00FFFF;#8A2BE2;#FF69B4;#32CD32" dur="3s" repeatCount="indefinite"/>
    </path>
  </g>
  
  <!-- Aurora wave rings -->
  <g opacity="0.4">
    <circle cx="50" cy="75" r="18" fill="none" stroke="url(#aurora1)" stroke-width="1.5">
      <animate attributeName="r" values="18;25;18" dur="1.5s" repeatCount="indefinite"/>
      <animate attributeName="opacity" values="0.4;0.1;0.4" dur="1.5s" repeatCount="indefinite"/>
    </circle>
    <circle cx="50" cy="75" r="26" fill="none" stroke="url(#aurora2)" stroke-width="1.2">
      <animate attributeName="r" values="26;33;26" dur="1.8s" repeatCount="indefinite"/>
      <animate attributeName="opacity" values="0.4;0.1;0.4" dur="1.8s" repeatCount="indefinite"/>
    </circle>
    <circle cx="50" cy="75" r="34" fill="none" stroke="#8A2BE2" stroke-width="0.8">
      <animate attributeName="r" values="34;41;34" dur="2.1s" repeatCount="indefinite"/>
      <animate attributeName="opacity" values="0.4;0.1;0.4" dur="2.1s" repeatCount="indefinite"/>
    </circle>
  </g>
  
  <!-- Aurora energy matrix particles -->
  <g opacity="0.6">
    <rect x="28" y="76" width="2" height="2" fill="#00FF7F" opacity="0.8">
      <animateTransform attributeName="transform" type="rotate" values="0 29 77;360 29 77" dur="3s" repeatCount="indefinite"/>
    </rect>
    <rect x="70" y="76" width="2" height="2" fill="#FF69B4" opacity="0.8">
      <animateTransform attributeName="transform" type="rotate" values="0 71 77;360 71 77" dur="3s" repeatCount="indefinite"/>
    </rect>
    <rect x="44" y="58" width="1.5" height="1.5" fill="#00FFFF" opacity="0.7">
      <animateTransform attributeName="transform" type="rotate" values="0 44.75 58.75;360 44.75 58.75" dur="2.5s" repeatCount="indefinite"/>
    </rect>
    <rect x="54" y="58" width="1.5" height="1.5" fill="#8A2BE2" opacity="0.7">
      <animateTransform attributeName="transform" type="rotate" values="0 54.75 58.75;360 54.75 58.75" dur="2.5s" repeatCount="indefinite"/>
    </rect>
  </g>
</svg>