<svg viewBox="0 0 100 100" xmlns="http://www.w3.org/2000/svg">
  <defs>
    <!-- Plasma-forged steel gradient -->
    <linearGradient id="plasmaSteel4" x1="0%" y1="0%" x2="100%" y2="100%">
      <stop offset="0%" style="stop-color:#F0F9FF;stop-opacity:1" />
      <stop offset="20%" style="stop-color:#7DD3FC;stop-opacity:1" />
      <stop offset="40%" style="stop-color:#0EA5E9;stop-opacity:1" />
      <stop offset="60%" style="stop-color:#0284C7;stop-opacity:1" />
      <stop offset="80%" style="stop-color:#0369A1;stop-opacity:1" />
      <stop offset="100%" style="stop-color:#0C4A6E;stop-opacity:1" />
    </linearGradient>
    <!-- Liquid metal shimmer -->
    <linearGradient id="liquidShimmer4" x1="0%" y1="0%" x2="100%" y2="100%">
      <stop offset="0%" style="stop-color:#F0F9FF;stop-opacity:0.8" />
      <stop offset="50%" style="stop-color:#7DD3FC;stop-opacity:0.3" />
      <stop offset="100%" style="stop-color:#F0F9FF;stop-opacity:0.8" />
    </linearGradient>
    <!-- Titanium handle -->
    <linearGradient id="titaniumHandle4" x1="0%" y1="0%" x2="100%" y2="100%">
      <stop offset="0%" style="stop-color:#E2E8F0;stop-opacity:1" />
      <stop offset="50%" style="stop-color:#64748B;stop-opacity:1" />
      <stop offset="100%" style="stop-color:#1E293B;stop-opacity:1" />
    </linearGradient>
    <!-- Plasma energy field -->
    <radialGradient id="plasmaField4" cx="50%" cy="50%">
      <stop offset="0%" style="stop-color:#F0F9FF;stop-opacity:1" />
      <stop offset="20%" style="stop-color:#7DD3FC;stop-opacity:0.9" />
      <stop offset="40%" style="stop-color:#0EA5E9;stop-opacity:0.7" />
      <stop offset="60%" style="stop-color:#0284C7;stop-opacity:0.5" />
      <stop offset="80%" style="stop-color:#0369A1;stop-opacity:0.2" />
      <stop offset="100%" style="stop-color:#0C4A6E;stop-opacity:0" />
    </radialGradient>
    <!-- Filters -->
    <filter id="quantumDistort4">
      <feTurbulence baseFrequency="0.08" numOctaves="3"/>
      <feDisplacementMap in="SourceGraphic" scale="4"/>
    </filter>
    <filter id="hyperVelocity4">
      <feGaussianBlur in="SourceGraphic" stdDeviation="4,1.2"/>
    </filter>
    <filter id="energyGlow4">
      <feGaussianBlur stdDeviation="3"/>
    </filter>
    <filter id="liquidMotion4">
      <feTurbulence baseFrequency="0.02" numOctaves="1" result="turbulence">
        <animate attributeName="baseFrequency" values="0.02;0.04;0.02" dur="3s" repeatCount="indefinite"/>
      </feTurbulence>
      <feDisplacementMap in="SourceGraphic" in2="turbulence" scale="2"/>
    </filter>
  </defs>
  
  <!-- High-tech anvil base -->
  <path d="M 20,78 L 30,75 L 70,75 L 80,78 L 76,88 L 24,88 Z" fill="#0F172A" stroke="#0369A1" stroke-width="0.5"/>
  <rect x="32" y="72" width="36" height="6" rx="2" fill="#1E293B" stroke="#0EA5E9" stroke-width="0.3"/>
  <!-- Tech surface pattern -->
  <rect x="34" y="72" width="32" height="2" fill="#0284C7" opacity="0.6"/>
  <rect x="36" y="74" width="4" height="2" fill="#7DD3FC" opacity="0.4"/>
  <rect x="44" y="74" width="4" height="2" fill="#7DD3FC" opacity="0.4"/>
  <rect x="52" y="74" width="4" height="2" fill="#7DD3FC" opacity="0.4"/>
  <rect x="60" y="74" width="4" height="2" fill="#7DD3FC" opacity="0.4"/>
  
  <!-- Massive plasma field -->
  <ellipse cx="50" cy="75" rx="40" ry="24" fill="url(#plasmaField4)" opacity="0.95"/>
  
  <!-- Quantum distortion trails -->
  <g opacity="0.6" filter="url(#quantumDistort4)">
    <path d="M 15,15 Q 30,5 50,75" stroke="#0EA5E9" stroke-width="3" fill="none" opacity="0.8"/>
    <path d="M 85,15 Q 70,5 50,75" stroke="#0EA5E9" stroke-width="3" fill="none" opacity="0.8"/>
    <path d="M 50,0 Q 40,30 50,75" stroke="#0284C7" stroke-width="2.5" fill="none" opacity="0.7"/>
    <path d="M 50,0 Q 60,30 50,75" stroke="#0284C7" stroke-width="2.5" fill="none" opacity="0.7"/>
  </g>
  
  <!-- Hyper-velocity motion blur -->
  <g opacity="0.5" filter="url(#hyperVelocity4)">
    <rect x="46" y="2" width="8" height="56" fill="#0EA5E9" transform="rotate(-38 50 30)"/>
    <rect x="44" y="-2" width="8" height="56" fill="#0284C7" transform="rotate(-34 48 26)"/>
    <rect x="42" y="-6" width="8" height="56" fill="#0369A1" transform="rotate(-30 46 22)"/>
  </g>
  
  <!-- Main plasma hammer with organic wave head -->
  <g transform="rotate(-38 50 36)">
    <!-- Titanium handle with tech grip -->
    <rect x="47" y="2" width="6" height="52" rx="3" fill="url(#titaniumHandle4)"/>
    <!-- Tech grip pattern -->
    <rect x="47.2" y="12" width="5.6" height="1" fill="#0EA5E9" opacity="0.7"/>
    <rect x="47.2" y="16" width="5.6" height="1" fill="#0EA5E9" opacity="0.7"/>
    <rect x="47.2" y="20" width="5.6" height="1" fill="#0EA5E9" opacity="0.7"/>
    <rect x="47.2" y="24" width="5.6" height="1" fill="#0EA5E9" opacity="0.7"/>
    <rect x="47.2" y="28" width="5.6" height="1" fill="#0EA5E9" opacity="0.7"/>
    <rect x="47.2" y="32" width="5.6" height="1" fill="#0EA5E9" opacity="0.7"/>
    <rect x="47.2" y="36" width="5.6" height="1" fill="#0EA5E9" opacity="0.7"/>
    <!-- Organic wave-like hammer head -->
    <g filter="url(#liquidMotion4)">
      <path d="M 36,-4 Q 38,-6 42,-4 L 58,-4 Q 62,-6 64,-4 L 64,14 Q 62,16 58,14 L 42,14 Q 38,16 36,14 Z" 
            fill="url(#plasmaSteel4)"/>
      <!-- Liquid flow patterns -->
      <path d="M 38,0 Q 50,2 62,0 Q 50,4 38,2 Q 50,6 62,4 Q 50,8 38,6 Q 50,10 62,8" 
            stroke="url(#liquidShimmer4)" stroke-width="0.5" fill="none" opacity="0.6"/>
    </g>
    <!-- Energy core with liquid appearance -->
    <ellipse cx="50" cy="5" rx="12" ry="3" fill="#F0F9FF" opacity="0.9" filter="url(#liquidMotion4)"/>
    <ellipse cx="50" cy="9" rx="12" ry="2" fill="#0C4A6E" opacity="0.8" filter="url(#liquidMotion4)"/>
    <!-- Liquid metal drops -->
    <circle cx="42" cy="5" r="1.5" fill="#7DD3FC" opacity="0.8">
      <animate attributeName="r" values="1.5;1;1.5" dur="2s" repeatCount="indefinite"/>
    </circle>
    <circle cx="58" cy="5" r="1.5" fill="#7DD3FC" opacity="0.8">
      <animate attributeName="r" values="1.5;1;1.5" dur="2s" repeatCount="indefinite"/>
    </circle>
  </g>
  
  <!-- Plasma explosion core -->
  <circle cx="50" cy="73" r="5" fill="#F0F9FF" filter="url(#energyGlow4)">
    <animate attributeName="r" values="5;3;5" dur="0.4s" repeatCount="indefinite"/>
    <animate attributeName="opacity" values="1;0.7;1" dur="0.4s" repeatCount="indefinite"/>
  </circle>
  
  <!-- High-energy particle burst -->
  <g opacity="0.9">
    <circle cx="43" cy="70" r="3" fill="#7DD3FC"/>
    <circle cx="57" cy="70" r="3" fill="#7DD3FC"/>
    <circle cx="36" cy="72" r="2.5" fill="#0EA5E9" opacity="0.9"/>
    <circle cx="64" cy="72" r="2.5" fill="#0EA5E9" opacity="0.9"/>
    <circle cx="46" cy="66" r="2" fill="#F0F9FF" opacity="0.8"/>
    <circle cx="54" cy="66" r="2" fill="#F0F9FF" opacity="0.8"/>
    <circle cx="39" cy="76" r="1.5" fill="#0284C7" opacity="0.7"/>
    <circle cx="61" cy="76" r="1.5" fill="#0284C7" opacity="0.7"/>
  </g>
  
  <!-- Quantum energy discharge -->
  <g filter="url(#quantumDistort4)" opacity="0.7">
    <path d="M 50,73 L 30,68 L 35,70 L 25,65 L 30,67" stroke="#F0F9FF" stroke-width="2" fill="none"/>
    <path d="M 50,73 L 70,68 L 65,70 L 75,65 L 70,67" stroke="#F0F9FF" stroke-width="2" fill="none"/>
    <path d="M 50,73 L 42,58 L 45,62 L 38,55 L 42,59" stroke="#7DD3FC" stroke-width="1.5" fill="none"/>
    <path d="M 50,73 L 58,58 L 55,62 L 62,55 L 58,59" stroke="#7DD3FC" stroke-width="1.5" fill="none"/>
  </g>
  
  <!-- Plasma wave rings -->
  <g opacity="0.4">
    <circle cx="50" cy="75" r="18" fill="none" stroke="#0EA5E9" stroke-width="1.5">
      <animate attributeName="r" values="18;25;18" dur="1.5s" repeatCount="indefinite"/>
      <animate attributeName="opacity" values="0.4;0.1;0.4" dur="1.5s" repeatCount="indefinite"/>
    </circle>
    <circle cx="50" cy="75" r="26" fill="none" stroke="#0284C7" stroke-width="1.2">
      <animate attributeName="r" values="26;33;26" dur="1.8s" repeatCount="indefinite"/>
      <animate attributeName="opacity" values="0.4;0.1;0.4" dur="1.8s" repeatCount="indefinite"/>
    </circle>
    <circle cx="50" cy="75" r="34" fill="none" stroke="#0369A1" stroke-width="0.8">
      <animate attributeName="r" values="34;41;34" dur="2.1s" repeatCount="indefinite"/>
      <animate attributeName="opacity" values="0.4;0.1;0.4" dur="2.1s" repeatCount="indefinite"/>
    </circle>
  </g>
  
  <!-- Energy matrix particles -->
  <g opacity="0.6">
    <rect x="28" y="76" width="2" height="2" fill="#7DD3FC" opacity="0.8">
      <animateTransform attributeName="transform" type="rotate" values="0 29 77;360 29 77" dur="3s" repeatCount="indefinite"/>
    </rect>
    <rect x="70" y="76" width="2" height="2" fill="#7DD3FC" opacity="0.8">
      <animateTransform attributeName="transform" type="rotate" values="0 71 77;360 71 77" dur="3s" repeatCount="indefinite"/>
    </rect>
    <rect x="44" y="58" width="1.5" height="1.5" fill="#0EA5E9" opacity="0.7">
      <animateTransform attributeName="transform" type="rotate" values="0 44.75 58.75;360 44.75 58.75" dur="2.5s" repeatCount="indefinite"/>
    </rect>
    <rect x="54" y="58" width="1.5" height="1.5" fill="#0EA5E9" opacity="0.7">
      <animateTransform attributeName="transform" type="rotate" values="0 54.75 58.75;360 54.75 58.75" dur="2.5s" repeatCount="indefinite"/>
    </rect>
  </g>
</svg>