<svg viewBox="0 0 100 100" xmlns="http://www.w3.org/2000/svg">
  <defs>
    <!-- Plasma-forged steel gradient -->
    <linearGradient id="plasmaSteel5" x1="0%" y1="0%" x2="100%" y2="100%">
      <stop offset="0%" style="stop-color:#F0F9FF;stop-opacity:1" />
      <stop offset="20%" style="stop-color:#7DD3FC;stop-opacity:1" />
      <stop offset="40%" style="stop-color:#0EA5E9;stop-opacity:1" />
      <stop offset="60%" style="stop-color:#0284C7;stop-opacity:1" />
      <stop offset="80%" style="stop-color:#0369A1;stop-opacity:1" />
      <stop offset="100%" style="stop-color:#0C4A6E;stop-opacity:1" />
    </linearGradient>
    <!-- Bio crystalline gradient -->
    <radialGradient id="bioGradient5" cx="50%" cy="50%">
      <stop offset="0%" style="stop-color:#F0F9FF;stop-opacity:0.9" />
      <stop offset="30%" style="stop-color:#7DD3FC;stop-opacity:0.7" />
      <stop offset="60%" style="stop-color:#0EA5E9;stop-opacity:0.5" />
      <stop offset="100%" style="stop-color:#0284C7;stop-opacity:0.3" />
    </radialGradient>
    <!-- Titanium handle -->
    <linearGradient id="titaniumHandle5" x1="0%" y1="0%" x2="100%" y2="100%">
      <stop offset="0%" style="stop-color:#E2E8F0;stop-opacity:1" />
      <stop offset="50%" style="stop-color:#64748B;stop-opacity:1" />
      <stop offset="100%" style="stop-color:#1E293B;stop-opacity:1" />
    </linearGradient>
    <!-- Plasma energy field -->
    <radialGradient id="plasmaField5" cx="50%" cy="50%">
      <stop offset="0%" style="stop-color:#F0F9FF;stop-opacity:1" />
      <stop offset="20%" style="stop-color:#7DD3FC;stop-opacity:0.9" />
      <stop offset="40%" style="stop-color:#0EA5E9;stop-opacity:0.7" />
      <stop offset="60%" style="stop-color:#0284C7;stop-opacity:0.5" />
      <stop offset="80%" style="stop-color:#0369A1;stop-opacity:0.2" />
      <stop offset="100%" style="stop-color:#0C4A6E;stop-opacity:0" />
    </radialGradient>
    <!-- Filters -->
    <filter id="quantumDistort5">
      <feTurbulence baseFrequency="0.08" numOctaves="3"/>
      <feDisplacementMap in="SourceGraphic" scale="4"/>
    </filter>
    <filter id="hyperVelocity5">
      <feGaussianBlur in="SourceGraphic" stdDeviation="4,1.2"/>
    </filter>
    <filter id="energyGlow5">
      <feGaussianBlur stdDeviation="3"/>
    </filter>
    <filter id="organicPulse5">
      <feMorphology operator="dilate" radius="0.5">
        <animate attributeName="radius" values="0.5;1;0.5" dur="2s" repeatCount="indefinite"/>
      </feMorphology>
    </filter>
  </defs>
  
  <!-- High-tech anvil base -->
  <path d="M 20,78 L 30,75 L 70,75 L 80,78 L 76,88 L 24,88 Z" fill="#0F172A" stroke="#0369A1" stroke-width="0.5"/>
  <rect x="32" y="72" width="36" height="6" rx="2" fill="#1E293B" stroke="#0EA5E9" stroke-width="0.3"/>
  <!-- Tech surface pattern -->
  <rect x="34" y="72" width="32" height="2" fill="#0284C7" opacity="0.6"/>
  <rect x="36" y="74" width="4" height="2" fill="#7DD3FC" opacity="0.4"/>
  <rect x="44" y="74" width="4" height="2" fill="#7DD3FC" opacity="0.4"/>
  <rect x="52" y="74" width="4" height="2" fill="#7DD3FC" opacity="0.4"/>
  <rect x="60" y="74" width="4" height="2" fill="#7DD3FC" opacity="0.4"/>
  
  <!-- Massive plasma field -->
  <ellipse cx="50" cy="75" rx="40" ry="24" fill="url(#plasmaField5)" opacity="0.95"/>
  
  <!-- Quantum distortion trails -->
  <g opacity="0.6" filter="url(#quantumDistort5)">
    <path d="M 15,15 Q 30,5 50,75" stroke="#0EA5E9" stroke-width="3" fill="none" opacity="0.8"/>
    <path d="M 85,15 Q 70,5 50,75" stroke="#0EA5E9" stroke-width="3" fill="none" opacity="0.8"/>
    <path d="M 50,0 Q 40,30 50,75" stroke="#0284C7" stroke-width="2.5" fill="none" opacity="0.7"/>
    <path d="M 50,0 Q 60,30 50,75" stroke="#0284C7" stroke-width="2.5" fill="none" opacity="0.7"/>
  </g>
  
  <!-- Hyper-velocity motion blur -->
  <g opacity="0.5" filter="url(#hyperVelocity5)">
    <rect x="46" y="2" width="8" height="56" fill="#0EA5E9" transform="rotate(-38 50 30)"/>
    <rect x="44" y="-2" width="8" height="56" fill="#0284C7" transform="rotate(-34 48 26)"/>
    <rect x="42" y="-6" width="8" height="56" fill="#0369A1" transform="rotate(-30 46 22)"/>
  </g>
  
  <!-- Main plasma hammer with bio-crystalline head -->
  <g transform="rotate(-38 50 36)">
    <!-- Titanium handle with tech grip -->
    <rect x="47" y="2" width="6" height="52" rx="3" fill="url(#titaniumHandle5)"/>
    <!-- Tech grip pattern -->
    <rect x="47.2" y="12" width="5.6" height="1" fill="#0EA5E9" opacity="0.7"/>
    <rect x="47.2" y="16" width="5.6" height="1" fill="#0EA5E9" opacity="0.7"/>
    <rect x="47.2" y="20" width="5.6" height="1" fill="#0EA5E9" opacity="0.7"/>
    <rect x="47.2" y="24" width="5.6" height="1" fill="#0EA5E9" opacity="0.7"/>
    <rect x="47.2" y="28" width="5.6" height="1" fill="#0EA5E9" opacity="0.7"/>
    <rect x="47.2" y="32" width="5.6" height="1" fill="#0EA5E9" opacity="0.7"/>
    <rect x="47.2" y="36" width="5.6" height="1" fill="#0EA5E9" opacity="0.7"/>
    <!-- Bio-crystalline hammer head (organic crystal growth pattern) -->
    <g filter="url(#organicPulse5)">
      <!-- Main crystal body -->
      <path d="M 38,-4 C 36,-6 36,-2 38,0 L 40,2 C 42,4 44,5 50,5 C 56,5 58,4 60,2 L 62,0 C 64,-2 64,-6 62,-4 C 60,-2 58,0 50,0 C 42,0 40,-2 38,-4 Z" 
            fill="url(#plasmaSteel5)"/>
      <path d="M 38,14 C 36,16 36,12 38,10 L 40,8 C 42,6 44,5 50,5 C 56,5 58,6 60,8 L 62,10 C 64,12 64,16 62,14 C 60,12 58,10 50,10 C 42,10 40,12 38,14 Z" 
            fill="url(#plasmaSteel5)"/>
      <!-- Crystal facets -->
      <polygon points="40,0 50,-3 45,2" fill="url(#bioGradient5)" opacity="0.7"/>
      <polygon points="60,0 50,-3 55,2" fill="url(#bioGradient5)" opacity="0.7"/>
      <polygon points="40,10 50,13 45,8" fill="url(#bioGradient5)" opacity="0.6"/>
      <polygon points="60,10 50,13 55,8" fill="url(#bioGradient5)" opacity="0.6"/>
    </g>
    <!-- Living energy core -->
    <ellipse cx="50" cy="5" rx="8" ry="4" fill="#F0F9FF" opacity="0.9">
      <animate attributeName="rx" values="8;10;8" dur="2s" repeatCount="indefinite"/>
      <animate attributeName="ry" values="4;5;4" dur="2s" repeatCount="indefinite"/>
    </ellipse>
    <!-- Bio nodes -->
    <circle cx="44" cy="5" r="1.2" fill="#7DD3FC" opacity="0.9">
      <animate attributeName="opacity" values="0.9;0.5;0.9" dur="1.5s" repeatCount="indefinite"/>
    </circle>
    <circle cx="56" cy="5" r="1.2" fill="#7DD3FC" opacity="0.9">
      <animate attributeName="opacity" values="0.5;0.9;0.5" dur="1.5s" repeatCount="indefinite"/>
    </circle>
    <circle cx="50" cy="2" r="1" fill="#0EA5E9" opacity="0.8"/>
    <circle cx="50" cy="8" r="1" fill="#0EA5E9" opacity="0.8"/>
  </g>
  
  <!-- Plasma explosion core -->
  <circle cx="50" cy="73" r="5" fill="#F0F9FF" filter="url(#energyGlow5)">
    <animate attributeName="r" values="5;3;5" dur="0.4s" repeatCount="indefinite"/>
    <animate attributeName="opacity" values="1;0.7;1" dur="0.4s" repeatCount="indefinite"/>
  </circle>
  
  <!-- High-energy particle burst with organic pattern -->
  <g opacity="0.9">
    <circle cx="43" cy="70" r="3" fill="#7DD3FC"/>
    <circle cx="57" cy="70" r="3" fill="#7DD3FC"/>
    <circle cx="36" cy="72" r="2.5" fill="#0EA5E9" opacity="0.9"/>
    <circle cx="64" cy="72" r="2.5" fill="#0EA5E9" opacity="0.9"/>
    <circle cx="46" cy="66" r="2" fill="#F0F9FF" opacity="0.8"/>
    <circle cx="54" cy="66" r="2" fill="#F0F9FF" opacity="0.8"/>
    <circle cx="39" cy="76" r="1.5" fill="#0284C7" opacity="0.7"/>
    <circle cx="61" cy="76" r="1.5" fill="#0284C7" opacity="0.7"/>
    <!-- Organic growth particles -->
    <circle cx="50" cy="65" r="1" fill="#7DD3FC" opacity="0.8">
      <animate attributeName="r" values="1;1.5;1" dur="1.5s" repeatCount="indefinite"/>
    </circle>
    <circle cx="45" cy="75" r="0.8" fill="#0EA5E9" opacity="0.7">
      <animate attributeName="r" values="0.8;1.2;0.8" dur="1.8s" repeatCount="indefinite"/>
    </circle>
    <circle cx="55" cy="75" r="0.8" fill="#0EA5E9" opacity="0.7">
      <animate attributeName="r" values="0.8;1.2;0.8" dur="1.8s" repeatCount="indefinite"/>
    </circle>
  </g>
  
  <!-- Quantum energy discharge -->
  <g filter="url(#quantumDistort5)" opacity="0.7">
    <path d="M 50,73 L 30,68 L 35,70 L 25,65 L 30,67" stroke="#F0F9FF" stroke-width="2" fill="none"/>
    <path d="M 50,73 L 70,68 L 65,70 L 75,65 L 70,67" stroke="#F0F9FF" stroke-width="2" fill="none"/>
    <path d="M 50,73 L 42,58 L 45,62 L 38,55 L 42,59" stroke="#7DD3FC" stroke-width="1.5" fill="none"/>
    <path d="M 50,73 L 58,58 L 55,62 L 62,55 L 58,59" stroke="#7DD3FC" stroke-width="1.5" fill="none"/>
    <!-- Organic branching -->
    <path d="M 50,73 Q 45,68 40,65 Q 42,67 38,64" stroke="#0EA5E9" stroke-width="1" fill="none" opacity="0.6"/>
    <path d="M 50,73 Q 55,68 60,65 Q 58,67 62,64" stroke="#0EA5E9" stroke-width="1" fill="none" opacity="0.6"/>
  </g>
  
  <!-- Plasma wave rings -->
  <g opacity="0.4">
    <circle cx="50" cy="75" r="18" fill="none" stroke="#0EA5E9" stroke-width="1.5">
      <animate attributeName="r" values="18;25;18" dur="1.5s" repeatCount="indefinite"/>
      <animate attributeName="opacity" values="0.4;0.1;0.4" dur="1.5s" repeatCount="indefinite"/>
    </circle>
    <circle cx="50" cy="75" r="26" fill="none" stroke="#0284C7" stroke-width="1.2">
      <animate attributeName="r" values="26;33;26" dur="1.8s" repeatCount="indefinite"/>
      <animate attributeName="opacity" values="0.4;0.1;0.4" dur="1.8s" repeatCount="indefinite"/>
    </circle>
    <circle cx="50" cy="75" r="34" fill="none" stroke="#0369A1" stroke-width="0.8">
      <animate attributeName="r" values="34;41;34" dur="2.1s" repeatCount="indefinite"/>
      <animate attributeName="opacity" values="0.4;0.1;0.4" dur="2.1s" repeatCount="indefinite"/>
    </circle>
  </g>
  
  <!-- Energy matrix particles -->
  <g opacity="0.6">
    <rect x="28" y="76" width="2" height="2" fill="#7DD3FC" opacity="0.8">
      <animateTransform attributeName="transform" type="rotate" values="0 29 77;360 29 77" dur="3s" repeatCount="indefinite"/>
    </rect>
    <rect x="70" y="76" width="2" height="2" fill="#7DD3FC" opacity="0.8">
      <animateTransform attributeName="transform" type="rotate" values="0 71 77;360 71 77" dur="3s" repeatCount="indefinite"/>
    </rect>
    <rect x="44" y="58" width="1.5" height="1.5" fill="#0EA5E9" opacity="0.7">
      <animateTransform attributeName="transform" type="rotate" values="0 44.75 58.75;360 44.75 58.75" dur="2.5s" repeatCount="indefinite"/>
    </rect>
    <rect x="54" y="58" width="1.5" height="1.5" fill="#0EA5E9" opacity="0.7">
      <animateTransform attributeName="transform" type="rotate" values="0 54.75 58.75;360 54.75 58.75" dur="2.5s" repeatCount="indefinite"/>
    </rect>
  </g>
</svg>