<svg viewBox="0 0 100 100" xmlns="http://www.w3.org/2000/svg">
  <defs>
    <!-- Plasma-forged steel gradient with teal -->
    <linearGradient id="plasmaMandala1" x1="0%" y1="0%" x2="100%" y2="100%">
      <stop offset="0%" style="stop-color:#F0F9FF;stop-opacity:1" />
      <stop offset="20%" style="stop-color:#7DD3FC;stop-opacity:1" />
      <stop offset="40%" style="stop-color:#0EA5E9;stop-opacity:1" />
      <stop offset="60%" style="stop-color:#0284C7;stop-opacity:1" />
      <stop offset="80%" style="stop-color:#0369A1;stop-opacity:1" />
      <stop offset="100%" style="stop-color:#0C4A6E;stop-opacity:1" />
    </linearGradient>
    <!-- Mandala energy gradient -->
    <radialGradient id="mandalaEnergy1" cx="50%" cy="50%">
      <stop offset="0%" style="stop-color:#F0F9FF;stop-opacity:0.9" />
      <stop offset="20%" style="stop-color:#7DD3FC;stop-opacity:0.8" />
      <stop offset="40%" style="stop-color:#0EA5E9;stop-opacity:0.6" />
      <stop offset="60%" style="stop-color:#0284C7;stop-opacity:0.4" />
      <stop offset="80%" style="stop-color:#0369A1;stop-opacity:0.2" />
      <stop offset="100%" style="stop-color:#0C4A6E;stop-opacity:0" />
    </radialGradient>
    <!-- Sacred geometry gradient -->
    <linearGradient id="sacredGradient1" x1="0%" y1="0%" x2="100%" y2="100%">
      <stop offset="0%" style="stop-color:#7DD3FC;stop-opacity:0.8" />
      <stop offset="50%" style="stop-color:#0EA5E9;stop-opacity:0.6" />
      <stop offset="100%" style="stop-color:#0284C7;stop-opacity:0.4" />
    </linearGradient>
    <!-- Titanium handle -->
    <linearGradient id="titaniumHandleMandala" x1="0%" y1="0%" x2="100%" y2="100%">
      <stop offset="0%" style="stop-color:#E2E8F0;stop-opacity:1" />
      <stop offset="50%" style="stop-color:#64748B;stop-opacity:1" />
      <stop offset="100%" style="stop-color:#1E293B;stop-opacity:1" />
    </linearGradient>
    <!-- Energy core glow -->
    <filter id="energyGlowMandala">
      <feGaussianBlur stdDeviation="3"/>
      <feColorMatrix values="1 0 0 0 0  0 1 0 0 0  0 0 1 0 0  0 0 0 1 0"/>
    </filter>
    <!-- Sacred pattern -->
    <pattern id="mandalaPattern" x="0" y="0" width="20" height="20" patternUnits="userSpaceOnUse">
      <circle cx="10" cy="10" r="1" fill="#7DD3FC" opacity="0.6"/>
      <path d="M 10,5 L 15,10 L 10,15 L 5,10 Z" fill="none" stroke="#0EA5E9" stroke-width="0.5" opacity="0.4"/>
    </pattern>
  </defs>
  
  <!-- High-tech anvil base -->
  <path d="M 20,78 L 30,75 L 70,75 L 80,78 L 76,88 L 24,88 Z" fill="#0F172A" stroke="#0EA5E9" stroke-width="0.5"/>
  <rect x="32" y="72" width="36" height="6" rx="2" fill="#1E293B" stroke="#0EA5E9" stroke-width="0.3"/>
  <!-- Tech surface pattern -->
  <rect x="34" y="72" width="32" height="2" fill="#0284C7" opacity="0.6"/>
  
  <!-- Mandala energy field with sacred geometry -->
  <g transform="translate(50, 75)">
    <!-- Outer mandala ring -->
    <g opacity="0.3">
      <circle cx="0" cy="0" r="38" fill="none" stroke="url(#sacredGradient1)" stroke-width="1"/>
      <circle cx="0" cy="0" r="36" fill="none" stroke="url(#sacredGradient1)" stroke-width="0.5"/>
      <circle cx="0" cy="0" r="34" fill="none" stroke="url(#sacredGradient1)" stroke-width="0.3"/>
    </g>
    
    <!-- Sacred geometry petals -->
    <g opacity="0.6">
      <!-- 12 petal mandala -->
      <g id="petalMandala">
        <path d="M 0,-30 Q -15,-25 -15,-15 Q -15,-5 0,0 Q 15,-5 15,-15 Q 15,-25 0,-30" fill="url(#mandalaEnergy1)" opacity="0.8"/>
      </g>
      <use href="#petalMandala" transform="rotate(30)"/>
      <use href="#petalMandala" transform="rotate(60)"/>
      <use href="#petalMandala" transform="rotate(90)"/>
      <use href="#petalMandala" transform="rotate(120)"/>
      <use href="#petalMandala" transform="rotate(150)"/>
      <use href="#petalMandala" transform="rotate(180)"/>
      <use href="#petalMandala" transform="rotate(210)"/>
      <use href="#petalMandala" transform="rotate(240)"/>
      <use href="#petalMandala" transform="rotate(270)"/>
      <use href="#petalMandala" transform="rotate(300)"/>
      <use href="#petalMandala" transform="rotate(330)"/>
    </g>
    
    <!-- Inner mandala hexagon -->
    <g opacity="0.7">
      <polygon points="0,-20 17.3,-10 17.3,10 0,20 -17.3,10 -17.3,-10" fill="none" stroke="url(#sacredGradient1)" stroke-width="1.5"/>
      <polygon points="0,-15 13,-7.5 13,7.5 0,15 -13,7.5 -13,-7.5" fill="none" stroke="#7DD3FC" stroke-width="0.8" opacity="0.8"/>
      <polygon points="0,-10 8.7,-5 8.7,5 0,10 -8.7,5 -8.7,-5" fill="url(#mandalaEnergy1)" opacity="0.4"/>
    </g>
    
    <!-- Central Sri Yantra inspired triangles -->
    <g opacity="0.8">
      <polygon points="0,-12 10.4,6 -10.4,6" fill="none" stroke="#0EA5E9" stroke-width="0.8"/>
      <polygon points="0,12 -10.4,-6 10.4,-6" fill="none" stroke="#0284C7" stroke-width="0.8"/>
      <polygon points="0,-8 6.9,4 -6.9,4" fill="url(#mandalaEnergy1)" opacity="0.6"/>
      <polygon points="0,8 -6.9,-4 6.9,-4" fill="url(#mandalaEnergy1)" opacity="0.6"/>
    </g>
    
    <!-- Flower of Life circles -->
    <g opacity="0.5">
      <circle cx="0" cy="-8" r="5" fill="none" stroke="#7DD3FC" stroke-width="0.5"/>
      <circle cx="6.9" cy="-4" r="5" fill="none" stroke="#7DD3FC" stroke-width="0.5"/>
      <circle cx="6.9" cy="4" r="5" fill="none" stroke="#7DD3FC" stroke-width="0.5"/>
      <circle cx="0" cy="8" r="5" fill="none" stroke="#7DD3FC" stroke-width="0.5"/>
      <circle cx="-6.9" cy="4" r="5" fill="none" stroke="#7DD3FC" stroke-width="0.5"/>
      <circle cx="-6.9" cy="-4" r="5" fill="none" stroke="#7DD3FC" stroke-width="0.5"/>
    </g>
    
    <!-- Energy rotation lines -->
    <g opacity="0.4">
      <g id="energySpoke">
        <line x1="0" y1="0" x2="0" y2="-25" stroke="url(#sacredGradient1)" stroke-width="0.8"/>
        <circle cx="0" cy="-25" r="1.5" fill="#7DD3FC"/>
      </g>
      <use href="#energySpoke" transform="rotate(60)"/>
      <use href="#energySpoke" transform="rotate(120)"/>
      <use href="#energySpoke" transform="rotate(180)"/>
      <use href="#energySpoke" transform="rotate(240)"/>
      <use href="#energySpoke" transform="rotate(300)"/>
    </g>
  </g>
  
  <!-- Main plasma hammer -->
  <g transform="rotate(-38 50 36)">
    <!-- Titanium handle with tech grip -->
    <rect x="47" y="2" width="6" height="52" rx="3" fill="url(#titaniumHandleMandala)"/>
    <!-- Tech grip pattern -->
    <rect x="47.2" y="14" width="5.6" height="1" fill="#0EA5E9" opacity="0.7"/>
    <rect x="47.2" y="18" width="5.6" height="1" fill="#7DD3FC" opacity="0.7"/>
    <rect x="47.2" y="22" width="5.6" height="1" fill="#0EA5E9" opacity="0.7"/>
    <rect x="47.2" y="26" width="5.6" height="1" fill="#7DD3FC" opacity="0.7"/>
    <rect x="47.2" y="30" width="5.6" height="1" fill="#0EA5E9" opacity="0.7"/>
    
    <!-- Teal hammer head -->
    <g>
      <!-- Main head shape -->
      <rect x="35" y="-2" width="30" height="16" rx="2" fill="url(#plasmaMandala1)"/>
      <!-- Top face -->
      <rect x="35" y="-2" width="30" height="4" fill="#0369A1" opacity="0.7"/>
      <!-- Side faces -->
      <rect x="35" y="-2" width="4" height="16" fill="#0C4A6E" opacity="0.6"/>
      <rect x="61" y="-2" width="4" height="16" fill="#0C4A6E" opacity="0.6"/>
      <!-- Bottom face -->
      <rect x="35" y="10" width="30" height="4" fill="#0284C7" opacity="0.5"/>
      
      <!-- Sacred geometry on hammer face -->
      <g transform="translate(50, 6)">
        <circle cx="0" cy="0" r="5" fill="none" stroke="#F0F9FF" stroke-width="0.5" opacity="0.8"/>
        <polygon points="0,-3 2.6,1.5 -2.6,1.5" fill="#F0F9FF" opacity="0.6"/>
        <polygon points="0,3 -2.6,-1.5 2.6,-1.5" fill="#7DD3FC" opacity="0.6"/>
      </g>
      
      <!-- Energy channels -->
      <g stroke="#7DD3FC" stroke-width="0.6" fill="none" opacity="0.8">
        <line x1="35" y1="6" x2="65" y2="6"/>
        <line x1="50" y1="-2" x2="50" y2="14"/>
        <line x1="40" y1="-2" x2="40" y2="14" opacity="0.5"/>
        <line x1="60" y1="-2" x2="60" y2="14" opacity="0.5"/>
      </g>
    </g>
  </g>
  
  <!-- Central mandala core explosion -->
  <circle cx="50" cy="75" r="6" fill="#F0F9FF" filter="url(#energyGlowMandala)" opacity="0.9">
    <animate attributeName="r" values="6;4;6" dur="1s" repeatCount="indefinite"/>
    <animate attributeName="opacity" values="0.9;0.6;0.9" dur="1s" repeatCount="indefinite"/>
  </circle>
  
  <!-- Sacred energy particles -->
  <g opacity="0.8">
    <g transform="translate(50, 75)">
      <!-- Rotating sacred symbols -->
      <g id="sacredParticle">
        <circle cx="0" cy="-15" r="1.5" fill="#7DD3FC">
          <animate attributeName="opacity" values="0.8;0.3;0.8" dur="2s" repeatCount="indefinite"/>
        </circle>
        <path d="M 0,-17 L 1.5,-13.5 L -1.5,-13.5 Z" fill="#0EA5E9" opacity="0.6"/>
      </g>
      <use href="#sacredParticle" transform="rotate(72)"/>
      <use href="#sacredParticle" transform="rotate(144)"/>
      <use href="#sacredParticle" transform="rotate(216)"/>
      <use href="#sacredParticle" transform="rotate(288)"/>
    </g>
  </g>
  
  <!-- Mandala wave pulses -->
  <g opacity="0.3" transform="translate(50, 75)">
    <circle cx="0" cy="0" r="20" fill="none" stroke="url(#sacredGradient1)" stroke-width="1">
      <animate attributeName="r" values="20;30;20" dur="2s" repeatCount="indefinite"/>
      <animate attributeName="opacity" values="0.3;0.1;0.3" dur="2s" repeatCount="indefinite"/>
    </circle>
    <circle cx="0" cy="0" r="25" fill="none" stroke="url(#sacredGradient1)" stroke-width="0.8">
      <animate attributeName="r" values="25;35;25" dur="2.5s" repeatCount="indefinite"/>
      <animate attributeName="opacity" values="0.3;0.1;0.3" dur="2.5s" repeatCount="indefinite"/>
    </circle>
  </g>
</svg>